<mxfile host="65bd71144e">
    <diagram id="6j51PimFBkPzcPWXt4ba" name="페이지-1">
        <mxGraphModel dx="1625" dy="733" grid="1" gridSize="10" guides="1" tooltips="1" connect="1" arrows="1" fold="1" page="1" pageScale="1" pageWidth="827" pageHeight="1169" math="0" shadow="0">
            <root>
                <mxCell id="0"/>
                <mxCell id="1" parent="0"/>
                <mxCell id="5" value="" style="shape=image;verticalLabelPosition=bottom;labelBackgroundColor=#ffffff;verticalAlign=top;aspect=fixed;imageAspect=0;image=data:image/png,iVBORw0KGgoAAAANSUhEUgAAAggAAAFKCAYAAAB4hKeZAAAAAXNSR0IArs4c6QAAIABJREFUeF7snQec3MT1x59272xMsektJKGDaUkIxYYQik0Podj0ahJCBxsDofcOoYdm4E83oWMglACmGZNQbBJC76YGsAH3u1vp//mONLsjrbSSdvfOZ3vE5/DdrjSaeTPz3u/VcWZM+9oTe1kKWApYClgKWApYClgKGBRwLECw68FSwFLAUsBSwFLAUiBKAQsQ7JqwFLAUsBSwFLAUsBSoooAFCHZRWApYClgKWApYClgKWIBg14ClgKWApYClgKWApUA6BawFIZ1G9g5LAUsBSwFLAUuBuY4CFiDMdVNuB2wpYClgKWApYCmQTgELENJpZO+wFLAUsBSwFLAUmOsoYAHCXDfldsCWApYClgKWApYC6RSwACGdRvYOSwFLAUsBSwFLgbmOAhYgzHVTbgdsKWApYClgKWApkE4BCxDSaWTvsBSwFLAUsBSwFJjrKGABwlw35XbAlgKWApYClgKWAukUsAAhnUb2DksBSwFLAUsBS4G5jgIWIMx1U24HbClgKWApYClgKZBOAQsQ0mlk77AUsBSwFLAUsBSY6yhgAcJcN+V2wJYClgKWApYClgLpFLAAIZ1G9g5LAUsBSwFLAUuBuY4CFiDMdVNuB2wpEEcBT0QcSxpLAUsBS4EyBboUIHz5vx+lw/WkIAU7BZYClgKZKOCJh+wWV93tOOyd5gpyz39B0H5z2840RHuTpYClQLekQJcChO8mThXXrTCjbkkR2ylLgW5FAU+8byeKM+Fz8VZYVqR37ybDAxFPPJEfpwi/Se8FxGn6G7oVQW1nLAUsBTJSoEsBQsY+2dssBSwFNAU8T1q321Wc0c+Ju9eu0nHtZU2kjSfODz9K8YQzpHD730RaW6Xj6kvEHbx9060UTey0bcpSwFKgiyhgAUIXEdq+xlKgXgo4b7wphZdeEXedX4n3yzXrbab6uclTpGXPP4jz1rvi/mk/cb78Ugoj75H25x4Xb6UVmvce25KlgKXAbEkBCxBmy2mznZ6tKdDRITJ9hsgC89XQ1D1RwQcq5sC/HMf/qPbliUybLjJtmgjuvIUWVJaB2Ovr/0nrFtuLt9xy0nHDleL8+KO0brGDlI48REqH/SntRfZ7SwFLgTmcAhYgzOETbIfX/ShQuPsBKf71Oum47jLxVl4ptoPOO+9J4ZobxT3rZPHmm9cHCK+NF1lySfGWXlLk8y/E4fdiOODXeeBhKV55nRTefV+kvV06/nKOuHvsHE+EUkkKDz8mxRNOE3f4EeJut7W0bLGDuJtvKqULzux+hLM9shSwFOhSCliA0KXkti+zFBApPP6ktOy4p5TOOEFKRx8pzow2kXffFW+VlUR69lQkKrwwVlq2GSwdV/1F3L12E5k4SVo32lK8320l7t67S8tvt5aOfzwozr0PiDfvvOKedLQ4L4yV1h33EnflFcTb4XdSPO0c6Tj/THHTrAHaLPHNd75FYestpOPcU+1UWQpYCszlFLAAYS5fAHb4s4ACU6dKjxV+KaVD/iClU46TwnX/Jy3HniylS86T0pC9fGvBpxOkZfPtpbTfnuIeP1yc19+Q1m0GScf5p0thzEtSuHmkyALzi7f4YuIOP1zc/utK64Dfi9t/Pem44nxp3e8Qcd58W9qffUy85X6eaZDOO+8qF0PHWaeIu/dumZ6xN1kKWArMuRSwAGHOnVs7su5KAUekePBRUnjrHWl/+mEpHnCEFO+4S7zll5X2V54RmaeXOF9+pQAC7oHSCUdL4cFHpGWvP0r7W6+I8+4HUtzvIHEmTpS2L98VWaCPFC+8TIqnni3eEouLM3WqeAsvJB0PjBRv1ZX99MUMqYvFW++U4hHHStvbL4sssRh2jO5KQdsvSwFLgS6ggAUIXUBk+wpLgSgFnH+9Iq1b7iRt48dIy7DjxHl1nIpCdPffR0onHyvOhM98gHD4QSpgsHDV9dJy+rnS9tX76r7WwfuI89RoaZv0qWq6ddDe4vxjtMhCfcTdYTspHXaAeCutGLw2HSA4EydJy4abi7vW6uKddoJ41EtafHEFNOxlKWApMHdSwAKEuXPe7ahnNQUmfS+tGwwUd69dxHnmBXEWWVi8JZaQwv0PSfs9t4r06S2tm28vHZecJ+6g30vx+pulcMzJ0v7tRyLFohRPOlOKF18pbRM/EZlnHmntP0Dc328jHccf5Rc6cl0pnnmByJQpUrrwrJqjdV7/jxT/fIoUnntRta1+uHr2kI4brxZ32y1mNbXs+y0FLAVmAQUsQJgFRLevtBQgw6C4+/5SeOMtkfl6qcwB95ih0rLLviJffS3utltK8br/k/YxT4q72ipSfOxJ9V37v19UMQWFW+6UloOHSfs7r4q3zE+kZeDvRVZcTjqu8QspOf/EQrG9lE45XkpHHZZIcOerr6V13U1EfpwspdOPF2/N1cVrbRVHCuI89oQ4C/aRjmOH2gmzFLAUmAspYAHCXDjpdsjdgwLFy66R4omniRSK0nHmSeIeebDI119JywFHSuE//1UpkO2P3adcCs6416V1m8HirrGadIy8UQoffCTF4SdK+z03i7PUklI46yJpOe9iab/vdnF/sYa0HHq0SovsGPOEeEsukTzgadOk5ZBhUtpzV/E236xyHy6G1JoL3YOOtheWApYCnUMBCxA6h662VUuBdAp88qn0XH09dT5J6ZYR4g7+vf/MlKnifPGleIst6hc6wiLwv2+kZeOtxfE8aXv2URG+oxjS/PP7z/D9bkNU4KO35OLifPOttD84Urxfr53eD3uHpYClgKVADAUsQLDLwlJgFlKgeOSxUqS88fOPibcKGQdJlyfF2+8Rr7Uo3uAdxCtEMwz8you0JeP+reIWvH7rzcKR2VdbClgKzO4UsABhdp/BWdx/jgp2qAHcCZdq9dkXxOnRQ+X3z5HXlCnifPSJeGv0DZVVniPHagdlKWApMFtRwAKE2Wq6ullnZ8yUlp32FOfTz6T0l7PF3XJAxg566kyBguOkurmpJujMmKHqBdjLUsBSwFLAUqDrKGABQtfRes57k+tK4fa7pOXAI6V05klSGn54+hgnfS+FBx8W6dEq7s47JR8kFLTUsuWOqmhPxy3Xpbdt77AUsBSwFLAUaBoFLEBoGinnvIbCgeyeOJ9/pUr7SmuLGqzzwUciiy2icvfd1fuKt/YvxHnhJZGfLC3eCssa1fs4ldCRwn0PScuBQ/3nJ30vHbdfL+6O29UkHKV/vVVXko7LL5zzCNzoiGymQaMUtM9bClgK1KCABQh2edSkQOHhR8UZ+y/xttpcWg44XDouPkfcbbZUz7T+ditxN9tY3AP2lcJVI8Q9/GBV/c9bd23xNvmNOC/+U5y33xV34w1VCl1x0F7ibbOFiiegemDH3beKu03tIjwWIFSmx+IBu1ktBSwFupICFiB0JbVnt3d1dEjLPgdKYfRzUvrD3lK8+K/irr+OdDz5oEixRVqGHify7/9I6fQTpXXbXaT9Hw9Iyx8O9YPuFllIZNmfq1K9AIbiLSPVOQGl88+QwlHHi9PhSvtTo0R6L1CTKi1b7Siy4vLSceVfZjfqdU5/SyVp3XqQuP3Wk9Jpx4lUZTN0zmttq5YClgJzHwUsQJj75jzHiD0pnn+pFC+/Wkp77y7Fy68hslA67rpJ3G22kuKp54jz5NPinnu6tGy7s7S9MVZazv6LFG77m3TcfK24Ww1QxxcXqAK41wG+a6GlRdyVVpCOUSNFFl4ktS8tv99FZOmlpeOaS1PvnStu8DxpGXKwOB9+JO1/v09k/vnmimHbQVoKWAp0PQUsQOh6ms9Wb3Te+0CV4vV+uaY4/3lLvIX6iCyxuLQ/cpe0XPxXkaefKQOE9n+PFWfMWGk54IhQfEHxjPOkeMV14m66kbImlPbfW1kOnOkzxEuzIOy+vwIWNkgxCOkgnOPJ0dK695+kfdwLtaskzlYrzXbWUsBSoLtRwAKE7jYj3a0/aKyD95bC40+JLLyQlI4fLsVjT5bShWeK89HH4rwyXjrOOklat9nFL/bTez7pseq6UrryIh8IiEjLAYeJ8/EEaX/0XnGKLerk4eI+B/qHAY24ouaIKSTkvPa6dDz/eHejzKzrT3u79Fh0Oen4+z3ibthv1vXDvtlSwFJgjqaABQhz9PQ2Z3DOcy9I63a7iiy0kIobcG6/W1r+OkI8TiBc91dSGnqI8otzRkBp042k57JrSOmwA6V09BGqA8Whf5bi089JGwBigQWk5dobpXj0idJx6QUqwLHW5XwyQYSyw3NqoaQ6p6h1lbXFPXG4lPbZs84W7GOWApYClgK1KWABgl0h6RT4/gchm0AmTZL2Z/4uzqKLinPpVdL61+uk7aZrRJZZWn3v/eQn0j7qdimed6nIJhtJaVs/26Hw0KMqBoHARWeeeUQ+/1LcvXdRAIGYhJoAwQnODLIHB5XJ5HgiLf02FXeXHaU03Adh9rIUsBSwFGg2BSxAaDZF58T2PE8KN98hzvj/SOncU0V69QqP8vvvpXXnfUUWmF86/u9q8fr0Dn9f6lAgofD40yLTpou7UT9x/4jloHNKNM+JUxAdU8vGW4kM2EQ6TjlubhiuHaOlgKXALKCABQizgOiz5Supjey64hSL1eWR+W5mm8pwcFp7iJck911XnSHsOYVOO79htqRtzk5z/kXrgO1ENuwvHWeemPNpe7ulgKWApUA2CliAkI1O9i6DArZgz6xfDi0DfidOv/Wl/eyTZ31nbA8sBSwF5kgKWIAwR06rHdScToHWzbcXd51fSunc0+f0odrxWQpYCswiCliAMIsIb19rKdAIBTjEyvvF6lK64KxGmrHPWgpYClgKJFLAAgS7OLqOAtY30TRat247WNyVV5TSJec1rU3bkKWApYClgEkBCxDserAUmA0p0LL9biI/WUo6rrpkNuy97bKlgKXA7EABCxBmh1maQ/rYuuMe0nbz1SK9e4tjUxwbmtWWnfcRb/75pPR/VzfUjn3YUsBSwFIgiQIWINi10WUU6DH/UtL+8mjx+q7aZe+cU1+kDr9qb5OOv908pw7RjstSwFJgFlPAAoRZPAFz0+stQGjebHO+BRUpO/5+b/MatS1ZClgKWAoYFLAAwS6HLqOABQjNI3XLkX8W55Vx0j7mieY1aluyFLAUsBSwAMGugVlBAQsQmkf14gmnSWHUY9L+xkvNa9S2ZClgKWApYAGCXQOzggIWIDSP6sUzz5fi9bdI2yf/bV6jtiVLAUsBSwELEOwamBUUsAChOVR3HJHCBZdJy3mXyMzvPm5Oo7YVSwFLAUuBCAVsDIJdEl1GAQsQmkfq4pXXSvHPp0rb5M9FCsXmNWxbshSwFLAUCChgAYJdCl1GAQsQmkfq4rU3SnHY8TJz0gRxevZUp2Tay1LAUsBSoJkUsAChmdS0bdWkgAUIzVsghRE3CZkMbbgYevVqXsO2JUsBSwFLgVlhQWjvKClFh5L89pp7KKB12/kWWkamjX1K3FVXkcLcM/xOGWnxptuk55HHyrQv3hOZf34Rz1oQOoXQtlFLgbmYAl1qQfhkwiTpKLmdQ274o0UenUPbJrXad4015MMHHpSZK67QpBbn3mYWvPtuWerUU+XtV14Rb95553BC2FO+5vAJtsPrphRoGkBwnGJtN6jjycw2LAieeM3SdhwRJ1CcyvpTIi/R6CFe03IcRylhRIjHXU3rs9E476xcuuO1+1m+Pw8g8pgaf9zmO2uNKe4+dX6C0WX9fHgcQQ+NdyqieiILLPITmTrmaXH7rhKr8WbtW5a91EhbSePM+t561kr0ndF3hdp0HGm96TaZZ+gxMuXzD0QACJC4Wfsqy0DT7mFjetiJovvNCe2xtDUUXm/+/uSZ8PzG79ty2xnWbR7a+byi2RabjPs+je72+xAFyuvE6yTFdA6nd3MAguNIS8uCs4RUplht9pbt9AHF8IRYYWt0RAv6EN+NA0WNKl2NPm8SL2ir0HMecce9KrLa6p1O2tn2BSZmrLGgneuuFefQw8Wd/IPIPLNZDEKcLAw+AyipNa7HHsXNTGwAjuPuLX+m75ttFkIzN9xsM+gu6ajrtolbmtol75rTXtIcgCCOtPRYeE6jzSwdTy2g0HztpWuGWujRQ7zx48SzAKFhgjtXXSXOEUeIO22aSI8eDbfXOQ00JvQ6R1PvnJE2r9UkmjVGy+b1b/ZryXPbpNQxefbreDfo8WwGEHRoGypEVntB526svIbBvPd3gzXStC7MGoBQz5pp2pA7rSHnyivEGTpM3BkzRFpaOu09jTXcuXsvrm+13pjRONPYkDvlae2qycrzOqUTs22jFiDUP3WzDUBQGrWyPJo2x1p+pcbYQTm2ISXwsSZDor/q+a5nlPUvic57ctYABGjPT3it1D8jccw62lrULp6fsaf1r3DpZSJHDxe3vaObBueaUDhtNI2vOb1fVSyGjlc2yW52Ibgn+taCJ+JG9nvn9zxt7HOzSpFGm2zfW4CQjU6xgHvGtK/zc6+qlprjYkjfjNHkuFqWhLDmmN52NXlUnFUKQKhF+srzcQJEf2ZGGzZhKupfC53+5KwBCM0eVtxc8o6oNNKf6XXY3CAp56KLxDnxRHFnziwP0IqSylwrWuitpQOZ08B+g/u92SvNttccCliAUD8du6UFIZnRJWlqtQhQ0fjygoTm+EC1BhsHZszvokKm/klt9pNZ6ZB235wBEKIWhIhqWrYWmVF2zZ9b57zzpXD2mVKaPKUargfZMV0Vq6LnPW3+m70uk9orgwNuCJhJNOaxq/pi3zPrKWABQv1z0C0BgtrXAfqv1qnzivn6NTgdKNgIo612jZgWAxMKdT/rQVKqYGwKpCGUTIFhLk2ntXUOD1LMuzbjN26SoDU/d84+Swp/uURKE78LNVKvsG5EuNf7zrjRN9KPaHumBbCemWlmX+pn0fbJRilgAUL9FOy2ACF5SPVs9fwEqoCD7NpfHKP0P1NZ7uVaBIaX1OhY9wQIOufcBElxjDMkvII88SjAarYFIdyP+tZFfiGQZN+qx7oVXpdJgjbu88Lpp4tcc7W4X34VCxAUyO6UfH3/dUnznQdMp62j/Lu29hNpKyTt+yz96UyaZ3m/vaeaAhYg1L8quiVAqHejRlm3QwCBU64cUJNKIbMkwlx9kCd6mHuT/Mz1WzHqn9pmPFmr31XUDl6YDHSaDRCaMcLmMXTtLmpurEHSGAsnnyzOzTdL6dNPm0GGWdJG82if3v2oRTIaX1RPvFEcn+rKMaWP2t6h1Dub5lj3QuiWAKHe0YQzD/ztm2fjh5mIZvimBcEUfrUAgR6BGRWl2YnJVpKEady9Sm+LkCYShRVLuFpwK9qeHqs5dvMzhJ9+Jsk9Yn5utu+JAgjjxou3+mpGZocZeKrbz2NNiRuDSYjqSn5V0Wt1Lbjo3EbfGTeGLNDXpF/yGnOOP16cu+8S9/0PIr0P0zz8ZZ41G42hqEXTuLVp7hvz+zga6HeZlRfT1kAeWib1xX9HpaVQmaXgG/1tfH+SXaF1LSr7UCdQwAKE+ok6RwAEJc6CCOSqLZ8SmawtBzpbofJ3nJCMCn5foAW13wKLg9YgTSHP73GaZRKTizvKSAvPOIaVFDhnCvNokGS0fzGLKLDAVL4xx1DJEnEonx2S02bbFeYcBgi6z0kgxU9ojbL26l7G3aXnLkpzk661MmCSNlSSgE3Krkm6Pzrv+u8oWIp73r/XOfZYcUaNEvftdxM6y9jjaFzLwhGtGZG1hoRJ77w0inbfpE0tEJBEw7jP/VUU/saEBdGqKno8ZrwQbURSZb2CeI5bKfeulmItq2MWUFM/M7dPxlPAAoT6V8acARAMZacCEBDd/l9x8eRJYqk2KaMbPJmBZ5uSeEHqPxvPTNJZTPUdyc/EfRMVuHF9zCK6TQr7M9AdXQzZ5il5PtIASxZKZe9D5U5n+HBxHn9M3Df+m/B4EnCKCsq4x9NXWT19rqxr/XSCVp6jDFq+/VrdA/P5ZJtFAMoCZSNuh6gaLcEXZeq5rkjBBH3mXkqzkNRPYftkmAIWINS/IuYYgMDW00VOnE++Eq9YlMLilH8OgwQTMegNzR3FgIamjlDrIJk4FhrVNzQjUX0L2te6Cf1yDZdB9AAaHyP4XCeJrUThiWpDKTD+M1xmnzRLUvep9v27zHGGxlXDPxPVdbUI1c+XnQXqYB3/28L884r3r5fFiSm17JYr3ZQDQDKVlzL7W6GtP3a31ulbxnyYjpo0ga5Ios4sNwBQZDFAfWVVigkS9PXLis3JFJXReTbXT5Wj5JijpTD6aXFfea0MgM01pNac50nR6Gd5bQfd99/nr8MQnDMOQ9K0qVrvju++c5yCT+fgKjhO6G89J+a+MmkcZyvT61avqVq2s3K/sGIBQvWaTuGJJq3NsUcfU/0mlCnYxCE6GWtIP+f31ROvvUMKL78jXv/VxOtplsKOt7DE8ZP62bp90qSABQj1r4emAYTW4CyG/Li4UbNvxSuuxF57SYpP/FNk4mSRBeaLOe4xhljB7qyyqPtHx/kPJB/zGHCQ4ICZ6H3RU9/M76NtlyWVafMwhFGWE+R0n0OS02BrSW2E+m2MJe5+da850wbLV2OIoRsMfJfNxPnLjSI/Wy4wkERtO9G5Cb7Pv6iqJ9nsk/ltmV7BGMw50OOs6mZEpGSZF38RVQxDZZLFDE7PRXl9aFFpHGJ0w+Uib74ucvGN1SdjJq1VHw2WRx8FtBWyBPNbNc3RedX9MW5MknQmnU16xe2HALiEYYvfO7VH/aMrI+vMVOH1ho7b65ExlEFkjbWovuJ9KaYNE3W4rniTJou786YiC+jjuKOQz39nFBjWy85V600o9jSnBVpagFDvihJpGkDoHoc1sfldKT79mngzO8Tr11cClVrIaPDQetQmKog4bubTHHy/Ypw/2wza8/3wjjriNqovVQuBsHUiqs9kiYQPdFHFEMLt+1pbtZaql4kvGCrcjr/L5lH1i6lTxy2uat90Gu9UjHCJRcR9bow4q6xa54r1aesbNipv9GnOCypzque7wn6Z8w4RD1tRoA4G88rz+JKDRsr+6oDfpsoF9epA0CjKlddaoUxK9HT/ygKIo2mx1eRyjv+zyNgXxX1mjDiKJn67jMNzCmW/uF6LrHxfPKH5B31QffYFX20M5gRjiq5Lfw78tabnw2jf6HaFvlok6jkwV04wv5HhVq/uimCNW0jx94fp7u/VpJbjl6cPTAxwqOhWsQNWdo0j0jZTCk+/Lu62/cTrPX+Mo5N3ZNnn+bdKnsDsuNYtQMhP8zn1iW4EEAwttBFqe54URo8Tp+SJO3BtnyGb6Q0q7dEUgkkvi2rIaSxUM9lEFaom26sIJxhZKeX8BpNWWUSz+WrN1P3Psijn4ZlJol1UH61uuRKkqI97jt5jMN+QuNYBi+GokvLd2tBQZdnQwii9bxX6V1OlFoW11lax0Wtg5otNBEoZmAZjqoy6Qlk/Gr7yrDkzPuAIx9QUhg4VefZZcceNjwifOJqa44+bcQNsheBh9TqL0lwNSQnKYLyhNVU9n+FNkNSXrCszae+a7622DPhgLrr+42e5Mqpon5LGFsDv6TOlMGqMuFuvJ17vBQKqRPuSZfdVjzF1PWbc142w2dnpWWtBqH+2uhFAqH8QoScBCE+PUyZId8DaMa6BJGuAbkUz00jEcicWnVH6vFMQzwMYNH4lVUDULZcL7+igq5jSvHlhR6XXPKm1w/BYfIDwunir900ZZMVSELqxQNEpQ7yWgUEUAIUtBJFe5Nbcah3claZtNarNRQml+1I4aph4Tz8l7uv/zrVg8s5rxRITI6gS5Fsj55fkGoxxcy06+3ursp/Loj3jns5LM7X+p8+Q4qix4m69bsSCUO8I/ec0IJ0VNG6s57PuaQsQ6qf9HAsQ0BLCACGa06C3WzyXy88U6p+EytavT6No9M2d93yYiuE0x857a2e2nDfvvbZdrPa3tcZROPpokUcfE++/b5RvS149+VZznP6d1BfTohAVWtHR5QdL+frdmfOer21HnGkzpPDQi4EFIepiqH+fW4CQbya42wKE/DTTT8xRAEFpc65btiB4WBDMTIEyxypW3A6d5AfMNyVa69ZPxVsx8rXZ/e7ObkEoL89ONJbWI3y0Hzuf7zg5HqSePgRw8s9/Fuf+B8R9952UidbviL4rqV5B89ZNA6MLOlHx6jevV13RUmBBeGiMuFutb1gQ6geEoQyVJgQidgUVuss7LECofya6AUCon41Eh10GCKNfI15NSgPWroRmqb2pN6i5UZNjDZI0qXw9znK3Bgi6L7MbY8wyxvQ6CNXss3a78eb9bH2pb8vU03acUEhuJ+mb6OfOSSeJc+ut4n7ySX1DiSlDleYuqfNFmR6rfrcJmtkP9WvdmTrQ1Jt8gFB46AXxttJBiuYL0mJC6u9MPSu0/rfNHk9agFD/PM1igKCZQD6NLHm4fjh24elXVYQyACGcnmgChOp3RplUKDkgiPTWJr5oH0LBzRl9m5U2TIDQuYywM0yUWZlSUqGkKE27g38165jSt15cZT1/vsk+iMLTuDS1WIhxxpniXHm5eP/7plLrIrJ0QmvSKPKTtMKih2uljy37HWnuhc54d63Ykew9j96pK1RqhUOvlMhMqhiEqIvBXFXNW2H1j2XueNIChPrneRYDhPo7nvhkEKTouACEdUQKyRaCRt+eaGGICfpLfpdZDtfXlJJOudNt5DkxL+8YO5NtpVVSzKw960j7FCBmBmtGaZek15fvSyBclSZfsw/5qBnXJ7MbIfFy/vninHmmuFOm5J3imqc8xgnquFHkG5lvu/OLTFUMeaGdadRDqKzvNIrkHnqNB0zlQVss4sCdmeJr9i8OIJhZDP6rq8uSZx9DXppnbzn7nbPSypS9l+E7LUCol3JzVB2EwKeqsxhcV9yB61Sfb1Q/rZr25OywyTqjj2kAIYnAadpn0yYaVjBvAAAgAElEQVRmdmmILL2zzxLntNPE++FH8ebThXjyDaCZWns4TTPcDy3Y4o6I1nfynf6+MwFwOoWyiOHyiBIzdmT6zIgFIQkgJL+vvb1dOjo61IPFYlF6tvaInHmSPhp7hw1SbGQNzEEWhGCjeU7ExaC1gEbI1MxnszCgZr4vva0wGKj0r9kgoV6AUBYigeVg6tSp8t1334lLrfuEK7Z0dXBvrRLa6dRKvsN8J31bbrnllNBr9uW89JI4W24pMnWqSL/+4l03QmSRhUR6zSveAvMnV/00xl8q+Sm1VW61svWLb32tOAuQMHXpchEuw7pSTq0NPjP/jqMPtCwUCuqne1zhEabGRMQCBH26rO9iSiqUBG2+/PJLOe2002TatGlq+L1795bBgwfLxhtvnHtNZZm/PDQGuPznP/+RtdZaS1paWvI8WvNevSZps5kg0VoQ6p+iOQggKFZWjkEQ15XSgF8rZtkJPDonxSsaR1vbTPnxxx8DHzSpl4GQU9UdZ0UwVpXRXAmGXr16yXzzzZdznLVvbxQgKJHleXLzzTernyTBEv3cZJAVwaSrHMZ75GsBDLP96H38rbW+f/zjH4qOTb1cV5whQ8S5/fZKs2qB+1VEZaGFRNZbX2SH7cXdaZDIIpxHUrno38iRI+Wpp56q7lZVrXFugU5BxcXge7/OkL929dkS0dpjcVH35RRRMwY3AT8BsKDd+eefLwssQKGhrrri3Ap5363rIIRjENQ6DM6M8FtMVhY++eQTuemmm2T33XeXtpkz5bHHH5c77rhDHnvsMVl88cUzdwihO27cOHnrrbekb9++suaaa0rPnj0zPx934wcffCB77bWXPPDAA7LEEks01BYPT5o0SY3rmWeeUaB/2223ld///vdNA4cWINQ/RXMQQAi7GOKDFOsnVP4nTY1Dl5B15Kmnn5JLL71UQOG9es0bMAzfvFrWKIwg56i26/9dEEdz23LHKtqefiZUVCjI5yAsLmoxiApQmP8mm24sRx5xROjgnfw0CD/RDIAAlb759lt57rnnZM011pTWVl+DUSSLxAPECfkKTYI5iUGPZRCha/4rOelw+lHZxKvbjh58xa3//e9/5eyzz5Ynn3wyI8jKZlVSUz5+nDibDxT5/gefuMWieOedJ7LYYuLNnCnOhM/ogDgvvigyby9xX/pnCCRMmvS9/O532yoGv+iii5YnyBdeEZ9/+U9dQ8QoNqRSiisVCZPWRoWW4TvM+SoANoJ3aboifNZa6xcydOiR0qMHAi0teLc2DdO/La+ioKP6faY7Ia4PCYBCWRAolLSOUUnRpEF8j0w3y9tvvy3PPvusTJ8+Xd59910l5B988EHp06dP5q34/PPPyxlnnCErrriiskqsv/76MnTo0IaAKwAB4HLffffJMsssk7kvcTe2tbXJQQcdJC+//LICLxtttJECRtdee6388pe/bKht/bAFCPWTsakAQfuK8/uMm5GTHWxUz6+DoAGC2oZ1mxDqy3v3pyOOATgybdpUueWWW9TGP+GEE3xhr26vMB+YpM8o090j1W6AMJOPE5J+z4L/xwTZffTRRzJ69Gi57LLLymb8MptsIAc7ChCyicXw4uaZD95/X44cNkxuuvFGWXSxxcoAQZExripkXCChL6FizehRTa/sJkAg6qlVAjU42TFyauQrr7wihx56qNLS55+fIjm1rzx0KNx6q8j+Q0SWWlrkiy9E9thD3OuvF+lhnhgo4tx/vzi77yreE0+K99vfljvw7bffyu9+9ztlgVl11VWDdRauUKnpGAKYkT1kriu/uGVl/SbNgXm0aNSEHAapBTnppBOVsNhiiy3SyJf5+9p0TuJBaQAh4fVVLoY0gBMBUJ6nQOaYMWPUGsLqCKe49fbbQsAubfBo5e+//77su+++8uqrr8rw4cPlxhtvlFVWWSX0aB534ueff67cHbfffrssv/zyaV2o+T0Wg5NOOklZOXbZZRfZe++95U9/+pP0799fDjjggIbatgChcfI1FSA03p3GWyB7weEsBg8XQ6NBirVYSh62Hh7X/fffLw899JDccMON5aOQw9GUtVwN9b9X9yKthRdffFGuvvpqufXWW40jBqqFiDkq01KcxAqrAEJwY/mgKKPBuDb0O95++x05cuiRcustt8pii/sAQcttU+8z+5ePPVeeJAnGPBY8jXY8CUA47LDD5KknAQjz1Tj6qgLVyumNhvUobjdQHMnZY3ff7E8cwehnxP3NhlW3Oh9+JM4qK4t35V9F/nRgGYBifcGEi5aGybnWFR5r9cgNeFUBWgm6vvl0ujbvycknn5wZIJTXXgi8xvUubbRhoFO9qpJWWvXqcqbPEGfUWPHUWQxmJcVwH2rRglibGTNmyDzzzCMTJ06UffbZRykVm2++eSZGidBHAGswhkBH6wf4Yz3ic9wNeeMIsGhsvfXWcvHFF8vaa1OMrv6L/v3xj3+UX/ziF3L44Ycryyrgmnb5txmxCNaCUP/8dBpAUApxpHZ+9dbQG1JvkyZYElQWw2vKWq8Oa6rbelAPUbOID5EKQLgh0HjDWn/6m7O9J6mdqIUn+jdmSUx8d9x2eyRTPzKD5gm7kSyvWGMsZzGMHyfeav5hTWWjScppgiZ1+P2tN9+SocOGKgCDP1bJ1AjYSKdh/B0m0Kl1wq9/eFLk0OvAUgFAOOKww+QfTz4p889nWBCCxssgRtcmiBDLPKmyLJK08QJQMPZF8SZMEOegg8S7807xttmmejCeJ8VFFxFvyP7iXXhRWdZlBQg1z5/QbzP6XaYHAB13TKTuQnBoZMXOkDLneQBC9eDDZv9su8WPVTJTLKdPnyY9evRQGQSxYE3NfxzPcqQwbYY4qtSyrqSYvdaL1ubxzfPuHq2tct/998uVl18u111/vayxxhqZThglwPGGG26Qzz77TGbOnCns64UXXlgWXHBBBRx4D2b9P//5zwqEZL1wC2y55ZbKdYGVp9GL+INLLrlEfv3rXysghGvlmmuuURauZlwWINRPxU4BCGWjXO6CQUpsZPA3Jg/YtyCMDywIYYCQt45+bbLST7/YjYY5WaehGiCUxUDwS736bloPAo010FJNQVV+0hF59rnnZMR1I+S2228rM8wqYRgVjkabSTOoLQgSAIQy4VKPG66Mi7bffOstGTZ0qNwSAITGVoxJ+/A5n9FZyArjAAiHH3aYPIkFIRLoGTktWAEbN2i40n6ytq7uoWPjx4uz2aYiV14p3h57VgxQ2gJBeMCGG4qsvKJ4N/kBnXyFi2GbbbZRLoYkC0J5/xqgS/fNBYCrUycNm1dkPal3cV8QW1DuswGQ4oNAK+NuDCDkXxEhE7sn8umET1WsEL72ddddN2Fj+TzAp6xBeHSjaTPFUYWS1hevDyAxHiAEOzKW5xGgyXwh3CdMmCAHH3ywDBgwIBGwRDv5zTffyIEHHqhiD1ZffXU1jqWWWkpZDQAEBNPOO++86vM8VgS0/K222kqOO+64zNaMWpwJsPLCCy8oAAN4YYy4QJqVAWQBQppcqCFPZ0z7ugnSyJGWHuFoab1tWNxTpkxRkcikLLEYQOVJV9QXBgrGzMbC+fTTT1VQTK3FXHBFnNGvqv2qKikqzOFzpvpiI3gypuqigQp08HetCoCmRnb//Q/IQw+NUuje3wQhvbXMLKAdtMqzUUwhRgTzD99/LwsT2V4IYh3SYgg8T55/4QXfgnDHHUYqoVMu8hJHR/O9SdpnGSD09S0IeSsmakj237feVABBWRAW8yO649rKKtA1kw9VzszYP5MWWuhpC8ITWBCCGIRw28ER0GlzUWNfO++9J07//iLUQjj0MJ3AE3rC2WpLkYUWFm/kyPLnCBzTxdCo5aUs/NUGq1hUsmaBmPsSr0lgfFB+6d/+9rflGIT8ezcPU6zsP059JGAO7fiLL76Qq666Svr161drJoLvImxUxyBQarkPdSoq32ddl++8845ceOGFstBCC8mee+6pgvayPqu4lusK8URo/MQKaCtBo2Z72j366KMVXYgbaMbV7FRMs08WINQ/Q51iQQh4hXz51Vdy+eWXq6humNLPf/5zJeQJQtGLFD/bm2++KQgzFsmqq/SVPgv2ViP697//rfxckydPllNOOUUJLRYmi53nQbJRsFEILAikfEUBQn4y5dmOWVt3lB/w4YeJQdAAwX+WjQwDX2SRRaS1tVVOPPFE5Z9bYYUVysFkPt7x+xXd6PyNia5P797S0tqq6H755VfIRRddqATV999/r+iVlr5YdjGEAIIenwlmYh0JidoSAMEdP05CFoSsZAvuA+ZUAMJtoRiE9KbKunEVw67YDtJbSbwjCFbUFgTlYjAAQl5AVLMnX34lhV/9UryDDxbv1FNjby1s9ztVG8G9664QQEizIEQbY4+Sdoe2+bOf/axp6WflFRUDlBqzIGSdw/D+RvCReQLPItr/xTEvyn3332dE/EctEzX4gwIIHNbUPwQQKi34gFvtYyNYNqg5WbZKoByhEJlKUX77SFZ6ZL8PpQ+FjzXR3S8LEOqfoU4DCP/7+ms54cQTlaDbY489FAAYP368WlCYvRBmWAdOPfVUFTGPhQDhRe7zIYccIj/5yU+UFgFqJigHfxSfAxRA1H/7298ExkXQjlkwh0OaCqPHqZxwAIIy/GWKQ4jbdrWyGGoZB6MTohmJ/8x9990rDz/0iNxw4/Xlvv3www9y6aWXybPPPiODBg2SwYN3lj/+8Q9y5513KoEOL/nqq6/kk08+VoAKem244YbKB0+2A+DiwQcelBHXj5Djjz9ONt10UxXrcPfdd8t1110nL730kmJ8m222mUpzqnXVBggKogSP5zM+NQMgMJeMnzHcdtttsliQxZBtC9TX72xtV+7SQYoImzJASNAh0VZfe+01ZebFH8x+yXTBoFdZRbyddhLviiviAcL224vXo1W8u+8tv/3bb79TLgaCFFdbrTpIMaz5O/L++x/IOeecLV999aWa92233UYFyzEu5kIHwrXNbJMePXvGhvwg5BhXsVAUL0izrTVG+sA+D2cxxAHT5s7nE088IWeddZYcdOBBstzyy8nZZ54pt48cqRyJ8/bqJS09onMTdTFURuVMm5lw3DP31I61quZEzajNkGlV5b4pT/ZDlsab3Z4CYG6blDomZ3m9vSdCgU4BCAhs/Hek6PDvT3/6U8VIrr/+euVugLnDBEi7OfbYY5VvbbXVVlPVwmCqCDXMYeTunnnmmWUrAbnbRLpiWibVBksE0bRKZOkiJLrUsueJmwsglPWZgJlSIIZINO1fzCcMa620cAxCUb799n8qahuLyE477aTSIBkngToIQWhF5PBhhx0u//3vG4pWgCvAFvQDPAGyzj/vfNlk002UAKDK2ZVXXin/+te/lE8PQDVw4EDp338D6d+/lslUlC+w2sUQB3ry0aQpdRAaAgjZ938jJu04gFB5c0U4sE/OPfdc+fjjT+SDD96Xv/zlLyp627cMpeiJBCECENbvJ+7NNykXUvQqbL+jSGtR3HvuKX/lxyD4WQxxAMEQcTJzZpsccsjBstBCC6pc9f99/Y0S3LvtvqsCpmjZSyyxlHz44fty4w03yvCjj5Y+fXor07zOj2dNkxFDBUAi1bNeXWNBMGalUJD9999fPv74Y+Vfx3/PngKkYJXbc/fdZfMtt4yJqo8PUuQ0x+rDmvz3OVKQKVMnK8AfFxwY68KrI56rM8325jyWa11EqmQmzXVWEBC9Lzoe/oZ+BF7WBJwWIGTddlX3dQpAIGd3yH5DZP8/7K9cC1qA33XXXcq/d9FFFymt/+GHH5ZHHnlErrnmWsH3x8XGRKBx/d///Z+ss8466ncCasjlpcQuAhLBGK7iFWj0rhPEIHjiDfx1anmVZMo1Vzsx36MBAvnICHrynT/88EPlb1xyySXV2ND0KQbEZwgMfImMn0hfLCtcWF/Qzs477zzligBckEesN9I555wj99xzryy99FIKhAGmiIpO80ECELA6kBZVq5xx3lXXLICA62TYsGF1WBDy9ri++2sDhBBrVfP30UcfqpxvIrkrAXHphuTCZgNUaWUPABBjeUgCCFnTHNlrpJqxPnFzIdruuutvClxQrAdXGAAerRsL2GWXXS5TpkyWI444Qlm+WIcABP4mIJJ/s15dDRDoKwrLPffcIxO/+07xjddeeVV2GjxIll12WRmw6Way+JJm1cBa8xNUUnwIF4POYjBjEArywIP3Kz4IDbnyxGxoGtbzTFb6d/f7cG8gE1Ai2Te1eJq1INQ/m50CEBB2CDkEvC6TygakOBCfwWCY0LFjx6pgIJiJTr3BOnDFFVeo7/kdMACCZxFQeAYrA9+vuOLKEV+3BggihWdIc/SPe1YoNBd9TD91eSvmaiHtZg0Q0KwAABocaGZBehMBgsQMaDCANYbP0DJ1qVToc++998qOO+6o3AnQFTpywZiPP/54BTIuuOCCXDXcuztA0C4GneaYRu+u/j4rQGCNk4KGm2zllVeWY445RrnY0gCcHk9h331FJkwQ99FHRWLK5zo7bC9OS2uVBSErQAAc/u9//1NAXAfTPv/8c8pVRfAewIDv6S9/o8m98cYbKnZm1KhR6nP9HYoBgDjr2QpdARCiKgBjROion/Z22e73v1d7iriL6ssECFGwUBCZPt2wIFAqWlsi/ZZeGvuSnHLqKcq6Ek2jrIp0MGKOVJ+Dfra3tck8CaW8tfbNWAChGkzoeAYN3nBNAgSxUGL1gb/ODpcGdNSTISOn5rks1oJQ95R2CkAg+paDRpg4HUTIAuWAD4IMYSAsWvyYFO0g3gANmElGMxw8aLA8/8LzyoSORkxpzxEjRqjYA4Qm92OypF437ouQTuY6EYCQXqQ1TL1wvID/XT6IkTYbGiAgGIhOxsyMxcC8Tj/99LILAdohdKABpn8u6IerBpqQ7cC/gAk2DrEZVFAjCBJ6YYZDE6QqXRYfNylHuDfCWQxpo0r/vlkWhNkdIDBHAGXmFHCIu4x4EtY7ewJrT5Ya94VjjhV5/jlxR48WiREUhR13Uq4H996wiwGAwPsB31nNvcwuQgTXF8HG7GEA+5FHHqmKQrG+uACsgAP2vgY6aOWsXRQBAAJCKC0uqKsAgunMMVWD9o4OZXGj31gQlFyuKsSUxBsK4kybLgVlQSBIsfo8jpdffkVOPeUUGfXQKBWACKBnXfMv148//CCff/GFctewh7kAjygA7O/PP/tMJn3/vQJpHApmXrRBXAsFz9577z2lYBEDpoMKiWnid4K/aYv7sQDhlkQBSar7AH/mRweU00Y5BqWtTbUHICEuqJHzHnhHFiDJ+JgfrXAmcSBrQUjnzUl3dApA+Prrr5U/DxMa/nGEGaU0MadjCeBikbLwYYwgWEAFC4P7MZmz2G666WZ54YXn1YJES2ahcy8BePjpWci6KpgeYAEXwzOvipQ8cQdyWFOkmE3TxX1+4muAAHOFTsQHYCrTF3Qgx3illVYqZ3wgSDDRci+0I+CTe2AQAAHyhmmPzQ5NAAjQcLvttlMMjnuOOuqoTKVrs8Ug5B93swFC/iDF/H2u54ksFgQ0H0zaAFzictDkAG/MLWVsAXxpV+Gss0Xuu0fcF8aIxESTFwYNUovfvY8gRf+KpjnWeofp80XYs26JKYIps96wTBHYR2498UUAUYAH64d7WIuACgACwHaDDTZQe5w4hrTg0q4ACErox9TzIPQInoMCgoUPIBV3bzLtohaE6kqKCiCceqqMGvWgAggfffSx7L//ECVw+RsQtWDvPvLTn/+sDOqZg7YZM6UYnD8CEMNta5Y75nlKKxMzglvnN7/5jXJbmhYF1hvjw7oLIAWMEm+BlRLXYhQgIPRR0gAdWIxwA9NHqjECauHLfA+Ygdf/4Q9/SEx/pB8aYOj1xd8oOVhOicugHdYH7aNgohDGgZYoQEgCuxYgpHGS5O87BSDAGNCA333nHdnwN79RCxZTKj5yCnYw+SBhUqdAmjBJBB6LZL311gvSiqiZ0KEYGhuDoCg2BDELMBvABT5y8nBDp5u5jhRVHQRcDD5A0Fe6V9e8U/9eLifUNGihAQICHgsJPt5NNtlEoXmCCtkkHMqCpkdgFxsUny8xBWxmAqcQjgAlMkK4l42NYAEUwLSx1BCkiGUC7Q7GjUWAAFDthkhaFt3dxTAnxCAkBXbl0eidiy4S55ZbxB07FsRdNZ3OLruK094m7v331wUQ9EMIgKefflq5/AChrDs+QxCwJinowzoFwJItw3pGG2U9I0zYw2iogHzWL3s2zZTdVQChvOODczWoNAlI4wdQTSAmPCvbZVgflYthjFFJMWyFxOXiAwTfgoDyxJ5FKWAfQ5/55ptfWlqKsdYW+CV7nzgu89At+ollh/Rw3bbpsoquOz2uRx99VJ3OiMsjqr2Tlg0wBMQy93ruABoAAmhFH1BEABGcYgqfjuMztEHfeIbvkRXIAUABa4oLcEwcG8ABfgZd4s7k0ABBuxgsQMi2SvPc1SkAgQ5MmTxZXn3tNVU2E5Pkr371KxWQk6diV3QgAAg2ktauXJcz481UI8yAjhRGE4Ogj3vOCxB0VLJpcOwcFwObEZMe6J0UNyKoAT4ErGEhYZOwGaEZYydeg83HhgIk7LzzzgrBs5FA/2ilAC6yPZZeemllfeD7v/71r4pZs5Fg6rMbQDA3Pr/Xn+ZYfeJj3GaJMlEYrDZ7IugQemg11PT45z//qQAqQEybVbNYEPJs0qR7nQsvFOe223yAEGNBcHbbTZzp08UL4gEYF33PGoOAAGBNoaVSjW/XXXdVQcMAfAAnwgFmj3UQtwgBi2TKYBlhvaKdsv6Ig0GQ0Q40SnMvMN6uAghaeNKnSRMnyiGHHqr2H/OpzfJaYJbvTXQ1aJ6RxYJQAQg6cBhgxe/+IW41tDosQd99p6yDuAIBY+YeQcmAftA8i0uRN6HAYWFE6Yo+gzICf8HFgdVI91ef8wB9tLsB4IPiw7vjjjrHEgrf4jsCruHlWDpwk2DpYM3wHUCC9YU1lHuIz4kCAPqE5Uq7GCxAaAZXCbfRaQCh+V31W4wugqq/qaT4zDhxSq6UAhdD1r5ULAzZbQ1Z2gbUwBjZWPQXRO4f1nSDsg6Q2omvEKGOxoLwefzxx9WmRevCzIZWQD0IkDeMS7dlvl/XV9d+QXy+uGQwN2ZlFLTXXWIQ0C6wZqCd6gDOJIAATTBzYtIGbAGuAFMwHJg9z/EdlphyXn6xWBb8jBumhNCnrC3PM28wK9oF6NIWrjBAHEALxglTg+7MGX55+pkXIGhmmKZVR9da4fQzREaNEvf55+IBwh57yMxvvpVnjz1GZUcADPO4GKiRj4WA8dE3HXBMf6EB5ncAA9+jMQIU0IpNjZXfWecwc4IUs4CDrgQIJk0ZA5oy+0avN/19umUnErQYpDl2bL2eODGHNSFIcbXAB7T5HEHHQWTnnHOuFIsV06f6LVLOmr3BeQiACUCZeRHTgpIA3bOetsh8Ut8CEBdNvWRvYTliDZFJVevCmomVEqARF2yLRQChDohhvGmVYgmIxbqA2zkNICT1y7oYskip+Hu6HCCkCfgABgTewaQDTuIKhwQblGOSOYuBU8xwMWQsmavAh9IMdD55dX31mqg+obohz2Dqp+AT/kCu6FkMWkOFNmbgD4xXM496UprY2LQRBQembzluTDoGIWmT17vc8sYgoMFSCx+Bj8uKcZgAwcxiQDihuWBZwSSJ8EJz5X4CYHkWZozGi0WFADTiPjBTkvfOffjK+U5buWBmmE0xfcKkSPXDxIq2g1YDIEDronYB1hqOUaaYF33h36zHPdMvAnjJ/EmzsJnroHD4ESKvvSruU0+JxBy2U9hrb/n63Xdl1/nnU+Olr/h5zSDFRKbqeSo2ArCkAwt1cSQ+B0BBP70+WWfQCwAWBa0IXdyMWMyyZmigAbNfEIJdcdEv5owYKIRh2h5JYKdlSe5Mm6EKJZW2Xk+kd7X7JwoQKHaGYMWaeMUVl6eet6AAwuZbyAknnVgFEJiHIUOGqDWZ9bhs5hN3JzFOUYAAIMTtgQspCkaidABgYFVjnyXNNWud2Cn2b62y+zxPxhqARwME830oMoCgtCDF6dOnyvfff9vkUPOuWJWz/h1dDhCyD7lWHYJkDV8d1oQFQac5BgfGZH+vfyfuC4ItYYY/+9lPG4rK/fvf/65AAgya+vJoKtqCkFWjytv/OI3HfFctRh0XpJiuQaX3MC9AoEUsKwhOhAXR8jCvqIsB7Z4MDpghVTuxvsA0MNm+9dZbismgAaP1U0RKB4DCSHkWJoNgxmTLzw477KA0HAQaWi/CDdMqgXe4E7D6cD+WGYQtwWz46DGHAqp4J33VlRRr0Q5rBjEijG+//faL1bBxD+EjhlHTN13etrDJxiK9+4h7773xdRD22Ue87ybK+HPOVpYAhB9aIqCr1mFNCizXUZgnbgWwzqAhzFynOWYBCQAEav2nCaT0VZftDmInEEKka2LJM6/8tHCkMH2m9Hj8ZWkbsLa4C1RnMeCGwSWjLQgAhPvuvU8e+fvDcu0110lrj5aaBbNYNwBb3I7wFPNifQJycO2yd/QF3QEWKtixrU25gVAiuHgGUAEIoF0TqLJPsMLBw5iTpPmDTljV2J+st1oAge9xo9aybPI88S20y4mTcRYE9qTOmEmaJ3j4N99+ndl6lW3FzB13dQpAaKQKnU/2JABQq/RxEI+oAULJk9LAtVWZVK70Ovjhd5IF4BcimqmqD557zjnSa97sR6Kay4dNCChAgGgXAsE8mNo6CyDELd+sWpEJEHQuezP66bS2ijduvHir++l1WS7ej8CF4SEcSQtFqx0+fLjSQMi9R+DTHkwHYYqg5V7+1aZToq+ZUw0wSC2FQb777rvKEkDgHBoXQbIACQQaqbpoVDA8hAcWAtrj/fhR0fhgpttvv71iuNoozMIAACAASURBVIAP5pR3IfTRnOP8sOa4sUwQh8K7tIZuMnTGBTgYOXKkYrhkvWDFaJkyRVYfPFi+23RT+ezYY8slxU2mvPxpp0vLxIny7uWXqbgVsorIGqIeCQAq6TTHWvOSV1hyP24bQBb9znoB+F5//fVQvEzc+s3Snyz30EeELkGCOuaA53R+fda9458Y68gCrT3lhDU3kUveel6+nj61CnAgtLDm4AbzhbEjDzxwv0oTxfqFK4ifd95+R6ZNn6aex1oz37zzygK9eyvgTFDhNVdfI79ex7eU6gt+w3piTaKUMDb2EJo4BddwtSH0sRrotErWKWuRInW8H5eoXkusedLK2W/EOyRd0Aj3DLwNQJ0EEDhjh7UIMNcAwaSv/h3aA6IA93Hl4bNmMbjuTCm121LLWfeeeV9TAQILDH+t53LWbNbuxIABLc2Do+bizeuRiAFeGRx60vfzaer1by49rwEMqgubVLWrD7UXT2UFvPrqa8r3V2wpykknnVilWWQdob4PQcMGItANl0Men2zedymYFdECszBKntNZDAhFBBPaRWOXvxiGn3Ky3HD4EfL9Yovmbg4GB+PBp4q5E02FH7RptGKENP/CAHfbbTflKsA/zhwzl2S+MC5iOLQ5FbM7gpLPYH4ITiwBCHk0PAKjAAgE5AHwKGZEzAFpfVgrEOxo5WhqABPmFq2ILAuC9ig8UyufG0ZOnAkR4EkHaHEP+wpmz/zBuHn/MjNmyKVjx8rfll1O7lm+kgdvAq9h//mPLDJjhpy07rplrRGrGGZd+qnT97JORlYhGdde0tpL+hwLAnNnpv8m9bMe95vZFoFzWHvw2/vnnmQLSq68tzp6qZdXkK3ae8tTLT/IjwX/KDAufTYM8z766WfksccfLWvrrDHGjVuLPQdg5EcHv7IG3FJJtcH32voVzbKgX6x3+AtrBRoTU8HaxTpCm3zOWHXAIWAZixv7hhRW1deADuwp9hdZERSN0pYIABXrXsek8DduPbKocNclpeoCELR7TruoALCsTcA3wIBsF6x17EdceKYlRM9dVoBgYxCy7vDq+5oGEFp7LqLMq6BCbbaqJZDC33HoS2VBpjMiY0PqvVxw1MItOAU5vt+W0tMpymljHxHOr49aNJLaN/s0ZfIUmTJ1itpcaJ1mcZfs46oQnGfQGNAWYAC0xwbujpcGCGjZCGEYQNarFm2WmzxZPp1/fikFh/yYTKhW+zAMNC3828QXwOBgpPQNzQffKRo97gWYPQAB06Ou/Y9fF4GN+RhTKRoR1gKCPgFtCGAEPvELuAYIIoVRYQUgNRTGyb0ACh0jAmOjDRgvFUGxGqCtYaYFyPAs7ejDmuLGB53xxeLKIK4hzqoCA6ZPACS+Jw6C+/sUirLAbzeStu22k+mnnRZLvvmOPlqc99+TKQ88qFxl+IWxotBOPQAh6xpoxn06BiGrD72Rd2I6J5iXd2Yp0JPpXdNnSstDY6Vjq3UTYxBOPfU0dex7SwuHQHkyevSzctVVf5ULLjhfWU7gO2jYvqDWMVbc6Z/aSto44BWQaoIa5pfPWX9YAwADtKUDm/U6i6439g2avS4+p9tkPbPHKGKnKy9iEYKf0Q/agW7wfb6Ht+FWTYovoNom79JnKACAAASAFw1osJ5g+dBFxHClRC+b5phpJTZ0U1MAAmb8Yo+F1eKY/OOP0hH4tfL0rFbEQQyuialJ4LcAGFjwtfdVDMKkdVb0z1sKadLZ3oTpmQhaBAWm6zXWWCOzZhHtLxsHPxlma0xlWBDYQNHjnvPQqzPvzZvFoAFhUgW2RvoKk0K7wxcJI8csblZS1ClQaEMEMmI6xQyPK4c8cfoEMCC6Go0E4IBWQowBmhfaEel7mLQBHzAiXAO0y+cIVcycmEw1I8ZES7tUFcTtgNmVe0j/ow8EYSHUCVJMsgzQBoCCPhHNXot2ZBNogYk2BXPtwdkLP/wgXo8esVUU1V6gsubop2XG6GdUgTLmlbgJ+pgWg9DInGV9thaY7MogRTIBsKZgQWjOFZzF8OAYKW3TT6S3PhK5kjr98sv/CtVB4L3UNmC93XDDjdIaFEOKHv+s+4e2jRsNoIdbJHrh/iJgEBCdtaohoBaAS7aCCTgIqNRuOxQcgDoAhvVOZgt7BaDMGmbt40plvyUF3JIyS0Ao+4y+6cJQ/GsGvWIlIY0TqzTrtxCUzddUtBaE5qzWWq00BSCwiFt6+CdqNTdBsA4CeP5hTaQ5qkqKqlNBHALWhIy+bx7DP4eQQKhE056y9EwzQIQRwICNw+aLZjFkaasr70kDCDAPBLFOy8MMz+/6ZE00frRqtAFcAhR+AnARiJekoSUJCzRomIk+oIvno6WWMVkSXMUx2dTbQNhj7sT9gIBGu0co4hJAq6E/CHzAH4wUcywmUTQu5hzLCS4gilehpZGih7sFZog1AnDXv39/ZRLFjYHlAg2U+AgYLGM2gxTj5o520O6wUMBsawlLsiII0sJChzsi6xouXHWlyF+vlgfOPVdZHTAfM0/ESpgAAW2NK1pwJ9pvs49Zzfq13FxooOwNXD7kxJspeV0JEEhnRVOvyvYJ1TvIsgONGiqh0xzjsxjMQkm0jiVr6NBhctutCPUeylKQdDFnmP1RMgCu0Qu6AlpxEdayYpnPAVgJQoTnmQABoc8aZ92TzsucJq1BXAWkQsITksqFI/gJBsatl7TmVJ6a58nV116rYlEA+dF3jh3zolx3faXUctIesi6GLGs3/p6mA4SaaCQmMjoeUFDjm4NeKtp+cJqz0by/eaqeV2mO46TgctxzuNRy7DGqNGLkGJvuB36nDgE+7DTmmTRuBAfCi+AfUDgCblYAhOi4avlZ00otw5wIDMSPiMmbAEIiqaEVzB7wgHZNAB9meCwAaOYEYKF18G5dbjXN6gBzgHHBCHHNMI5oFgPtAUhw2SC0CTSEyXEfvlWsP1geMFfiH8UXi+ma32HSxCEQRwAIwKwJkENoAxp4DhBBP7gwgwLycEfABLEGIejpFwADDRDLBdYOncUQJ2gBPVgw+FdfSQwOzRKAAJiIA6pJzzmPPSayzz4y6Le/VemCFADyj3uuAARS0gBUACeENPPG2JlHgBQAC0GOoCHAEcaOuwPmH90TuDGgt07PRdNkfvmMdc+/aLQAAVw2BNKx1vgbUzUAjt+Zz84HCBVtPumslUIAELJFJERmefrMjJUUH1LVErmgOSCTdaUzVZL4is5iYM3269e/yqKK1s06ZM2EKs3WYNDQnJgP+JTJHyiuRTYJ+4s1UusC0DMG9j3rTPFok7+KIyW3JIN22kmuuupqWWrppQLyV5Q37VDBPQx4x4JBXJC2IOg2x4z1z2KwlRTrBwBpT3YeQMBvlkNbD3fUPGNd/65rH7Cxk+ojKNgpxdHj1GmOWBDMzW0u1DTCqEUYAIR6LQi0gSmZwjmYvLVPLi9AMAVAIkrOYB2BSeushDihpZmCWWpZf2YyDDRytARM49TXByAAgBDEgAb+xQpBMCEaNWmHaOUEYREjgGmQACv8osQGIJyTLnydCEja0nOC4OedCBuT+elDZ/BtZrFU4F7AvAzjI5YB0EIbOg9c0xpmDPCAaSOgddsEMqJ9Aha4uA+wgZaOeyoJIEBLrBcI0GjdgDg6aAsCQjqPJcv5+GMprLSinDx8uAw5+BBFZ11JUVsQ0AqxrjBvADjAE0IaUESshl6zCC/iNxAi+KMRAFhs0AZ1XAZjJpCNz9DGETQAE9YJdIVWzCWxIQA+1gYCB982bjzmDcsLdAe0dGUdhCz8IPmeqJoSuBhUqeV+4qlCSWGepUotn3KajHqoYooHWJFNg1ldWYoM5mXGbfM79ATkMm9xqaAoJmj9rG20/vAVr5YBjOFXOqVQPwPwYy7Y48QoRJUNs23GAMgESNO3KgtSAGWG7DdETjrZP1yOmASeI/aB57S7gnWFcoa1DaAT3dPKxXDdCLnpZv90YGtBaGwVxz3deQChaX01F3OBqgbqv0STLIGKqtSyiDtg7RBICSPZoIOBlhBrXWiCBSGODCZAQNgR+QujhHGa/kJdYQ/Bw4+OdofRoo3B7NHWASCY2UHsCGw05TgNTwtYNhPPsvF0DXWC5DSA0AABARxnacCHiDYKs0DDhpljHkWIoF1jSYDpI2wQlkT1w7AQIDAhfKYIEMqxIpy0ppFlycRZELI8p+8x1w1MCSGog6XytBPXnm47byXFWu4F3oNQJYo7O0AI9sz0GVJYcgnpePwJKfRbX3U5akFA0CDoEcy4cfiXOcUKw1wh3DFRcx/MmzkHTGERwvSMH5k5xmIDKNTuHtYCgXIEj5KSBzjEkgagI0oeywIaLn5vLE3Ea2CBYY3wXVeVWq5nzsPPaMWFT41zW6pcDGGh7AOEU8unOaq9KaIsSqussqrSrPuu2leBqnnn7aXmoFAslvco9wPU2HtxAAH+AKAjCFafFKv3MusNMAyQMxUG9jv9wvplulsADYADADLrgmcAHQh0fphT1oC2BlJ35Ltvv5PzL7hAlcKPgyPEwhx04IFy+x13yMzpM0QKjh/DNnmy4u0thYIsvMgi8umECYp3YFVZfLHFFZG0XXlMcJqjtSA0voqTWugUgKCFLUyCYBVMTlX1zBOsC2iYMGx9XoAjBbn9jtuU0CGIhcXJ4kV7I40MIaQ2l/YXKgvC6+JRRXBgGCDoTRjr2ouc+qiFaaMuhjSAAMNl8bNh2YRotJh18bmhOaK5YrZDmGHKBgBgxkYg8z0Mn02LTxwGjXbPZwQOoZXhS2eD6YqKmMqJDUB7ppYAdAZ8YMpDuHMl1UHQDAYzPIwMsx/0p19oKgTswZBoD+0QoQITw1RNCiBaABopIAjBAtBAQ8gTOW4CBLOSYpYtkiaIdRumNpLV32++Py9ASOt7vRYEaWuTwpprinfUUPEOPLgMEMyzGBgf8TGAAqwC7FfmFcGD1QfmC/OHebO+0ApZr6whtF3WI98REMfvrF1drx9rCtYj3AlYFoiDoFQ1GSkIItY2QIP6CGSKsO8BQvSp810MaVTP+r1Z1dVwW4QAQtxpjvoshoqLgTdefsmlcvV110oLNQ8ABU5BXM+VjvYO9a9ew/BCBDyAyq/QGnaZsIZxBzFP++yzn/To0SpTp05RsUAoB/AUXQhOBxnjSoJvsK/M4FraYo/DR1Bi6APzCHBlD8NbeA6+TL9wF62/fj+54IILOW089uLciz59FlTKnlktFp5Bv3DdTfzuO5kydapyLfZddVVFC7OezYtjxsiI66+3LoasS7WO+zoFIOh+UJ2M6HN8uTARFicMCFR88EEHyzy95lELlcVGoA2mJSKJCZTRZWd5Bq3mjjtGyosvjlFCERMYOe8Ib51dgFmYTTTlxx9lvSktANIgBiFckEEDifKn2oIQlxfRyRYEhCrRuYAiygHzN9o/wUXQDEaKb58fcvJB+OTicy8RzAha6IuQBckjtNm80Af/OoKeKn8Et/E55mw2Mc/jo0Rooy0QJY+ZDwbO92mnObKBAQD0kyA9NFsC4AALCBpMy/QLUzXziIWEmAU0GbRJ1gIABTcBz5NbnXaAlKmxN3JYUx17JPcj3QYgYP6nTv9KK4o74vpYCwLrgrWFICHWg/x8AD1ziGuNtYdgYM5wi6A58jkxH/zLmkWAMP96feoSulgEdD0KakywRgGI+LkRNNyPINDCCM0TYcAFEMF101WlliuTnC3LqXpRRPTkzDEI/mmO+oLGBMX+/Gc/k8WXWEJ69ugh7R0dKk0VvqlBOlo9NAXUVSo/hkECsSK4K9ivXPBIBDn/ovWz58wzXegHMUXsyShoR3ArzT7oK6ACBZC1wQ+aP2uEH6xBgL3TTj1dAYS8MRxxFgeTi+sYBW1BSCu1bIMUc7Ow8gNNBwjm5GLCRnghiNBE0HwBAtpEziLkd5Aw4AAGRaoZ5nE0EkxamDixFuATxUfK52gwmCYxy1NlDibjdnTI9JkzZemllpJ7DzlB5senvNk6IgaCrZVhMStcDDBXNCVdMYyNhvDGt4iwJ50NwYobAO0cfzFCHnCExgVSR9NDM2dDQj/Mt5hy0RIQ4gAomDnMlgqB0Ba6ornBZAhyYrOTgQDDR1inBSnCGOgn4AMLAZolwv74449Xcw0zg5kA9Bgfp1RiggbU6Fxr7XeE8dCHPFX2YHxovQgYgh6721UvQKgVpJjPxRBQxHWlsMceIu+9L+6rryRaEFhj7D+AAhYoXA5EyLPPWIu4hNi3rA/WHqCBeUZAAQDYx6wJsj4QOlgLMIkDTJkjAACCHksCwgxgy57HzIzAIzuEmBTaxyrINWtdDHlysRLOhclsQQgDBP1mnKluimg1YwH8Ga/uC/T165gg3IshMFIrUDlpT8Wt0Si1UPpmzGiTRRZZqOGtqYBB5KAqPuLzF6NZDDFKnnrcbZNSh62kWM9kNB0glDU9EXnl1VdVZDKaKQIF7QNGh+8Z4IBpHCsAmgX+SL6HsaDFXD/ievnhxx9l3332lcWXWEwBA55DM8VsTjrNWmv9Qg488E9K6/1swgQ54/QzlJDctteSyuWgsxiS0L5efOUAoMgC00GKjWQx8G6EIGZ/NGza1DEIoHuEOUIdgQejBQ1jusP1AJMGROBPxFzI+NnUgAfoASMGHOhYAeICEPRof2xSAgABBGgkmPR5P31BS2A+YMz4/0H/BI3RDhpGGkCgP5ifEc4ANcAILhGsPwgIfdYEmgq0AwDhi0bwAFLwOTPPyurT0aHiFQjizHppgJDXxZC1/UbvqxcgJL23bhcD8ThHHikycqS4n30m0rNn1WmO2oKARglAwPSPm4v5AHgD6rU/GlCJVQgLA3uUuWdvsw7IxwdQ4E4CyLLuWNsATupOsI51AR7GCSgFIABcAY3EO6A946JiXaIY8F1XFEoK0702OIgHcbWCFNcXr/cCAWep6NL6sCYsqsUCWQxBULfnJzfiudexVmb/TKEedX+ZMQahMQVtqlbDBtXYJcd+xYUJmItz/yW64LQgj1SiDPVTq/+hQfkSP7b/ZrB7UKAXfq0zl4hz4Uf1qYIlQuNyLUCom6U1DSC09lg4nDHgOGUzMn4yNEyEFCZENAsEHFYBTI5ozmiYCBoEI9Hfiy66uHz++QQVEPXvf/9Hbr7ZF5wAAJjSlMlT5fgTjlMV6PCFzpg2XZ57/jnlPy0+w2mOpDmurVaeF5RgzkulZgEEzOkIa9K6YLzUUOeQFvx6jBuBjnDlfSx2xgmj5FAdmC5ClBQz6IbwITgM1wTgSx+biiWGAkGAB7Q1mDvCGIFN3AGMGlMjcQa8F8CBOwMTI98BLrBScKUBBO5BK4F5JBVDASRgWSAIkfvoL5ooVgRAA8GB9BkXErTRmQDmHPEO3E+YpPWZBo3EIJhtZ41HyLtmuL/bAAR0SirQXXKJeO+8I97ii8cCBMApvmTAKQCcGBPmVQN3fNPEIeAyIKYAayCWLCwPuHuYH9xICHUsWqSOcj/uK+YdIIDLDMsVVivWJhYv1hwBdmTEwAOwePEcwAKQ0ZUAoSxcUmof1F43BlBQLoYXxd16vSCLQavC/opSQYqnnqr24asvv1L2rZeFZAAStBVByfUMB2ipQOygqmz097IiVG4nXMFWr3X4DYHFWB913Jf/+gq6CAtzv4qtf1VAUFLWmP5cj0e1WwYxfitR5U33zZynST98r1xjKCe1rCHWglAPFwvmYca0r/O6iGLeVimUVJ5cEfns88/VpkdoAxDQFDBLE1OABQBBiSZJKhumS5gHbgTQKybGZZb5qQIVxCucedYZQYncA+X555+T9957X52PQPobTOv9d9+T5VdcQQbtuJNs6vWRpZdcUrwBa6vjmz23JE5StEwN2jULICDoWMSY+mHAlC7FGoCmRioSTBQAgHavXQoEkhFkCEBAkGK+JbYAcARDR/Pne5g5jBjNDYAAwMK/S4wB/kkq7yGw0OCxvCCkYe48jxUBQAJwwZqjg4WyAIQo2aKMEw2RYEXtXzZ9mPoAHP6FNlgS4jQVwAFCBC0SAEWaXlyhpPqXf+c82WyAkD+LoTIu57LLxDn1FHHHjRdZbrkqgAD9oTECAUBKPAoCXQHtYlHNDffwOwCeecZHzXplbVJFEgsDwBc3BOtM5/CzzwmeBQTjiiLDAVAKQGB/60p6BMiyTgCVWCnoB4ABV0bXWxDyrok4FwP5zTOlMOpF8RIAAjwA8AwYIgbJLbkhLTpvL6ICVPPhUJp3VUVZxG11yjjgHb4AT86TVlsR7dUiJcofYmwuZWgRF/ZZBRCCYk2AmA032KCmM8YChHpXk0jTLAi6kqLZFRYajAELAhoBGgjFYTCZglJ1Di+gACaBUMFsjpkbMzK+dxAiIIPjUDfddBMlFJ9/7gX5/IvPlB8eXyjtw6x+u9Fv5a0335Thv9pUNtloIykNWFuVfabN5ZdfQVZeeaXgdLZsgUgsagQ47UeLwtTKuy0v5mBD0g5jQ8Dj48XEj8sBxgwTxeWAtkZQIn58AAOMmX8ZH+/C3YBA5QfTOkIeJovgJWocKwUAASBCuhrWBmgOvdHW0NLpA8+jtfMetDq0eehPoKGufFYPQMi7BGN9mRENib4CIrE24eNGQyXuBEAJSJpbXAwNAYQbbhRn2FBxx44VWX31qjRHaIkFCwCASRkQj5VJZzbgAsQ1hcAGdLK2cBcg7Mm6QcDpQDfWKUGogFYdsAq4oC3WJxYqQCpzj1sNDRrrFXFHWlPFIsZnrGOzDkJnWnzyrt1M96cEKeLWYx+ynrVmrjX+Wu2nxQ1UxyWEW4t+H7UK8DcxQ8wt/IOg6KS9mrefUZdII88r/qtwiFerKo56hQUImVZs7E2dChDwg2M+RDihSZDVAFomeI0gtVtvuUUWXWwxZTnA1AbjQWhFUStaMz5OEC3CFL8dAXqHHnqYjBhxnWJqaNm/WGsttbD7TespP19mGRWDQB/+8Mc/SEdHSeabb17jZELMYn7aUC1tmOApBLqZF1wvs4IpABD4F42dqH4AAAIQtwqmWywiaGHQh+A9aAKYANEzbjIHSCfDXaBzxgEeWFEI8kIDw+2CP5mCJWiEaGLQFJM/5mKYN+OCCUMfLBkwaNwaaHKYiwEOxDdobb+eJcazWBHSmFqttqE14ICsDOiExkqwG7RpBkAw5zLJp5tl7GY7zbYg1B2DgKn2zjvFOeAAcZ99VmTttasAAqCRNYllBvO+LhKFlo91L86FBLhnXnH7JFXCNOnB/PEMwF/X2oCmrEXeF3ckdjRIsd49l2Xu6r8nKV4hvVBS/e/M/2RKVEVVaB8ADz6qTzDN/8bOe8Ici6nm1RqjBQj1z0fTAYI5aQgfzNhYAKKmQoQGZs0PPvhQ1l13HaXl4pczKw7qYREVDxP7yU+WkUkTJ8mSSy2htGGsDGgiVNRabNFF5R9PPimPjHpITthwWxmABWHguupExiFD9lP+tF132TWUS1wxWyUHBKHd4FeNpuFlQepRwch4iRuAEWMZAdQg6Dk/AM0JpogAJGBQ1znArI72RpzFmmuuqbQ7QACn8kEDGC4MlragE5YOmDr+W9wVAAssBDBoXA+YgfEbA9Sw2tAPmD3uCEzDABDAA981ChBwqQBitIk6bplqS0z0u2gwFmADPzm0I6gROjYTIDRTADUbIDRkQXjgAXH22kvcp54UWb9flYuhftZReTLON91ou/VmMYQC1VKcp2ZOfXp/zequFc7h/xbzorIFIb6SYpVSkhCBH98vsy+MWI863A8zA0C344fy+Vy6Ur4eN0OlzShAiJ9f49yJcukiTYvsXuu47DFzzOZ8htwlkTL7td5oAUL66k66o+kAQS28YLEjlND88Feml5RNWgp+130Gbi7q8JKgbnpbh19kY/F/T5Cera3iKoAwWQEUtO6jhh1V8wCUqk1rlFpG8DaiCdM2LhUuQA2R3USOA3wwpWK6BRzh50UwI/AR3tyD+wFTn/btEnSoNTvdJ2iNYKKfaH8EA0Jz2gd48U5Mt1hCMNsTt4B1Qpc5xjSMxYHIdMBQMwACIAcXCtYLMhfymBjNuWCMBGZiDQEcke1CsGozAEL9Wyf+ScbIPBAsSj541oNyavWjIYDw8MPi7LqruE88IbLhhgogMBfQUdcc0PurLEQiUeghhh0JVIszUcftkywupbLYdRxl3WINo8nmvaJaZnZxlcgmgy9ytFQOUiSLobrUcsDVFKfM5vAsUycCCEwLaCWS37zbRwL+MdHhgkomsKhQLZsFISkdonJGjoYLteYv39grLZXfHpMCGX2fBQh5d5BB584IUqy/O1mfrCzmKg1UH9ZUcqU0cB1VPWy/MkAYllREsSoDg3bRznXUfb2HNekRkcKFlk46F5YEshh09C2CPy59KS8gyaoFE7dAkCiuE5PB4xPFkoMFgRTMRi0IjJ30VaLcscTwrqx9NFcCQg2rAS4Z4iyaUSipnn5kWZ20CyBLO80xS1v6noZcDI8+Ks7gweI99ph4G22kAAI1JzD3px2UlaePzbyXfrH2iTfKk/7azD5UCqjUOPcl5oVlfgRAeHCMuNukWxBquwCyjipe1KKhq1DEGHmuiiATxO2VQi9JAgg69TJrj0LAMpeFJNsbTAuJtSBko1neuzrFgpC3E9nuj67warSs2nEdKXDcMycGqhiEdICQ9H6YfSOllrUQgmlgMsXnir+feAMCEs2DT7LRoHPv0v1FWyfljUDHvCAlxBQcR7mYAAi6hG5ePz+WEdIysbhQp4H4CSLACXyjzXTLVHNoViv/XL/BHBtlrJMOa8rbo8YAwmPiDB4UAghksJBNoy0IJsiuBVTjrAV6LGbaW1YLQpRuuh8Ac34Imuw6EBMVsMmm+/T50zEIpDnWsiCkt5TtjorbIJqVEAYflb8qLlLeYFoWRAWZDhgwUB555GFlufSvenX9rDAhziIRkw1hnniR8Thu5TnfhQAAIABJREFUa0HItori7pqNAEL8IKvQNwDhmVdFSq64gQVhyP77qyBJtNA8aL1RgGD2GBM+7hYyKgjaIjAT03s0SA5fO8yRf/V3JmPOovlmuafWkiHWgSBQTPjNBgh5lyp0IKuClEeCVAlqI5CVFDGyLrIIkKQ4B1O41ev+iAIi2sGlRewFgaNmTfu8Y9f3N+RieNQHCC5HP2+0kYpTIXsAAFMp0RuIgAx59vWOIc9zafOVp61Zc2+BY1yDOggAhPkS9Oe4uIZGexzH4eI/8/lEtYXk008+lQEDowBBg4QcbpaGhpKHU1deFBcbZgFC/RPRdIBQ37TWP4Dokw7pxM+8Kk7Ji3UxaLyc5Y0stp122kn54xt1MfA+4gtIFUPgYYYmRUxtuwzlzbqSaRJcSooT7pBZDRCgj07v1HEXpOYROEraY9YzHLLMd9VayiEw9fwwl1g9CAzFzZBUSCpPfxoCCI/8XZxdBov3+BPi/eY3aj4JStW1JxqZ3zxjmDPv1Zp7VMg64kybIc6oMeJtoyspVt/j06QrBG4SEImP1kiOQehK7h7/rnrsGBYg1L/7mg4QQhpV3cs/bArLysRUXmwQg+C7GIhBmJwag5BEvmZaEExrABkIZF5Qi6A7XtCbVEzM91lpHzcOxoyLgViH6BnzjYybPlFjA3CQBVw18q56n23UimO+tyGAMGqUOHvsLt4/nhSvf/96h9PQc1lokeWehjphPJwseqLCOk0gJn3vA4TCQ2MMF0Nc2yo6IMew6rE4JPexAlDC7hTfgmCmOeo2ou/Xn6fRqQp6Z5AMZptJGSTZ6GcBQo4lFrm1UwBCPSgv3K+8C854muDCp8eJ4xKkuK6KQRgyZH/pv0F/GT5sWOoBKCGA02AMQtK0ECSIlhmX/13/VHa/JzVAMGMQul8vIysvYs1pBCA1a6wNAYR77hFnv/3EGz1avOA472b1qzu3E/VoR1Pk8untGfgRfIcDlvSLQ1kMuBj0pd+s6wXyeZbeRK0VWYVzQqVH1R19kp15QIInn376SaQOgvlu83fdtu5LrXFklQphsOJTrRos+IpBvIskui4tQKh/p3YOQNDrLYOJtnrZ6E/i0GHSIqssKoBB4Zlx4pU8FYNAmiOR78QgHDUsPoshiXzNtCCoZZ6BHvVPZfd7cnYGCN0BGOgZbShI8ZZbxDnsUPFeGCPeWmt1v0XSxB7pGv9+hb1A7PoZfuXa/lrcmFH9cVzFsGFmFOCRgaSmOWYV8IncKfgiC7iICtlA7JaD/EwKOPLpJ5/IwAED5OGgkmKQBxER1Ga/TDiWtT/1TnxFPlA933WV2bhmYxYg1EvrTi61nCYQzYO6KkPQB4hUAEKlnQwmtsCCIBzWNNDPYiBorL+qg2AChHStoNkAof5pmj2fnB0BQnekdEMA4dJLxDntNPHGjRdvueW6zfDSeEO9HaUeir7iUvuUqMwY/R6I0bIgziXSywCBNMd5/XoHxiFJBoSpd6i5nssDgnAxDBywmQEQcr2qk272R+AXdyKDraAm0i/ZYQFCJxG9c89iyN7p5LLHedpQC8UVKTzzWnCa4zoyeepUGTJkX1UoiSyG6Kav1b4FCNmpH3enBQiN0U8/XTdAgJEOHSrOnSPF/fAjkflMU3dz+jY3tZLVSK6OVSYGYdSLUtqmn4jKYgjKuntUbUXQ+UItLvg4LWU0K801ECrr90ZRIWoa+PVjq6GKDxCwIDxipDlW3lrLfZO1b/nv8+GZX7sh4OLBCZBpNgtrQchPbf1E010MZZQdoGXKAVMqmJQ+MyVNB5f5Bwh5QbS3nupq7b6WxsFBTuVNRXrgs+PF6fALJZmVFCsAIRvBLEDIRqekuyxAaIx+DQOEjg5xtt5KpOc84j38cHM6Y1upOoo4jjc5wWmOfh2ESpqjL5bRf/UhQ/G5/qZSTEnoJKtHCAQYlpG4o5aVXA1ibLQbRh8nbU5rdZBi/KRHuXRciqH/SvM4aH8s+nPer//2P6y8KxQ3okwFjjoWW70nOKzJo21rQei0Xdl5AIETT2fMkCuuuEIVueEwJk4vpNQvhW5I9aOc8Geffa4+O+64P6syyQAGzgvQZYVJcdPCn++I/tf525QUnjhxknz77TfqWOO+fVdTwYnOaCwIIqWBa8sUZUHwSy2HLQhpuNNfiI0USuq0WZtNGrYAoTkTVW+QosPxzKusIt4dI8XbasvmdMa2kloySAk8AMJDY6W09fqBBSGJcDqLIc6Pb34W7xItK2QRt0nY2mEqXkrMGiJVx2/RP/8+YhDIYuBI+lVWWTVlxsNt+zcHQl/Ff4TtDf5fgbAPWo4DP5XPzABKIzKkvU2kWBQpFIMWk/m5tSDUv2mbDxCChcpUjn/9dVVqd+DAgao+/WmnnaZOcqRQCwctcfTr8ssvLwsssIA6M+C2226XUqlDHVh08MGHyGefTRBKFAMcdNQ/xWfIAtAHFVGIBoBBOh0gBGTpZzFQB2FtmTZlquy7fxQgZCOYBQjZ6JR0lwUIjdFPP10vQChccaXIZZeK+847PjNtUqBsPfED9TyTRr0qzTRyTkTa8/V+X6U5BzIvcBqItLWLM22mFB5/WdzNfi1CDEJgDvcD8v04K19Q8mNkNARnJlQEZHCvKpmMBu2KeDr7IHzIUliUVmwU2CtcXBz+qyuX+oPYCNW98kE3n0/4THbaeZDccdsdsuKKK6jPfb+/Q2iXuj9sKfb74URSNkMWAOO1at7U4RBBj3X7xvw5yhWjwVPBvzfAMopi498X6TO/uH1/lhg8qWloAUK9K70TghTL694Ree/999UBQBzPy+mBHFxDfXVd5nWPPfZQPafKINYFjoXmxMExY8aoevtYGVZaaSV1OA+LigqDBx10kKoGhyWBExBpC9cFbaujZF1XWkaPF1ayfxZDpQ6CdTHUv1DqedIChHqoVv0MoJjDlTjLAzCd5YKh//qqq2XZD96XZ88+W76dZ56qmhGdVXzL9KFn6Ws993RW382+mJksFLyiuuhWW24pSy29dFWXtUe/8N1kcca8IdLRITLpR5E+C4i0tBhgwHw0KXQwuEfJz0DMKtu6+bluR4MMBf8SSWmCB3UT7ZVxSdi1O2Nmm7z53zelb99VZZ5evYxWyxAo8qaolm/2zf8dQOD3Tvcx3iLi3xx0TI3dPDXSRyderx4iM9rEWXJhKa3XN3hZdQC7foMFCPXsMP+ZplsQzK7gHqBePgKeC4HO8cOUocWFACDAEgAQ4KwCquNxTDHCnnLEWAUAABTEoXoeFf7IqedUQiwSnGXwt7/9TVXaK2NaV6T4zGsiqpLir4Pjnn0Lgl8HIftlLQjZaRV3pwUIjdFPP/3ggw+qY7hZwz169Mjc6Co//CA7/etfcu3GG8vEHM9lfsFcciMKCD9vvPGGOksFK6h5hSwZuDint4mUSuJ8+IW4KyytrDc+gPAFZFn7Lpvao+JbnzPja+36r0DfF1HlkQNBazjw/cBDXxz7jgQubWVAREdrIpihikF7niuff/657LLrLnLrLbeqImfmpUCTutW3Yvi2AN3P4FOPehCm68QAB4Elwsc7RCBg6ahQRPffdE1UPlPmFXXOTuHZ18VbbEFx10tzgUCuNil1TJ5LVmtzh9klAIEjhYkXQMhzSiDA4KuvvlKLD9cByBxAgHbUs2dPdRztOuuso0oRb7311kIUN99TWIjjXwEOHHmMNeLuu+8OAEKAID3/LAavwxVPAYSpsj8xCP03kGFHzdo6CM2duu7fmgUIzZkjzu1gvWNdw51Wz9UZGnetNpvtUmh2e3lpyPt32203dcz4Bv371wiLC6CAks6BxpvhZWXhX3VveqxUuJCQ30C1X9/U2KOWhvA7KLXMyamUW68c1hTtWK32KiCl8lQAjwJ8oeweyQaPiDUkQgNq3Tz+sjgL95HS+mkAwRHPnWkBQoY1GHdLpwEE5h7hP3TYMKX1YyXYZJNN5NBDD5UjjzxSWRA4dhZAgOBfaqml1L9YGQARMELOLVh99dVlzz33lHXXXVd9z09rS6uMGz9Ozj3nXLn7njBAAF06o4MYhAFrK6uDroOABcE0yKXRrB4LwqxmZGlj6srvLUDoSmpXv8uuxebRH1ruPHiwDDvqKFV0LekqZxUE/v10IZgFAOQfR1knz1XzwX+PPovBD1JcJf/Lm/JEEHCg2orYfTVAWKS34WJIfqm1INQ/IZ0GEOgSmg9+U6wFWBFwF5DuCEjYYYcdZIsttqgE7wRjYCOOHTtWDjnkENl2223lhBNOlHnn7VVJYwwCWnAxXHzxxXLnnXcGFgSFm1VwospiUGcx+ABhvyCLIW8lRWIa6Od1112X6bAmneaj8LNfwWOuvixAmDXTb9dh8+kOLxg0aJCyIAAQanjQjVCBiusgKQUwrP1X7AgV7lFb26+MNBqgYMYVlOMPzcOSEwoM+ZUUNxvgWxAACLV4WfK4mjEHcTEa6vQ2ZUGQRfqIq2IQNJ2jYZF+DIPnzrAWhDqno9MAAkh68tQpsu+++6pTDIkj4MCe9ddfX3beeWc55phjFGgARBDAOHPmTNl4442ld+/eygdGeiEZEFtuuaXKWtAXp9Bhbfjn2JfkxhtvlBEjRhjnKzhS4DTH0a+qRUQMggkQ8gYp1gMQtNaWBhA6d2PVuRqa/JgFCE0mqG2uKRSox7JiAoQNN9hA3EQFoBZ0qO5+9d3mJ+FsBcc4mrm2ZaJSWtq/T2vjpiaeXJXWtyBsLo888lANF0NTpqK+RlxXimSILNJHvJoxCD79LECoj8xq5cyY9nUTVF1HWnosXO6FXuLEDey1117q5+OPPxZOMSSu4LzzzlMaOcGFSlB6nnw3caKyMPzqF7+UETdcL7feeqssvvjiUigUy2eWI3QJFrp+xAj58KOPVLDjbbfdFiDcAH0rC8I4FcjjDmgMIHSmi6EeJlX/NM+aJy1AmDV0t29Np0De/QdAGDxokHIxbNCvv5K5cYwzb7u14YR5GJIv3PPAD10sSRdHSlNaNNWSj3tOp2v2O/KMJNKq60nx8X+Jt0jvwIKQ9FYfGPkxCD9m75q9syLLmwUQWnss7Pv3iQEI8lk5khdwwLHG6623ntxxxx1yww03KBMd2Qp9+/ZVgYnUREDYn3322eoeXAxEbWNNIFaBFCO98bA0LLfssgpQjBw5UgEO8yqUAYLvYjALJeWNQaDdnXbaKbOLwa6rMAUsQLArYk6hgGlBIEjRtGqnafP106CSdaAMAUbGY/1tpj+ZBBBM8KN5vJ9BFlQ3TG868x01gVbZgtBbvHKaY1zT2oJgAUJmwkdu7BQLgn4HNQneevttla1AMOKMGTPkpptuUgWSzFQhiiFRRInKij/96U9lv/32U+DB9KXGDdAEI+WgHADCM+PEKYm4QSXF/Ybsp4Icjz36GHEKOv0nnWS8XwMEYifm1iuvVqTpZAFC81ZMvXPQvB7M3S0pC8JOg2TY8EqQYlwgoFm2oHGKVdL/0g4kavxdfswYQeA+QBgoj/w/e2cCbtd4/f+1Tww1JQgVQ2toQ0z1kyCIKhKKEnNRJRJqqiGmSoOaCYpQgoioocYgMrQkJEFRzWhozT9/vyohCSIJErl7/5/Pu/c65z377vmcm9xcZz9PniT37vHd737Xd33Xd601dkxsiIHMs8cff9w4c6zD1157ray5ZoVFrsf9xJ4jAAiyZntp6q51EMJ7V7QbjSyG4m+jbgBBGQSDJkPK2bh0KPvn1EPgD9kLdnxe/x0pvLJyarWghs0g0M3x32+8YQSPIF2KzZBJoYg3rSkK10SkiM6BkEjUlqQlaI2LekvcUxSQ07GlABZZLGhO0gBf8WncOLIxAi07AjZAIMRQrltkxRlahkmI0g8Ue9bm375/boUhZ5xxmlC8rlOndaVXr54ydmy4WZO/J2vpqb89VeZ9OVf2691bbrnlFrlz2DDpvOmm/tpa9hD9f6SNS1TfiOZPaIGlACB4a7YXNzXNsVEHodhs8Y+qG0BAgzB71ix58623jKGvNGHPdnu15WlbaldPZPOZX0s7V+T19VaSG2+6Sd586w3xXE822GAD2XqrrVJae1Tulw+Kqo7UZMhToCbbE7edvZLeHTUsEKZeddVVptJlY2uMwLI4AqpBOOvss2Xn7jv64VSruKGud3UQdEUMD4WWKCpU/OxhB6tSuEkzHBy5447bZcSIEbLFFlvIX8f+VUY+MUo23zyc5ujInDmz5YADDpBbbr5Z3v9//08efvhhoxmzm/HV/x3bAKHJiBSlnOZoA53mpfDcoA6ClpGq/7213TPWDSAsv2JHU7SI1MOmxU0B/FjyA7ecU5I//Gx/WUHayYAJj8qX8740XwAfCFkSP9lq62aINs6z5efoHHr37l1uHpXnicKGM6oErb2P/jv8d55rhve1z2UQoVXvvNbzRp0vLIRiYd14441Nue0GQKhlxJt3xavtbEvm6JZgrOw7xxmJM0z1vLZqEM4+++zmlRQ10S6i5kBtjo/lrJhrxGcepL3N5mMRVEJ0PPECF9/zXHnttVflxhtvNI4R9WPIJOvQYQ2/jL3nr+uff/65WRPZD8E56ejH9uljfpcOYYoyIlbJZTcACFUhBr9nRZQQ0w8xzDep740t3wjUDSDAIJCOOG+eX9IybJiSbqtK/BLqNZb8OJo3bDUm8URWm/yO6eo4u+smcvkVl8vzzz1nNA03DB5c7gSZdZhIt0wKMWQ9j46J7l8vQ53n+i29b1IN/qwK6pa+x2Xt/Oh2yAAiXTduDuX51urx/PU0vFGAFmEyBdKSNoDBk08+KY899pipqLrOOuuY3cP3hjGjdwvaplruOw4gxLVhrsc4J1aqDC4QVQEgz7WNV21qy1TEhu+++57svffPjZAcrcGmnTeViy+5uKrDLmXuaSL2ztvvmAq1VLxdY401ypdOzlEoksEQZhCmGAaBUstawjoOnsybP880/KuFgckzpm1p37oChKIDUy+UbRYII1IMejGQxTBvvhzbr6/ssssuclb/Myv9xDMUM2JBUYDwXRYpFn2v9nG1LM71uP6yeo67775bbr/9dpPJo4rxMMjMC74i9TzBSZM0NWkgPwxgsuxvH8Nz4GAgasbwx4FoxoEeLAjjCP3dc889VWI6PY79EEVTnZU4eS0MVrhQkllrIj3mcL+D+s88q/1Canw/7uphnZc9hzSLYfTo0WbOnX/++dK/f3+j39L9AK7oip5++mnznujAe80115g+OS0DmqzRVpFikOaYxgss+vZr+fqrLxoMQoGp2CoAQoH7Dn2eyiQgSHGkNHGq0CuEds/zF8w3VBnFTbRQUtqEshdgAELWSorFnqNxVGME4kfguuuuk0WLFsmRRx5ZRZ/agCsMHJaV8dT+Kxoi4Jno/opQjueN2mAD/vKXvxj2gM6ugANKse+7775md3tcMGakVVMRkLLuOAldunQxSv28WxRAMNdrFlYo4h3nu5usKY9F7ySc5kjhOtgBmB0bGF17zTXywosvmnf1+muvySeffCpXXnVlpqqzWSo6lPzeTOKZsGilpRNF8FSDQCXFtPUcDYK7GAYubc987+G7sHddAUKtyDE/k2BXGgtelwEI00yIAYBQrqS4085yVq5mTX5Mq6UZhLbiWYc9z7byXEt7EcArW2WVVUx58qiN1DTqh0ClxwGFtHeRlzVIO1/amGFsAQX0WrnkkkuMCJhNK5f269dP9ttvv2an4bo333yz+dOtWzfZaKONTNt3vFcAwrbbbmuKq9neMOHBcePGmRADTALNh0ij5ngMXlKoz35Ou1CS9mIoaoDTxifL71vy2mmFkvTaFLYjRR0QSzM+at7QZwdNQvJWEZXne45Ah6BZDKmFkvy7aPRiyDKjovdpVQAh/2Po9Co3Nq/0YnBp9+wDBLo57rTTztL/rDNzXcIPMRwsd9wx1PSQaGyNEVjSIwCNjiGLAwgUDtt///2NZ4yhNB5e0K8kfK9RPw//TP8fDkNEAUA9f9YQh31u9EoIgC+66CLTOVABAoAcxi8KILAPbMDLL79sNAeEXRDTATR4fgw/LIF9X8OGDZN//OMfJsTwwQcfGEDx97//3dRkoRYLwmX0SeEumVHjcuihh1b1YjDGJ2d1w6Lzx8rTKnqKzMeldXPUVRfwNXbMWLnu+usMo8O7QJuw3nrrZQAIqB/IzMi2VXEIDYCQbdDqsNcyBhBsFW8EexBoEEqTpos0eVahpL6y8847S7ZmTRWVreO0k4MOOqARYqjDRGucotgIKEA49dRTmzUs44ywBrRHp+cJVDuLe4cOHcyf1rwRXuB+iW3Twj0rQAgDINLrnnjiCZNqF9YYAFwUIGDM9PeAKkADx7755puGwTjmmGMMUKDXiw2OFChUlVouV1Kk6FpWE5f3beg6ZN5y3oNr2j8NIOjJP/zwQzn++ONN114K4cF2pYlL9VgNk6TWSIgKDDS50m7cFPELJaW1e24wCLVMhroChFpuJHxsMmKOAgcBxgxKLSNWrAoxWBqE5PvUD5OS0X6IoaFBqOebbZwrzwgAEDTEEOWpAxDoioqB4w+pZwj9KG+usX32SRLoZQkZZNknz3PFAQQKk8WFGKLO/+ijjwpCzpEjR5afUe9VAQKMA99weAygxd99913j/dIdlvAEzeFgFcKMYbNujpVGjS0GEfKMZz33TQsx6LUYX9gbmu0RukGgyJzLyij558kXZDD7mzTHKaYXg7d9l1ShZiPEUHx2tFqAUPSRAAYlmjUVBgiVK2uIYejQ2zMKb4redeO4xghEj0AWgIBRwxs/4ogjDAXPMaj8WbBZvFHy/+53v5NVV121fBFb7wOAwIiuv/765pi0DQ/8/fffN7R+2kYoAQ8zLAysB0Ag1ZFnJWxgAwTbgCFShC0AIPA9o9n49NNPzf0AAghTMBYff/yxqePy1FNPmcwISqyj2u/UqZP5f7gXQ2Sjpog6CGnj0xp/nxUgLJ17L4m4i8vdHKWc5hh/Nw2AUPxNtVqAkBdXWiuflCbMMCiTUssL5i+QPn2PlR49epSzGLIOVzVAWLuhgs06cI396jYCChAoFx61KYOACA+alwZp5KcjFEM8hsGjzwllc6mVj6gMg4mokdAEgIAsCVLZUKoPHDiw6jIYcvaFxcCg8k28+uqrJhZPKiIN1djQ+mCo0UtssskmxrCyL7X6SYX7wx/+UOVZKkBA1NarVy9zDoxwmgbB+JxBsa9nn33WVOhEe/DLX/6ymeAwzCC8/fbbppAbuf2AC5gCSoHzbGyM5Zw5c4Tqn4wbmgWqr6KHIERJGOfss86SHQkxhDYrS3+ZZxQUIIwZM0Y22yxcSbFuU9suypxjbVWAMEXcju1FTBZDcpinARCKv7NWCxDSHymmqpgr0m7SNHGbXPF6dTNFUvr262c+cE1zTD+3v4cPEPxCSR070ouhpeKNWe+osd93bQSyAgS8XZT5iO1uvfVW4xkjAJw8ebIxitDwzGcMNR40XjGGXGssEJrAMLCvHYNH3IdnjRHFUB533HHyyiuvCJoIjOjqq69uXsm//vUv0+sEgALNTOobqnYyCNABEAqwsyyiGASui+ceFinalLUyH4AaDPY222xjwAobv+PnMBYAAK6HNoH75RuGTUBIh/qe4lMXXnihEX9SFTC8cQ7oc0DQ888/b8AVxzCmaCbC4YpybYKgDXS9mjbVM7ST9VxLikHIlz1jrfflNMcO0rRDOovVAAjFV82lDhBCGa74EYEhTjPGMSoFz5PSBEIMrmEQaPfc79i+slOPogCBds+NEEPxKdY4spYRSMtiwAgSYjj66KONBgEDSZ18xHYYOQzb66+/bowhGymRAGXCDTfccIMx/jADKuZTwKD3PHPmTNOOHYYAmh6VOsb95JNPNrF7jdVzLcABgJx6/hTZ4Q8MAsfR+S8KIGCgMfKck2NhMjDAdF8llIFOAE0FWQdcg3Ng/PH08XBpBLbuuusacMAfOsISRiC0AUjiD+AGgEA+P8aPTAeeh2vTWRYWI25jPAEGzz33nAwfPlzW6LC67POLfQ2oICQTW+Y50CikrWJpcyOrUec8jMu0adNkq622MkxOUsn2JJ0AzAmsTvNmTcnlvsMpo/Y1Ks9R0XjlywFpDhC8jh1MJcW0rQEQ0kYo/vdLHSBUbk0NvvEFij+RJ1KaMM1UzWqikiIAoV8/IXc5L4PATWi757hujsVvtHFkYwTSRyAvQHjttdfkkEMOMUwBGgGqEuL1o0/g59TOJ8RACIC4O0p+QgvoFGAEYBqiGpPNnj3bKNYBFQABvin0Dhhn3TCm0Phcg+sS2uCcGOc4gECYA68ecICBQxlP2IIsDIwcYROMPBvGGO0Av+c6GHnqH8CarLxwoawxa5astttusnL79oYF4TnGjx9vAI6KFHlmWAFSHd955x3zPJQUTts4H30YoNwBPR999JEBMYgqN+3cWVZdbTUpkV4aFE/SloZpK1keAJB2jwAyGCCeh9BIuPS5/f8wQLCNOyElwBChG1usGWXws96/nQ1CWAtQm29rBwTyD7HSHL0MhZIaACHfSNt7tyKAUPwhqpSwniOlCVPhG8UNAAKUJQCB+GHaB1s1OEEdhAaDUMu7aRxbywjkAQiwCHjgGFk8aTzu008/3Rh9Mh0QMmKI0ShQm54QAx40izcG/L777jNVCmEfdON3CBJhHgDJhBE4HtBBJUOMcOfOnU2qIGluFCOiLgP0P547ACEpxIC2AgYB488fgAfhCYCDMgC28YLa5//shwHTFEnnzuHinHu2eNOmi7fRRuX7BxhwT4AUAAjjQ9gF4E9YhGsQXonL8rANIGO38korydfffGPCDwCbSRMmygrfW9HUcuBeNtxww8wq/nwUe/IswnhTV4LwUteuXQ1AqGVT9iErALCvlVTwbvy4p+XgQw4yc8eeY+mZD+FeDJNF1uxg2j2nrekNgFB8JrQRgGCrnJmMAAAgAElEQVQNgOdIu4lTTR0Ev9TyAhPTRINw9pln+qU7M46XahAaaY4ZB6yxW91HIA9AgCXA4BIGgGYHKJB+RuiBUsMIF/HM1SMHQMyaNUueeeYZWXvttQ2QwMho0x1oemoMAByg56kTQCogtD9GF4odg4j+AcEgXvV5551nAAPn5vowD3ijhB3SNAhZRIqcg/u96667TJllfRZnyK3iDBwg3uQp4nXuXH4PAAMYE/7meyatEcYBUefEiRNNJce//e1v5QyPXAbR82TW7Nny9PjxJouCMMjOPXrIAb0PkE1+tImssPwKvu9ibXp+G/SkG8ds04owDcAJUJiFFcl21vrtxXPSHfKcc86RzTazQwNZV+TgXsoMQgfxGlkM9XtBEWdaxgFCRK4DDIIBCBUNgg0Q8pQcaQmAELUA5VqUWnQ6NE7e2kYgC0DQOggwCBh8jD1zSucVojwMOjF9TdnjOTG2hAUwlnjU7AcYIPzARuyfTokAA8oaQ8vj5W+99daGSaBZD1QxbAReP4wBmgcMAQCBzCHKH6NrgNa3DWHRQkmkbfI98wcGoeyF3jJEnPN/XwUQ7CwG7gGQA3DiHhEuwmwAchjjIo2cjBDR8WP/cz77TGZMny6PjxxpdA6wIoQ/tuvWTVa0GJmw11zPb18BApqKMECo53WivpG489s/Z77BPAEis6TIRn+LZsCl3bjJIh1tkWJ83luDQSi+qrVNgGCFGMq9GGrIYmgwCMUn2NI+sp40rr2467/r5f3FjVMegABTQPyYY8gg2GKLLcqnJbUPihyPHsOPQcSgwwhQthjDSZMkQgkYN93CRZYYT0AF16LFL3+zD+wBjAMCN86Pl04pYzz2yy67zIQwbCNctA4Cx8F0EC7B0GcFCPRvwLPGeGsIhZAAoEozMeoxVwFGCAVhXkgH7bTOOrJ/795Gr0CIJlzSuR7X1HMwNgAnAMKuu+5qfhwWDvKzlp6zcQACIFVfgNBemnbYPHUIGwAhdYhid1gGAUKIswsHDAKRItVJ3V7bVpo1ZS61XBmragahPnUQoj7Y4q+v5Y5cGotIyz3NsnvmrGmOWkkRfQChBihvQgUYbWUKYA/iCiHxvjkGtiDNu2NfRJBkQuANJm2wC9QoGDBggAEUtjErWmrZjnGXKfsUBgGQDzgC3BAKINSCAK8Ic2AMr1ZSpCaD51PkNlGu4RsqNDKuMDv0yqCfA1kGChTq+Z0lMQj2O9Ix49oYbQ3TpH0lpMfyzjVDgrHLc/8VBmGAdOmi9RWyVrwJZTHAIFBquQEQ0l5bTb9fhgFCuE1KMNE8T5yJ06RkNAjdqgBC0SyGetVBwIvDk0JAlmfLQg+G97H/H15Q07wIaGQW9WUlcyPL+OQZ79a0b16AQCEkUvCoiQ97RliBjXdKSiBCQtuLDc+TOK8zPCbUNcD4wTgkGVnuAS994403NoWbsgAE4ujpHQGr78hJAAiqQSgKBsLPXnZRgsqJSSaObw/mhkqVpGXCqCAMJTQDUFiN7Iegu2UeY6v3ZL+/rACBY2GMCLuQDYKGBGGpVrtURoh9yCKBYeI6pLYCqghBsYbRlAnxNzqXuHRPe+wUIAAWfQ1CHu2BNcpGgzBFpONqDYDQwovVMggQUkZE6yAEWQwsUCaLoeYQQ+0MAvQvMV7U06SHZfmoWvj9l0+vCw33hJGhQBSx7SKL1pK6Z1LWiEnjBWkefL0YmqQ0MAVYUdfiZyy0FC2qh0HKAhBQ/MMg4JFz3xMmTDB1BdAWcA/8wevDa1Z9gf2OwqrzJBW6HofRI90xTS2vZZwJB9hV+QhDKIMQ7uZYb4AQ14thSQJLxhTmguwHwg/oORgT2BqYFW15Xcu3kxUg8NyTJk0yaahanhsRN5oSvn/Em2hPuGfmDuEqUmQBnvwfwSs6l6lTp5rvjxDSDjvskHrrxTUI1RDMaXKlZDQIAIRKGC3uBhohhtRXE7tDmwUIWgehfgCBSoq1b7AIqHjJv15SHffshTAtJs/vH3zwQfPhkxJmK89rf/r6noEFjbK4LLT6jGHa08791qvbBlD/be8XBYqSxKX27/T6xPPxgrPSt3EjkwYQMNRUOMRDb9myuPV9d4C6t956y3wL2qY6SxZD3F0sSQYh60jEARDmFxkeZGPQMwODS6+MWresAIHroJOgZgIZJtR1OO200wzDwTtAw0B9B0SmFKSCcSL0BFDgPgEz7Ee4ZvDgweZZbrrpplRngndOLY3sIsWYYnhaSdF0c2xoEGqdN0nHL2MAwa54bvy45s9mQgzTpWSyGLaX+QvmybFBmmNciIF4YlTbUdUg+CGGjnV5D8QiKVMLvVdPcVTiSw5q12dhA3hmiucgNqP6XmsGCFTCg97E42TLwh5EectZj431UJhzwRizD5ULWWRJn7OFdEUmUJpIkRDCqFGjjHfKAtyatjgDyc8xOijtySJQpiUvQMBAaVGnJIAQZhCWJHOQdC3mIgaWdQCWs9YtD0BAQElBKwpkEYKhXDWFrzD0gE7Ag82AMdYnnHCCYRHIeNGNbBA6hzLX09aX/AAhZkRcT9o9+U/x1mpUUqx1zqQdvwwChLIfGP1sJs1xmjhNTdLUaztZsGB+IkBIaitdLVKsD4OA0Ae03lIAIWlRTvuA1VAuSwCBOC5FV7KAg7SPoV6/Z9GE8sdDrFXHkQYQ7HvO8n7r9Yz2eaL0L+WvNBDwhfePuo88AIEiRbfddpsxcoCMPAChJcYg6pxpbB3HYJBhEiksVeuWByBQXZKaGYTC3nzzTcMGcC80r+LnpK3aG6JLHJvu3btXgRlYoP79+5uy22nzr3iIITQygQbB67iauA2RYq3TJvH4ZRAgpAhbtNSyafcMQEhnEOJGaEkAhHp6M0kLUtbrsB8FaEgHWxYYhJYCCFnHS+eOvT8AAWGeFiCq5QtOCzEoqEtbnOMMWJHjanme8LF4q6QdEorR7w1GiLBJ3Aa7hSHD86YBE0K/1ggQsoxTvQECTAQGO61QEqFOtB9kuaAnQIiI8JDvnjENayI0cwWNAg2reFf8QU8F+0DFzLS5VDeA0IRIcbLIWo0shixzrJZ9WgQgJHnltdxs5dj4KziuIw6FkkyaY9dUBiHpfloCIIRDDHkNUd7xU6FR2sdrG7rvOkCo9Z0og0CbYxbfWrY0gABFjM7GZlDSWKQotsXWYujx4f3i9Bw2SLGvHQas9v81qwIQhaKf1stZGAQKPgFcqeGA8JKaCJyrARDECFOzAgTofkAEmS2ALQpaUeUQZoFQQ1jMyv5krFBsasiQIWWBNd06mYPoltLCkXUDCEGIIQwQ4rJJGiLF4itQiwCE4rdT+5ElAxCmiXiuNPX0uzn27Xtsud1z1qxbXfRQ89ezUFKeEEMUIxBevJMMP54WzWqgu6Ma8MR5lYQYtB1uVmBR+5vLfwYoT9L56hliiKLL847BkgQIxIV5t3jRmsnB35ohkyUjIf/IV44oen7AAEaJ+UlcG0GnAoS4LAYEqcS7Uf3TR4I4ObFvk5538y2JlRS1WVMtz9oSx9abQWDsoiophu8dg8+YMy5aGwNRMnoWql5SLtveGOc//elPRouFsBENCSW3KXxEthPzMG2rH0AIGISO7cXtvkUqc9EACGlvJv73bQ4glBkEk+YIQPhK+vbtYwDCWUEvhqzD1RIMQhJAIO+YjQUPuu/f//63qcCmBorfk4JI8RmoQFTGlMBlYx/oWj5CiplgIPj4idWid7Ab8KSxJsogXHDBBakfX9axbIn9ECnWEmLA82asbTFWFONi0+BZngMBGCGGJcEgkJuOpkUzGEhfo0YBsXm8bOYDz4RBAEigSmdukQJZr60WkIBhoT01IYUkBoE5j4qe90UJY0AYcxu1PV7w4bNmy0qXXRJbarkBEKrfNvMBoEXaNToZmAGABRUxSX1kTrGGMH/IaGKekdLKe7j//vsNY3XVVVeZtE0ystLSXbl6/QGCXWo5fjY3AELxL30ZAwhWNa24Z3YdKU2aKp7bJF5PshgqAIFmTUu7F0McQOADxTvio+SDQwkPdUc8kAWYj4tObfwMYw8wII6IIQDtQ7XSvx2x0eGHH24KHeFhk2dNWlFWI8eHv6wwCGkAgXGj/THdCBkzjCiUP4aImDfMAy18tSQxRWwYXwwWwIxNOwAi2rJLECd9cgAEjJmtQeCaaRRs1DnTQgws3MScec88L/MGlTlzgbbIpK7RepkOhqSoIezDuOK5MgZkPzAnybYAWBYNr6SBBH4PqMUYAVzYuBZpb1kAAlUQMVp4rTwP4A5GAYCAQO7Bn/5UNh56ezOAQAYSYYnvEkBgPuyyyy6xU5RxJ5RALwvGlLWHsALHUH6augb02+D/fDuwPKwxOFnMR6poMq+YO/w/CzhoEYCwZgdp6m43fYp+5AZA+M4AhKQAAeCBfEVXShOni9fkiheqpEi7ZzdCVR03fEuCQUAkhKcJKKAqGV4RBp3FD4MCaGBxBakTI6Q4zcCBA2XPPfc0Cz4LJsYPYIFHgJc4c+ZMI0CC/oO+JTbJgoAxIdabxiBoFsOyziAQH+UZAAV4zBTnAUDBxGAwGD9y0DFSjDH06nPPPWeq3fXq1cuMHx4rqWj8PmslzqgQQ1HDmwUg4PlpeWTmA+CGts30WWD+ELOnZgTMAiCTAjfQxDAJjAFAk/ujDDDgAoPAHxoyARqybFohlOJHpF4qKKMgGNX4MCbUPECxj4HhZ3kAAvfA/QLY0B7wzTA2FB2iANn6I0dKuwvOj2QQ6l1JMe37yROSSgsx8LzK/qS9hzxZDIA1AAKhGvQG9M3gWwC8AXABALAFgEyKIPE9ELJkHvF8zDHYH95v1q0eDIKxAFY3R3eHBkDIOv5F9lvGGAR9xAQmQRmEACBou+ceQYgBBsGWOJp/R5VTcHwPpyU0CHj2GChSh2jNi4dD+VHQO7F/4sl4oAACKphxHzSaQWmMsIjUJGKAqIdps0taErFH1RnwAT///PPGO2CBh1GglCqxxrTqjcogLCt1EJJCDCyYGEAYAtgGwAEGha6FjNvDDz9sSs3yDpSlYRFj8WRsAWGwDLyfG2+80dCxaePHdFrSAAGPUUMMGEtS0RTUwEAx1w477DDzDDBNLPy0S37xxRfLNTkYG1ofwzCwsfgzLsqk6JcHE0XIir8ZM7xMwCj9BjAsVOej8A7jx1yiwI6m0wFaRo8ebcAJRt4GCMxP/d4Q2iVlMXBdDBjn4R2aeY8GYeDvxZtSaffMfnRsVIBg6zKyLpa25ieP4c96HAABI2x3ptR74xzcP2FFnAJAVdI95AEIXIN5DjiASQpX/dTvgXvQ3/EzrsFcKdLHorrUsvZiyPomrP1cV0pkMazZQdwGg1BgALMfsgwCBEw6f6KDBUaDMIksBl+DsGDBV3JsoEEgxAAWyFoBXBesehZKgs4FINBdDg+IKmR4gKB0/RDZh0UXupt0I7wvEDwxP01fgkkgdxqgwP3RmMfeOJba9yzQXAtwkWWB45nbShYDz4L3jGHA+8ezpYIcoAGAgMaDhRfqlPEhn574NuPEO+FneNGANsAa4i0W8yTGiWPrDRAwpgCcqE1DDAoQMCbMFd478wnAMGLECNOpkfPAFkAJMz8YA7x5wATVDAGhsAjMRZgADHu4JwIMBWp25h3jyTkAIXj3AACEbIAHACZzFBaHBlIICgGt/B+jFwYIqkEgZJCW5sg4kFaHmh4Qw3UvWH0NWeHiPxgGQTbdtCzY5FoUSgLUoLQnbx/RLrqFtA1WhFRKehXAiOAtwyiF2aBweAW6Hq+fZwpngoSvmcQgMG68A6pk8hzaKyHuvvMChPB5OJ65jvA3CxBOG7/w7wEIWkmxpqqf5UqKPkBIW88bIYa8b6qy/zIIELj5+FCDn8UwNchiSC+U1HzoKuf2AcLBcscdQ+teSRGGAA+IxTVcbY/cYqheYtgs5sRbCQ1AD6tHRy139czw+vAuDBkSiBVZ9PkgCU2wyOE1axe2pOnSljQIPOfll19uvE2YFIwYFDegDE+W8cFzg6XBAADEABTsz8KNjkMNMwYWDxzDG7XZRqNeWQyck/cG7RsHEGA4AD+64KK54Hnw6PEOWZBhDUhlw/hjADA8MAgYMUAnMXxABcdyLrILAAiAIkJU4U0NIj0fYArw4jFesGCwLGoU+ZtxxeATNoOt0aqGcQABxg4GAUZBtyh9A5oE5jaai0ceeUTG7L2PLH/RhSJTporXuXMZDAOeYRAAhZyXBkNsUaA6/Jy33HKLGSvCVIwdIAP2Dg+asSO0R4gQsMX9amogwJ90ZgVSSd+bDRDsOUSfEcSCsIkAMcJDSeCUa+RJcwzfE9cmvKbvE1BS762uAOFJejE0NAj1fkfN5sU3X32SBsAy3IMjy61Q6c2e4YAW26XMIDR5RoMw36qk2BJZDHljyypSxBDxB4EWCwELLIsOCygxYhYwFm8Wfow/YACvh4WWymcsQvR8xyvDICAqYjGGDucaeHEYD2LT0L4YSLzitA+/rYQY1EhBrbOwIjLE0CLWAwAAtgBmAAQMKAsxY4bok3HEUEGVI+Bi4cfIoBMhc8Teot5/vQAC16H7YhJACDMIMCQwS4AZvEA8bAwcz0gXQfQXzC+AKSwAxo7nZFy4DsCAhRxABCiJ66oIUwGYYH/mMOfBSKLbMHUJgtLT6FkYM9gJDCzXIeQBQGADhBEiUKEbWRjMc9ictI1rcD6e4xTPk32fe04GH320zArYNNXuwK4ByHlOwApAhrAbTa6SNkAkLAVCVooDAaSYJ7AmAHDGB9DDmMPWaW8Vnpk5xhinaTiiQgzvvPOOAbZknOAQ4CgAQnhOdCXqDITvvVYGgRARIArGSdcJABDaHb6hWvuKFNcghELKMAgBQGgwCGlfSW2/X0YZhISHptTypGniLHalyRRKWmBKLbNIndW/fw1ZDMW7OdpGxC6UxEJN7jHsAMaeFCPYABTDeLl4KCzoLLgswJrCiEeBYcMQ4OHQeY3zsnggNCIGzXlZoDbccEMzBlDpUOqwFkkpbm2NQWCxRTkPAIMhYBGH+uZvxhTPkMUeo8RiyHgCylgQ0YgAEABhADZi9NDNSxIgZBEp2hoEACLzAqOIwecZYAswahgWdCg8E6Ayrtsk45MEEAhTwEwQRsCgII7l3BhhDD+GDADB/AXQatMqQBnMF2OpDAJ0P/00unbtau4HQMMchsVIYhD4HR4vYAzwseHoMdLl7j/L32+8UeYHLAH70JkQQws44fzMb1T6fANp/Q947wgr+cO9UwuA59QxxWgzp/jOAF+6YdBhfmBT+CbTGARbg8C5AbWEQgAjjBOaEcJdOBCEauI6PyqDAHBLymKIux+cE8KfAATum3dIyIh1g/eB4JVvKUuoMuoadQUIT00Wr6FBqM36Zzi6DQGEIIvBFWln0hzRIFQAQr46CL6MESeIEMPQobfLWmvlAwgsRCit+agBJ5raZac58rMpU6YY9TyLGAsYTACxS4wXixGgAUDAB8sCgHdLiqMKFfnoyFoA5SMcIpyAV0NsGS9SPTEWGYwEwruwXsF/Vsd8+C3NIORlXJLmcFqaox6L4UdLwIKLClu9WwwdAIHFPxwTZaFWj4n9MJh44vbCq+cJL5j1ZBDSejHAINhZDNwrmhNU6TwT8wIGhPkFLc8fDDI/g4liPmLktF4CY8acxfhhaMJiQQwXXjWAFJYFTQE6B+YulD9jCRiDSYDWJ0TB+aHMAV+EAwAspjyy45jQB8yDhhQIrYVDDFFzALYHFgDwAbsWrqTIuXkmYveAEkSXXJ/vgEwhGCWYO+4bIBMFlgAXMAcAQ1gHvlO+WRgPQBbn5JtkblEsSOcD4wCAB+wTz88DELhnhLTMKcJZ1CDgHnjPXBswFtcFtkiIgfWFNYg1g0wnQAJrECCP3wFQ+EYASzgbOB7hjqkZ7IzZpWUAAiG/KBK8IkVvaBCyvqHm+7UhgGDMnJkrpYlTxWmiF0NRBgGwgdH0agIIUJSECUD8eC182CxQSc2a6mFAVW2MZ5ImkgpPiZYGCEWnKosLQInFXJ8pCiBEjR9jjseLSE2BGveh3h+Luf1zPCcEiRheNowbDAw0cpbujLU2a7KBR1aAoNoIgCVFmgA4AEYAA6AAkKTdDwGbhAagtzEAahy5Ln/4PQYDgGB37mMsAL3Q+hgswCjvhWvwbgAEgCgMFQCB+0DzgDHFoEPvAzweeOABk3qqAAEQoYI+QEcWkSJgF+YAKh82IKnUMp48QAkNCoaPzBfesdLohBBsBkDnKOJH5gxjwHvA2AOemCsALlIEEbXyO4w4AmJAJeMMcIF5ADikAYSkZk2ERXgPgAZYhKStSIiBdYmwDqEM1gu0Dsxz3i3MFAALdo13DJgjfKLhobzfcr0BgjTaPed9Bbn3b/UAIbfBJMQwYao4pllTcwaBEcoqunCckqFib7/9tnJXvrSCMPYbYDHBm8Dj4t/QdywGGo9dUu2e884KFtTWluZIqAAtBQsy7wSgkJVBYOGEymbcCb+wwGFAWcgxGnjAeEv8mwWd8A7vCjoXb5t3Tqgn68JYK4Ngz/msAEHrIGgKIM+DMUSUh7cOWFADgEcNLY5R13i2DST5OSAWw8uY21U4OT9/ojxuQBRGBIaK8zO+WoOCe8B4YnTIksHo1AIQYILQLXCfJnRwy5DYUstkPGAAeYcwKxhyDDyaAsATWp0o4AfAZw7A1uFlk+kBWEAYScgChoDaJTALfOOAHOYYG38DKBB61gIQSEWFIYF50fLHce+gCINA+JH3zVoEO8m3RQgI8AQIBCQxvghRYRFgp4pmONSv3bMr7cZNFlkjTaToZ7x57kJpWvxl3mWwsT+j19ZEihLUQQgzCIQY8qY58mHgedJMJso4ZAUvGgOFemVhA5W3VLvnesxqraTIgl8k3ph1XLLeK+fDAybmrKmeGHCMF3Roll4MLHAs9oRnoEpZTDEOLJDE3Hk3aEGgktnwrBCfYYDQh2BIWUgZD4RnSeNSC0DAy8KgEZPHY8wrUkwbU8YAA4dQME50xj0QOiAEgZEAIGSZB1Glq+37YZxhC/CIYQp4r3xf/IwQQ5ZmTZwPRgiWgXeqzE9pyK0iAwfEFkrSSop5GDXeN9ciTAc7wrggVIVV4A9AB9DF2ODpkwUCIOAaZEBQZ4D3l1RBM61QEmOGpoEaKepQkD2i4TF7fIsAhPD7gfngGWCYEJAqkINlQB+iadZZ5kN4LmoWA2OpgDZtvkb+XgslJWoQNB2ehLYGQCg0zm0SIMAgmG6OWgdhvhEp2hqEJANm/45/Y8hZ8EG/YfYg/JHY1HD4PKQu8jOMLjFYBQj1NqZFJoL9XDwrdCnedFSuMuxLh8WL5ehPPpEH11lH5iy3XLNLxo1TnsVZT2qfi+MRsCEWgwEgJ5/0vDSAwHGEE4ixYhwBbAA+jAseLgsvHjZxeQWCLMAPPfSQEbmxH78n7k7RJUBESwEEgBBzBOOEF0qoIy6Lgefi2W0NAuOWNKeg9zGssER2WCX8EvNU8Ms65xgzKoQilETsFmYQAAhZ6iBgtDFYaBB0a+lujlSWhH6HNYCBYX5o7QbDSgb9LhR0EYqBVcDzT/K4o9Icw+/P/gaYH4TEMNS8+zBAyNqsKeqd8c4Jt8C2ABDI3CG0wf0DUNDfwEoV3YqHGEJXNABhivghBq2kGJf6rgzCvKK3/Z0+bhliEAIRYlqAIGAQfIBQHWLQUrlZAYI9M8JeQPgccefk58Q78ZRA5HhKdoihNQAE+zmh16G1od0xvrr4lRdix5H2H38sv7jySnn2pJPloy2ru6lFgaQkYKCGNryPbYD1d/xNahreGjnmgBjo1zSAkOULj3sPgAmMEWI+egBAN6cpudMYhKS5wnOjeSAFFoEaegCMQVQdBAUIUN/sl8WrQwtA9gzCWU1HjHsHWcatln24fwALzwbw4/9ZNQjh6yYxCFp7IS5rI+szqIYjy/6EePjmEW3CWMUZZA0hkbkQtYXBNmsJ8x0QT0Ere+PdataFevpJ96rntucjwJRxQogZNZ9YB2EqVOicZc7pPdQNIDQRYpgiXscO4pdaxm2Jr67bEClmmbHR+yxDACHjQ0aEGFBF77TzzuVa+vUwylnPAeInp5kPCc8QsRT0OAwCH1meDyzjCJR3y3qP9nk5RnsxYKQi6dG335ZSjx7iPfigeD17ZrqtqHvJe38sXmRnAGLIvachETHlegCETA+RcSdbpAhDwaYMFO8b9gNwo6mr/A2VrL0G+BsNCBX5oPlRkRPyiAJapBESAtDOjVwrDpDZxsYGBVEAIQqgZXz8TLtxfgwRHinGET1BLQChpRmEqIdKmr+8b4AYgsi48CQhCFJS2RR06jnXn/mxzFljTfkm6Fmh7w72hO8AbUkY4HEeNE9kLyUBBOYfDAehMlgBrsn9AoZhyjhvFDvKz+hTwjqGk6PNz3RswmAmPGZ1AwhBqWXHNGvSLAa7gH71lRsAIdMnGblTGwEISi9ZWQwwCBRKml8JMWg3x7yGqfjwioljQ0mjO4BatesgtKRIkQ+eLY7e5GNlHMLGhP9DP6M+TwMI8uCD4hYACNxb1OKW5u2Qn014hvguIqqsIsVa3p8em2fOIGhTqhftAgAAJT8L8Grz5snKX8yVyZ5bBgScm/fBuEBRY1C07j4LMgsx7yRKM0CKK8aF38WBTZvVqXUssoxDln3C98ExWUMMPCeCQ01RNKAoQaS4JJs15RlfngMGQful2Meu8dOfyrfbbC3zbx5ifsy+Kh4lxBAu2MU+rHWEm6iGiG4mamM9IlSCxgR9AaJddBSETAijoOuhpLS2kddzoK9gHrN+AUoRdbJ+oc8iLKRVJJOePwogJLXfiz1XudTy6kGIIVl23gAIeWZl9b5tCCCYz8hkLzgTp4tDTDAIMfTt18+ojZc0QACpY2QxDMQa8fTsOggou/kwYRlYJO7V/coAACAASURBVDQ3nCfRvHRdONWA2DFAfsa5WTzUI4OVwGigPmZBQXWNmtr2EvnIEVmxELBAQIHav8/KINgAIc0oqHeB909qGjnkeShfjgMQEBtFaQ3AWBIAIe25oj49RGQs1Iwtnj3vRD2zHo+OkPU+/0KmXHGFeQaoXDJb+KNtqLXYEKpxFmOoak25LP6pt/4jszIIMCwYMoSc1DJIAwhFQgxp3nC9RlM1CBh9G+CVttpKpM8x4p77O//5HMdkEcA8kmVgZ5bo79HkAEzj2j1zDjQgAAQyLwh5ch5YTdYhjDwtzdGoIEhU9ovzUzAJgMCYI7wEpFN5ERaPdS5LCrANEDanPXnRQbR6MUS3e65mExoAoehAt5kshkoDp5LriUycIY7nVgBCEGJY0gCBDxYVPOp4Plw+UJtBAJUDIDASqOjZB+RPHX3EdMT6QPecg32JSfPx60Ki/1fRHQYHgRFxSq6N+hoaE4TPx8x1OB+eKkYaYMDHTXlhvFRlFFKbNQUhBgUI6BUQbqGA5l5ISSRDgOprUMd4z4AO7p37Ij+e2DOeb5aN56UYDddh4VJPekkAhCz3F96HEAPPCFDQRVbfWenUU0XefkvcceMTTw2QhMaFQSBEFteLIekkRcBNkedVA5U3XBY2wlkYBDIlKFykhk77E9STQeAaAGhSagHRGEa+H4wnc495CKCz2TmMNz/XrpSMCd+ZAvy4cY3LYih17SZy5BHinnuuOZSxIqOEkJp2fgwzQ1oHIQkgcC6+RxyH+++/39RysOcJ3zEhUJ4bMALrye/J3oDVQqyIzgHxIu+L71l7gdhFyKKeNwkg5GISqto9hwslhZv5IVL8RpoWzy86tb/Tx7UhBsHv8FjpxeCaEIOWWtY0x+gekC0zB/ioWehZTBTx2wwCYQcMPzE9PGQWC4ws8UF+zkIA1Ud5X1A/H6OmHhKLpJwruct8wIQxWLAwzhhfFiq8ba6Bx4GxpooibAWLAIAAgR+0PTnrKPaJa3KuvAwCHhoFcvAm0FtgIKEviaMTD9W6AijyYUkwnjAcPA+LGh4h48L9acvq8BvhXBxr56svSYAQNrb6f1gaZYD0Z0kixSwAgXEhHZEwD7UIWKzjAAJzjDG0tSJRmgI1MnZIKUl7YBufsCHS5wyHp9TgR2kdor4w5iEFijBCCjLSRIpkBgCgMU6a4WGuV8cQA++Pb4/qmaj60YEwZ+lnAYNHNUE8atJQoeqJ4wMoCAPhXSMeJGuG/WHvksoe270Y7DmGxkd230Pcyy8rAwS+a84d14kya6Ek9mOc+WZVHMpFmEPUXQCAAUQARpRxZ6xxIhDCsj5RUlubRzH23BffvvaLiFtNDUDod5ycN2CAdOlCu+dcsKByWgDCOEottxdvh80tJsIKNVs/XbjwK5k37zPxClMWLWMfloWztiGAwNtHg+BJu4nTRJrQIHSVeQsWGA/MAISzzvK976Cs8NJ4QcogkJetSmQMORtFZqD9iCViWPHyNRUNIR5xRxYqPlxEa4ADjC+1AQihsLEwsbBBS+MBARg4P+I+Pm6MGf/HEyBNjPgsHgEfN5Q4H3FqoaQQg0BcE+8BYIHoCg8GYw+AAaDxMxYV7h9gA6VJ+hf50KR/YhChNwENSZUKw0Y6CiDwfLxjgEYeD5p9tWQwQMTeOJ+WvmY/9QzJbmBxZMHl2ZhnHIu3yXsC6Nk0LefMAhAAbHh3gAQMUFK7Z8JJvD/ee5QHbxvzNA8/abxs469jEwYIaUyCfX2OZf5ibAkZmbEplYzhYhzDJZ75PXOFUAtgGMPK+MCSmRbMdQQIGEnYGwAz74GsGeY04ByAQF0CshOYa9wn9wPzB81O3wK+bdJj+YYBElrgKGq9iWMQHCowbryxeLffnnmZygIQeAcwjDgH3DNrBMfxB9aSuUYaMQ4D4RuejbUF0ADbAPPA98x6AqPC+Vg7eF70QUkpnU1Nnhx/XD85b8B5Vh2EAiABkSKFkqoAgn2e6oyGefPmyyefzhSnARAyz6XyN942CiVFiBSbaNZEN8cKQNA0x9yjlPOApIUWTxkKD6+eRQdDrh4GHyT3iMeCceHDUxoPg0sVM0IIxAj5GDWNCoOioiJiiYAMYrScl8UM0RKlb/F4CEtQIQ66kNg4gAC2gdr02kAnL4PA/XJ+aEiuRa446m0WV4RPgBmMACWnuU8YBxYgKEyYFTwtQi177LFHLl0C44iHpvnglAfmmgjYGEeAFgsWC5u9EVbB88ewYKQItbDwIxgD0FDERbUe7MuY4lWyoAIEqMDH2EL5kgrKQglTw894fgwZlRuLAgSU6Bh+ABtGMKmbI8CFZ4ZlSBO9agqbPluUx59lqodDAwC8uP4AfAvMMRgxhKVobRRYYFCZ18xjpeLjAALPCYCmlgXvk3cNu6KNyeTmW2IrKebVIADK+D7ZANt8sxh6skkozEXBLow/48AzcG+AB21tTVMjQAIpuXwXUUBKxzk2xEDa49ffiDtmdJZXYvbJAhCYy7AivA++d9gbNeqk8TL3cRBwTnhG1g8avNHQDKCDUwEw59kYD74PwALnAEQkPWt0FkMxgNDuKQBCB6l0c7R1B9UAwW1aKIu/pQ5CAyFknkzBjq2GQYieJlknj78fpZFp0mT3YlCAAApm8V7amx1iwIhg9Fno8OQxBoACjD+eCEIgPjjSpRD1gezxvgEW/OEDR8SGgdA0MTQHeOvoCFhEoTzJq8eQ8hGzCPDRw6jwc2Kq0IgYGO12lxcg0MAHrwKvigWTe2GhZ/GDqiW8gacFaMHD5ufcMwspqXxQlyz07Ae4ybIxLnhBABHGBmPM+GGsAT7cg7YV5r0DTjBOAKPHH3/caDM4jusxRhRAgonBE8Lrx5jyXBg1/s074j0AJmAQMBiAEMYaYMP70w5+6DBqYRBsTzytkiKLLg18eBb1xO3xA6ygY4A94p7xuJPGmAWfucd4hLMmMIg2U8FYwmARVgKkci+Ei+goyXzC+ADCAF2kMmJI+A45D394f8xH3g9zL0mDwJgzb5j/zGXAJePNuzHsWQJA0CwGzgGjRngtydMFQMNwkUrLNRV8AQRgvbgu3ygboICfYVRhrRgHDCrH8P2mqft5J+goNN2x7Lkd/xtxpvxT3BmvZPkcqgBCnAZBT0SNBu4TsIC2h/eoAlnYEtYDQgYwDcxvABxOAOMGYIL5ZBzRA/HM/B4WKy5zQq/rA4TjzZrlV1IMWN+8htsSKVIHwTOtxe1zVdfM8SspNjQImSeStWOrAQhFbr5yjAUkPJF2E6eL57qmUJINEEyIobYLpR5tU7rktkNXYrSgK9kUILDw8yGz0EBJ40EjRmQh5WPjA+LDYyHlHOyLAcYIYkhZVBFGQdGC7lmQML4s7nzgGARitCyeAAIWPT5mFkZoRbwxUpRYKPCIQf94x0U0CCwkFC7CULCIwiBwH+plE1aBoQA8sEhgiLk3ngexE8/JzzHiSXSsPfg2QAAkMJ4YbJ4BI4bB5PnYD9CFwcPjIbRCNz8ACgsc+6hXRByZRkQ8B96YggdYD54Jw4/gFACCLoSFErEcwAPWgoJFLH6wNIA/2JMiIQb7OdN6MTBusBi8T8bY3jDWeLCUMuYZWfTxpnlXjBGUshpc7pO5xrsC1DEvmFP2BqDEoHBeDArAiD8wOIAuAAWAgXfBGNDHAqoeI4mhARCwPxvXYr7zO4Ai8zJNpGin7mK8AbIqUsxSKIlnY5ww+uE0Pvs5YRBgtZif7KuiU+YH40KIDhaP51XRLQCBe1H9CWPIs6f1LYgNMZxzjpTuvluaZs1KXXN0hzyllpn/lPSGKbF1P3wbvD+yHLTkNk4MQI/wAt8EaxDHc++sLXz/jFValUXX9eQ4QgxlgJD50XxmAmBJILlJQwxxDEKlzLKZa41Sy9kHOrRnGwEI1lNRgGXCdDOZ3J6EGOaXNQhnnXmmL1RRNqrwsGU7kAWVj4EPl48Lo80ix8IITQf1jsGiMx2GBy+ahZsPjzgs9DteLMIk6HQWNYwRAiL11FiIWWT5gAAIeFSolAEkgAi8A0AEjAK/A4wAIFi8VM/Axw3YYPHD+OVlEFjstdMiI0NsFoMJNc4Cyf9hMxBX8XwII3k+BGf8m7AJRo59tXpjlhFmDPHwWZTpZshYY2QQsWGwWPw05IIhhAbGUALSMGqMCWCJhZ4FH+oYRoNxYOEn9MK7gFbGsAAyyDTRngN4klCxyk5hEDlXrSLFegAEmABADe+b98vYwo4AFAEIGAHAGYs6QIBxYY5yHOwP4aJwq2LGECOJVoPnRmDIeRgnNZCajksWC+dgfvKe+QOAUr0NcwYgTGiC+akAIUmDYI8LmTkAP47nGZtuukm2GzFCvClTxOvcuQxCmAOAIv5G/8L18dqT2jDjRcN2MD4YT56FbxiQjrEE0CDaY+7BzsAgoJ9hnvNv5hxjBBCm8mZaiAFgoZkJ+ozOpZeKc+ll4n7ztUhEOfOo7yMti8E+hjAWc5s5bKdMIhzl+QBJgAJNYUSUqFonvjucH0I9hHxYT6K6YYbvsakJBqGf0TVUejFkZYkrksZ0gMCVG70Ysqyhafu0IoBgoz6seJqvH1M5i3bPE6b5vRgiujkafJBJpJh94sYNMosgiwuFczC6CPAwzLAFGBoMGp4oiyKLHR8dhp1jWDCJKUPBYsiJcXM8+7MvhpyFnf1gKFicOI7faf0FDBpGgYUYGp99OQ4jDahggeBneP148YQBMBR5AULU8yeNMfeHIWVBQ6nPYgQNjJEHNGXdWKgARTAsGCqAE88GAOPZYRSUTYDR4Pnw+hkrnhMGgedmMYeFYfxhNjB23BueN0YOVoN3ALhjMWU/gB1jh8fFs5CyiVFB54HBwmPGu1pSDALPAf2rG9fmvTMmAALmDmmXhGIYNzxBnhFDS2474Rg0FTwz85HzAWjLBsvQuGLmCkwQ4S7GBjaL0AbgCA8doAgQBJzyTtiPcABjAgODmFU3vgPGDjV9XoCAWBF2hDAG7+Y3CxfJgf/8R7NmTQADQh48H8CQMWLewzrFbbBIzCHmpTIU6FkYDwAD85T3zHgxn7gH5hrzie+N0ALziDnNdw74Dwtf9dqxDMJ1fxTnvAHizvlMpEP7TJ9EFg2CfpcAOUAwa4wNYPiWFCDgXPA7gCHvD4DHz1iLAIgYed4Bf2epaVIJMdjNmrKus9Z+GmIISi1HWwrCDP7WYBAyTZ/InVoRQMjzEPryI4AEAIEsBtcTjxDDV1/JCSecKGut1VH2+fneAbBsTiE0V3hnnbjp981HxseL9wFLgFFk8WYRgdpn0WExYrGloA4GFGPExxhVPc8WienHrXFd6HEWaKWboXxhKED4LHacn3Nj5Iir64YHjaYBb7AeACF9VCp7cO945TxruABM0nkwdHjALOjcMx4N52FRJn0LloD/Q/fDZqA7gGZnXBkfPFc8PhZ8fgYTAPPAuVgUGQuEWhh/PE+8QRgOxg2NA2MGw8O7xMjhceFl4TXXqkHQ584SYgCswHBg/Hi3eMB4htD53AvPDXvCWBD2IN7NGBGGwXhh9Ll/hGech1AAwAKQY2+cG3YFg4+BJmQDo4WRwDsHWPB/mDOAE8aHceBcGB7Gi29AjRTPhtHmG+A98nOAC+/LBidRcwDjxjsFCBH2GLPPvtJp8A2y6KWXygwCoIP7VQ0C1+K9KysUdV7uAe+aEANjZrfDhjWAekdLg9cMe8E7Z6wBggBEQChjCjAFlPDMfJPMx6gskliAMGSIOGecLt5//itep3UyfU55AELcCZn3ZCXxDHEbz8G1GH++2WwOl59GyVzxQwx2ieSczmC5DsLq4u5AumTUpjbClUahpEzTpy0BhHAxDOvZghADFRWbenUV1/MMqod2RpegDIKWGjYI00qQdegfLpQgNr8R8RzR/BjfMKsAxj8u/HHYBtvWI7BQ8/HhbbF44tmw+PCRpaWf5Xm90JsADjwWPW+aWp37BJSw8cErQMBoRN5bKM0xz/3Vc18AAuPHeGLI0TDwXjE8eLMs3DAHGEQWdRZ8aHcAAT/DCGBUAQkwCMrEcDwhErxpvG+ABxkmeLxau54xg2kg1ZF3icEiDIQxpA7+0mIQ8HRp1wu4wYBj/BHcMR6AU7JH8Oy5Z8IpeH6MGR417xuGCePH89ntvvk/hoNnBCRh8PGcCQ+hZVCxIT/XrBWMPfMQ8ABLw1gy5hhugCsgg/vCM1UPFHBDKE3FfWnGB7Ec5z53pZWl9z9ekqsPO0w+DbxiwliAR81igGEDIMB8cM24LapqKftyHUIKMC6EzPg/TBVASAWcAFxdA2CquD8AZW4GYdid4px8knjvvifehn6diLQtT4gh7Vx5f5/2njif64pJc/ydAQhxhj0StgU/DIBEGSCE6yBE33UDIOR9m5X9l1EGIeGBFSCYUsvE/yATqtXX2YarfgwCHhULK/Fu4rzQr9ruOelebLCR7Z6tF5spjNL8rCpSxOvEw27tAAFjQhwUD47wDfoLwA7gAAOB8UJISOgFAw9LQhgHYRX0MEYUyhxjSRyZY6CXGQfod4wtoAAGAe8HEAIIUwNBTB8mCANHTQRV12tmxZIKMahIUcNaeLcYX67PvWE8UNzDcKAjwAjyDLxnDBwxeY7heMYOgIRnru8f9gEaHXaK8eFYQhaMLSANUArwAADDBjDPuS4ABS8fxoJxZqwwoqRxqqAT71oFbrwHABzx/bSNe0Rox3fVY/oM6fnM03LHiSfKnI4dzaHcCzF1BQiwZgA3xgq2oyW3LAaT68cyCHffLQ7i3X//WyTQVKTdr80gkFFQT8cj7dpZfg8DRejqvN+dJ1021zbNWY6sXotLTa4448LtnuPP0wAIWcY4ep9lGCDYk8augxAUSoJB6NmtRkFiOBSRRoU1H2Q+Uo2DIo7Cw9Nujml568Vfa/Eji2QxFL9abUdqoSRy6TFmpG9BcWP4MY6MN54bDAEhFu2eh7HDi8RrxmBAQ2O08K7x/ompKkOAp8l+nBPvGIYF44qmA8OE+I6wBIYY0SP/xvNmISxaB8EeFdgMDDC0f9SmWQxhDQKCS6htKH30ATBYAFOYDtgUwADPiBHn3zAHjB8hE1gXKHLGVCs0MmawcGQPMMZsADGMNDF3jgGEwR7gZXPPmj5H6IxxJdwAcwMIYxyJZRNag4rX+ghk8bBPWoiB6zO+fFsAs+VvHyrtLjhfvn35H+L92Bcp8mxcQ0WK3CtiQNgJ5kZr2GIBwl/+Ik7fY8V99VURQ8enb1lCDOlnqe8eNlDKDxDgc00Ce6BJ89df2OGSqYOwmrhUUkwRnTcAQvF32kYAgg6AIyVqKU+aIo4rZQbBNut2xixHpZv8cI5tvsFGmMXijnKXhVILJbEoftcBQlYvK2rEAV4ALYw3WgMWR7xZPFxy/Tk3HiOGSA0aP8PrxRBCf3MOPH7CDGgzkjboaeLP5IIjWsSo8m4JM3B99B0q0oNhWJIaBCh/GyDwnAAD7o24OIaazArCK4AF7p0sGA2zaSoelDiGGeqc39sMQtzYcC0AFuMDEGNMtdKkMmAYagAHQAIdB94tP+P+yBQg1Zd3lFZJsfyVO45hJgASMDoAnyyVFAE0gErAEGxHa9hi6yA88IA4fY4Rb/oM8bbcMtOttkaAYN94dKGkpEeLYXHLdRDai0u7ZxMJri6OZJ+1ARAyTZ/InZZhgBD1PMQTEClOLac5BuLrMhCoAgiBxCBxigYIIg2lxp2DRQk6mzgkCyB0OLFePC1VSBtUrDea4V3aIsW43bPsEzmCjmO8YBaberZ7jrtWURqU41jsSUHEQBcdP4yZFohKGnq9T/s6/IxFL5zrXmupZfs+sjIIKlLU+6RYD7oM2BAAAkJLGBDYDcSLzEvdlzHQ2gYwIcTtAbJQ9EnvRwEexp8tTWAaHmvmGSAB5gGmJytA4FqEjgB5hIXQBNiFkmTTTcvFmJRBAJBzv3x/hJmS6iBk+ATrtovdi8E+qfPQQ+Ic/Wvxpk4Tb+utM13ProMACANEEd7kHfL+tWx7LWsDY2j3/bDXLuaUfgu2iFHnUH6AYM4ePLvlyrmeUEnR64gGga6QCaJ1k8WwSJoWU0mxseUdgTYEEALxIL0YJkwVzxXxenX1gUGM8U1TGZTBRAYgkTbwfFh8rCzQM2bMMF5uVIZCFfINRJD8LM5ApYGLNIFi+Hp84HiDFBBSDUIzT78ViBTDDIIa7ry6jajFshZmg/GMqoOg58zSiyEMEJJ6McQVSqL4FUBU8/J5r8TjtbNo0nzlnPxJm59pcz7t94iHCfUgitV211nrIABgYB9gaowwMKEXQ95Sy2n3Xc/fxzIIjzwizlFHiTd5snjbbJPpkmGRIvoMQCLjQ5orjAuZOggnYbsQTVNyGW0NwJAQDCmhiEoJ9bDBJqEvYQ6SAYQoE3DFfGJO4/yQxk0zNZg5snsIIfFeYaT4P6nZMFcARK5VXQch7dF8QbojvsCczdcgTBapSnOsrp5Yta41AELaIMf+vpUBhDSTneE5A5EiJZcBCGaLAwiW4beTFuyrpN1RHoMEwsbzgbrF+MYpm8NPaRss+3rhf9venh6TZuzC+/F/FgJizjAIdiZE+b5aAUDgXuxmTUl52HHgyn72tJkVHlvd3wZgCtYAgKTqIc4Lt7RuKYCAmJLaDroRbiHsAJ3O4oz2hbLLANSoksxpz1/r76PmIaWr+Q5gERintEqK4XtQ9sa8g2UUIMRqEB57TJwjjhCPtM1u3TINfzjEgBiVAmiEYABJZJCQScKYY6wJcZKFAgMHQINlAayRAUPqLnMI7Q2aDdYshKaMOXoe5hohU65BIS5SZAkTARgIa1FLgXOyjrDmEV5iHlbSHNNFimZ9M5nsNNirFFMWKik+9U+RtTqIu8MW4tdXbIQYMk2SnDu1MoCQ8+7Lu1doKNPueeJUI2QhzdEsTBGnjTL8aWCg6N3Zx4HICS8gFLNDDPU4d73OgZCND1vLQ7dGBoFsBRY2PBsWnta0oUFAJIjeodYshrReDBhHMhPItGDB1o2FnDFifFio8ebUw9Pc/qU9ZtT3x9PEi0YDkgcghOfksgwQAHEwIVWOyahR4hx6qHjPPy9e9+6ZXlWYQaAGAyCMrBQ2DDdzgGwWQi8IbTXsoC3ZWZfQ9RC6QXOjPV5gFWEWAAkcz3kJYwAKAMQAAEAH84z5hUCW8B8CYopjUdQN0JAHIBjAHYgUfQeukuZoRIowCN1p96wAIbrAXiPEkGn6RO7URgBCpSgGk8iUWoYm7bVdjVkMxQc27kgWdLw5u6td/a/SwmdcSgyCbRSgR4mpa/w7a1w1igmIYhiKjCDnwcjhReGNARDC4seWYBDw9qB4l+aWdfzte4RRo9YEmQVZejFUGdBQGm8WkWKWan9LYgyZxxhz9BBkf8CeNGtvTY2Kgw4U75kJ4u2yS6bbCjMIZJ3AIJBeykaIiRRVrkeJc0JIZJzgEFArgzAEAAEggGGH3QB4IsYlbRVNA2ELAA3F3jgX/6aBGR0idXxZ32CFEAwTMgIgAFJhJHMDhDLLW5J2novEzKzthkHouEbQzVEBgvlls7FqAIRM06ctA4SK71/NINSa5lh8YOOOTKP863/FFjjjUgIISU8SNvJR4Zak4/O+l6TQEp47izJelHpoeu16AwSek0qZeHj8Oy7MpNcPG/IoEWKW8FRYrKnnjwrbhMMw9nsgC0HbcWdhELSfCPS43dhrWQAIjAPaCd4X6Z08C/OEUCMVGasA0Lhx4uy/n3hPjRNvt90yfcThZk1cx65eid4AfQDXovomab8whWwAFSpaAgRgdkhn5XjCC7BRZAxRkIz7psw0906ID80C7wIRtooXmQOABMAxBbRg02Av6CBbBCAQIvZb6AQMggkxTBZZa3VpKldSjBcqNgBCpunTlgFCeXkSx3XFmThDHNBmz26pObLFh+47fGQrBAit7W2wWEZ5rPUGCK3tuWu5nywAgd4OCC+Jq2PsysBryK0iAwdE9mLQOghLk0EgS4R7h1miKBSsCULgWB3SM89Iad99xRs7VrxevTINaxggAAjQnMAOIFSEcSPlGqCCZgAQQIEsjkN3QDYJYSrYARgERKAUrUK8iG6Fn5MWTE0LWAd0NoQb0LpwPAwD4AB2FK0DomzCbQADqnMWy2Jo/ugVkWJ7vw6C2SW+um4DIGSaPq0dINSiAKgkL/oAgW6OPkCIEygWH7LGkfIdAAh5xKd5mImWAgi2R98SM7RICCHLfahRge5OAwio5fFE6ZVAxUUo7DJzlCBS1F4MSxogYBC1GRneN7F5DDPeO9R84vbMBCntu09ugIBGgBLW6AMoekVDKcIGeP2kzFIBk1oetGyGSSC0o31HOHafffYxIQXCB2gIyEDg3jkX4wcQICxE7QuKb/F8e+21lwkzcBy1RyguRgEr3hVhJEJg6CBgi/IyCFFjVAYIa4bbPUdXtWkAhCxfYvQ+bUSDUAEIFEpCpMjC4fbs2gAIxedG/JHfAYDQEsPGOVsCIODhkbqm/TTse49Lc7VDMlEhgHCogP9rYaUozYb9+7jrGz8v0A5gbAAF1IzA48SbTQIIiOgQ8lHXgf4XdBOEvi7fJwBh4O+r2j1zPQyVDRDyhpKKzgPEyHjuxOIR6OG50wsjrVaEXs8ZOVIcinmNGiXe3ntnuo0wg8CYUSkUb59URdrGw2Qw7gAGwgvaYp7fkxIJiAG0ARwYa0AAWQvoCGABmGcwIJwHYSIdLMmO0TADwmuAAGwEQkieHRaDDXE2Jcj9Zk3pWQxxDx0NEOKHqAEQMk2ftswgVJ6N7AUYBEIMfi+G6CyG4kPWOPK7wCDU+pbjDFFLAASoYFLNWIzDTILt+Yf1BvY9RqW7ZhmDJGYhjXXAUGFsoLGJcccBBO6NNDtKYaOwB1RgmNB3oLLHe2266SZZ6dJLmoUYMFIABCpLItKj4RQiYmBPdAAAIABJREFUPXpwIJyr5waAwijDblAGmvPjkVOYCgGgvTXLwpjxiq/G33wLkRVXFHnpRXHuuku8P/5RpH3+ds8wCAgQEQ9q06wePXoYoEJYgDABLAY6BN4B48u/YRiYR4wp4wRYANQAHAjV8IfngllgH0IIAFRCJezHO+T/MAaEgtgXfQMsBhkr1OaoFSA4aBAi6yA0FyiaMXcXyeJGoaRCU72NMAiVZy8ZgDDDhBiaesanORYarcZB/gg0GITCM6HeAAFDQ5ojXiJx3zganfQ2fofnqJ580kNEAYs8YYw0cKDXxmBwTzTaYkMkh7YgrOrH2FHcBwEd9LgyFninpNYhUjz27TdjAQLdODGWXAtgQvy/f//+ud5jM6Me1FfhWRl/2AL+YDjRSBDP1yZUaRcqde0m8tqrIocfIe7dfxZp1y7tkGa/VwaBplpkH5Dhg3gVEKUbWQ08P8wBLEGYScp90YwHACQAEdTrADjUhUHo2EGadlAmonmI2tEquF4DIGR8Tc12a0UAIaKkZuansrMYPHEmTRNp8sTt1c3Pow0+5Hwqh3x7Z77VtrBjAyAUfostARDIlsBA4bVhxPD68GQxnHRFxCCwD5Sy5sTrA7AvRkJrI5DLzj5U+kRIF5XlYD88cWeoZihoW4kfxaBwP4QG8Ki1ciIGHqU8DALHxAEEvSbxcrxySktT1Y8MCADF0XO/lMNfmR4JEPB6MUiI9sgawFPmujAStbAIPA9FgCgsBjOBJgKNAcY3nL2SOmHeeVecl14QWWdd8fbas1BoNE8vhiIam1rDM81FivnWfAw+Je+VQfACDULa2DZCDGkjFP/7VgIQVIGqNxpDFcU+R0XB6jMI00281OsVVCBTgFCHksnFh7oNHdkACIVfZksABGK7AASKKuFl83/6KaBJoKwtRpeKeHhxdJ/UdEiEZ6jqAQXEhlG043GSuw4lT+xZAQLnwgBhJAACGkvHMCJGo6iOshdcBxobo2wbSs4NMwDtT6iA/anqR8EeRHFZejEAaKjiB3hBtwAlzvM9uvsesvk9d1dpELh37cWA8WZfnos0VMR7aARSxYIRb5q1hVoX9LugpDXli/GMKdgFGEsDVYUnT8qBcQAhKnyUlHraUvfnumKKm5111pnSpctmuS9TZgTof2K1e04DLg2AkHuoywe0EoDA/dg9O9N7LFY/soVEPZo1wSBQKKkBEIpPjYQjGwCh8LC2FEDAOOD5P/bYY6Zr44477miqOKIyJ15vAwQMHP0iiAXjhSMsg7pHx4D4jJr9Kq7jQdkf1TreP8AAo0+tfjz5mTNnGm+e6yqdDo0NEKGKI4AAlTvHAF4UIKCQZ2EHIMAgABD4/4EHHmiq9aGWtzc1aDAIqOjJ2SeOzn1x7cd79pLvXXqxDxCCds8KENAgkIpHOAPtAQCGYkCwCVlDANwLQAqQwfUAYIAOul/SLKoWJqLwZAodqCGGI484QralgVV5oz5GvoZw9bon+zwAhCFDbjFs0Y9+tEnuS/jVFB3xvKZysybSHP0tnvFtAITcQ93aAEL96HwKJZUmTRUvAiAUH6bGkVUj0AAIhSdESwEEZRAeeOABUx+flDaMNMYXIIBBxSiSx47Bx9gPGjTIMAjsg0dO4ZttttlGjjrqKAMQtNQ2DwstT+U/DDvV9Agr4D2jXodWv//++w0ToBvxbwzp4MGDDUBAHwGDsO+++5prch0FCBg2NAFs7E9DKdiLqI17R49A6ATlPVkKGOp+X31tGIRnr79e5q+3XvlQGkKResd+ZD/wXIRTYFbQCsRttlcKewLQgjGgUBDxffQLP/zhD2M1H1nOa+/j/N//SWn//cU9+GDxzj1XZOWVc88xZRBgN2BjTNYJf0rtyvVgwlktSVkuUZ55UmginPli7LnVcI7/c18wXD17UtshryPoA4FSU5Np1uSu1V687RUgxA9XAyDknkqtDSAUf4DwkaaS4qSp4jTRi6H1VVKs35MuxTM1AELhwW9pgIBHDxjAKCJOQ/xHlTv6HeBJ33PPPYYGh6qHbidEgDFGeY9OgeqEFMWhaU+UAcUIELvn2NGjRxudA2wCdD/nQZgHy8DvMMh43AAEcuGprof3TyiEVDjOhRaAUAfAA4OGASY0gfFVgxM2Mvp/Vd336tVLuk+ZIntNnCBDjjtOZq/hZwxwPNeHvQCUYJyoAMiW1o+CY2FTaFj06KOPmnQ/WBmADFkXacfnniCffSalQVeJM/zP4v3mN+JedWUm8GLvxLtAD8E7NHqQt96W5QYNkm9vulFk1VVz31K9D2BMeQdkSeQfv4oTqWmO3lrtxd1+iwBoNBiEer8v8w1989UnRWBc6F4cWW6F6jSefDdbPwah5Doik6aKuI06CPneQY69GwAhx2BV71pvgMDZbZEiCzAeL8ZYC+HwM6ro3XXXXaa+vuoC8PKJw1MKF6+YnHkMKDF9GAiMtr1hmDGUxO9JnaPojTbNgh3QWv7sh6aBlDrS4RASauto9A3Q/YQaMBjQ/qpB4FpJIsWwRwu4AFTAhJSG3GrqILi0R+7c2dw290EIIm+7Z8YF8SGMAaEYQAEaA0I2LV1syTntdHHGjhH3vfcShYpmxWxqisx2KIv5yPYYeL64//ueiMWqFJ68dTnQXuvziBS1W6MjTlOTSXP06Oa4fXwWg95ug0Eo/uJaCUDQB6gdKNgMAs2aPFW2FB+jxpHhEWgAhMJzot4AAaNpixQxihSpwXPWgjcUFMKLR5BHSEBpYv7G68Qg4vWrwO5Xv/qVAQAYc90ADrSvJkQBSwF4oGIeBp2wBp426YfkzsNKIEYDuFCPn0ZSFA6ifC8/A4ygMwgDhCxZDHo/6AjQQNAhEN1Crd0cuTbjgLZAGQPqBsBOoNPIWuAo+8QI1rr33xfn22/FCzqSli65VJxBg8S9/o8in84S77zzpES55Q3WF6/7jv7podjvukuciRPFPe10kR2ruz2aJQ+1f/fu4m2+uXh33VUoKyL7s1T2TBMMGq+0UHDBOqoJkeJkkTU7SFP3hDTH4LZcd5E0NeogFHmdrYVBKHTv0QehQaDds+dJU0+6OdaBIKnj7bWJUyUAhCLpU21iTDI+REsCBE1hxGuGHkeABwCgqyTxeo2/jx8/3pTXBUAgvIPyBTgQloDiR3CHAUbcqIp8wgqcF9aAND4a+ZA2iEARLxthJJoErsN5YSoIW3B+QAIsAccS5iBGDkPBpgyC1kEAlAAemnU3DI0vYAUdAdcwnn1ELwYOQXuQxiCQ/gnAufvuuw2wQidB6qStqcj4eqN3Gz1GnNdfF++cs31D/e23IkFzptLZZ4v3wovi/eMlc6xz5RXi/OEiERo0vfCCeOecYwCD94c/0K/Zj+mPHSvO4YeLLFoocvoZ4lJMydpY8pz3/ldky81zlWqu6RmDg5MAQjFgEHFXZDE8NVm8jn4vBn+rVNMNaxsaDELxN9uKGIRashgqE6S1d3Ms/qpa0ZENBqHwy8gLEIjXExJAQBi1KYOAQM1Q7aWSKYeLAYX2x1jPmDHDgACMtgIFvHoFc4AFugzCIODlsy9ZDwgPtbASIQv+YDSVZieUwTEYaYSQCAJhENj4HSADg0Y2A9cFsFDNEMEiz4VegTAB18ia5mi+9KCyIuelIBH/z8sgcAz3p2WbGSfqMyCQRP/AvdYrXdE5/3xx7hwm3qRJIv/6tzjD7xJ39CgUe+KcP1BKIx6Tprfe9M3cNdeIQ2nik08RufdeEQpb7byjuDfe5FdUnD1bSltvJbLyKiIffSTe9TeId/JJ5alRNpPUxLj1VvEmThRv440Lz9d6HFgvYKChE9o9NwcI8XfaAAjF32IrAghUDsPbz1sDIfTwFoOweI9u4mgX0MxjVCtQyXyhZXfHACB4Dz4oXs+ey+5zLIU7zwsQ8LQxhFkBAoaengUYcjxrqPFu3bqZ5j2wBBhuAIe25lVjjoHE8KNboPgRqWg0FYIhSNsw+oQURowYkVohj/AEz0IYg5RD0hzDAAEGgfTBpE3TDNE9GK86plkTDAItiVWkyDkBU6Ricr9kdpCFQW0FxswOv9QLIMi4J6V0+JHiTpwoDlqJ4XeK99JL4m2/vQEIzohHxX3rLR8gDLlFnNPPEO+2W8U55bfkmIoHk9DdDyNg9J3TTjPaA2+b/xEZ9YR4nTpVDxUxesbvhRdEGJ/VVxe55FLxeu9vQMmS2spaiCDkUTcu1/Wk9NQ/xenYXprKDEIDILTEe20FAKFe+DIYngAgkPjrd3NsiWH7jp9TAcJDD4q3RwMg5JkNLQ0QMJyIANEDkP6HdoBwA7Q+PQxID0SMmLQBHsgQgB2wy/TGHaMGFw/crqYYtb/2KyDsQOndCy+80LAOeRiEqPNmYRBgQGAMRo4cafQGsCXUUiBbI089hDzv2+y7YIGU1t9A5IbrRYYNE3n5ZRM68GB8zjtPZMxYcf/1ug8A7rtPnH79xBv/tDh7/9wPR7zyirhbbonqUhwYk6G3i3f5FeIdc4w4n34q8vHH4u2xR+W25s6VEi2iYXCOOoocVaH5k/fkk+LtGOgYYh7Clg3WeWXOPWyxBzQAQv3GMuVMrQAg1O9ZzYR2HWk3car5mPJpEOwYFvdUN7xbvwdsoTOVqbus5//8c3EGXW0EVLJmStvarOf8juxXuuwykTfeEPf++zM9cRYGoZzFMGiQ8Y7PPedc+d//974xejAGeMUUQ1p/vfXkxJNOMqI7Y4zqPMvD8WfjjXumBZGP04NOjvrg/B7dBGABfUJau+ekAYsDCOgm0EsgZHz4oYdlwVcLTErmLw89TDqssXqmd1CPnUqHHmaAgvzzZRG3SaTzpuKOGyeliy4S76UXxfvnZP+dPPWUOAceKN5f/yrOzTeLPPGEDx4288V4ziOPiPQ5RuTmW8TbeWcp/fZUkS8+F/fll0WWW86/1ZkzpbTHHuLRDfLii8V5911xdt/dfK/eqaemPk7u9SD1jLqDZiJkPiB6x0CkWK1BiD9nI8RQfLzbFEAww2AYhGlBN8dqkWLyxGcZ0zBHGBzkSccp/jLKC2fwj/LCap8yolx0HEnS7ClCJ9Tf0wFTXn9dZIvNxVtu+bLZMAWsuZ4aEwtD6ViWz8E9Bv8pG54w5qo685IBYHkCRuFxTLrDzGMemg7el1+KzF8gst66kRMlnPNvA4Qog+6II9ddf53MmD5djvrVUeK087vpEWowTYwcx+ScE15YcbnlZfkVVzBvE7Nd4m/rQZoVzfHL71XAROSEjHiM8oTRiaMTwz+XfR0Azfbbby8bb7iROCVHDopo1pQFyEQBBFKdb79jqBEqUncBYEDVw++vvbY4AdVe5MvOcj/Vo+KI8+ij4hxzNOIMoxtwBpwn3tChIiNHiiz6VrzHH/PDG6+/Ls6OO4n88VoDAJyuXcV7623xNgl0BLARZ58l8pf7RVZZRaTkiPfo4+LtZDEDFEoCEBCqOP00cd54Q6TnHiJXXCle3761L1CFz5AEEMKjmjDKgQZBgjTHtJWkARAKv7C2mcXQbuI08VxKLecBCEkol4nNNEybisVfhH1kOfEizrrhmAUHlON8oXIhYU2vOZV9+9a5nfHjRXr3Noume+dw8Y443DcK9kJvfuBfNHxt3dc0UtEd7O/bfo7XXhe57z6R2bNEAi9HlgeUtMwWHoekq2QFE86s2SILvxFZ+/viGYNbeW7b4OrPbbuaZwZxP9dcc62svMrKcirxaL/SbHnT9/Pfjz6SqwcNkpmffOJXzwuBSPXkeXH+Owo8e/5t7dvsuPL+FkjM8JqqcGFC/xPui5AEOoTNNt3UzL+DDjxI+var7uaYxaONAggc98prr5p2w9QyIM0zEmTZY5DhK886TypDVRLBaO/VS2TuXHGff0GcwdeLc9efRVZYXryrB4n3mxP9K3/9jThoBWiUddRR4owbL7LXnpVvTgEWmoU33xTZfnvx1l+/6q04//mPOLvtJt5ZZ4n329+KAxtx2GG+liGmQmWG11rTLv47TIJWyQCh6rcKEIJmTWnfVAMgFH91rYZByI/Kww/to1NTapkQg9u8kmKWhcY/qwICeymoUTyZ8R3FeTR2tmaUEYqy/1EfTrnhiW1oFi4U57nnxPvgA5Eeu4i3eUBnmgtVzlIGAPazLPhKvHvvkdIPfijeL/Yt/6ZsFENeZ6nbduK9OkOcvfYW78UXjYfjXXJJxcgGZ4jicNIWAvu2wuNov8nwWGV8Nf5u6C+gi7/+WryjfiVywYUiy1W35o3BYc3wWZbnSQox2PP5y7lzZRH59IjazAx2xP9XZUBLCiytNsVpz855whvsA+SC/srMKTxZYuQKVK1wgn+GAD3CVvE78fzsA8cx7Mbyyy3nA4SDDmrW7lmBUCKjEyFS5KoqxmxXKlWYMLvzS/AcWd5F2lgl/t4VcV7+h3j/94EI9SW++lpKw4eLLJgvLm2nV1utcvg334gBze3alUc/1/19+qkfYujVU+Tqa8Th7+WWF/fppwu1kS7y3GEmLHl9zxl6sABCpQ5C/F02AEKRN+gf02oAQvFHqD6yDBA8V5p6bl9VB6F2EFKvu8x/HlsRHAYIYcMYt5iknmNxk8isWSLrdjKpWKW//13cYcNMPXdDjX5vRYMXytefNUtKhx0mMn268ajdMX8V6dUzMbbtTJ4iztWDxH34YSmddJLIY4+JO3t2/gFZWkdA8V58kXivvCqy7bbiXX65v5jHbp4xBniOKMplxRWb7enMmWPK4nrbdRNZwWckdEvVIJiv2DfOSVu9537N57PCF3rfURqErNeJZBAysAFLZxplfaqCd0chpROOF2fkaPHWWVucuV+KO3q0SFUDp+znjnNasp+hPnqXMiA2GoQpImu2twolNQBCnveRdd82BxAwYKZQEgyCKZSUdShabr+6fGAW3Z8EEMxTvPGmyMoriYSa0dghg6hzOGPGinPD9b54injp9OniXXGlONddJ7L4W/GGDhP5iV9+1ziNNJUZfpd4118nDgKoQYN8atQaynAIxPzKNJApiey9tzgffCAuMVL7mODfubymlNeXJ9SQNhPMuZpglLyKl0eXuaiiXDM/ltLRfUTwHH/yE3Efeth42/ZWuvhikTvvFI+a+Z98Kt6ee4r86EdmFwDCKiutLKecGl0HIXyvafR3nGlqYZPV7P1GMUTMCcSEx/XtJ7/Yfz9zTNb7itQgpL3I0Jyr53zLcemW2fWzOeLcdrs4H/1X3GP7+uCgDimOWd9HkYdKWyfDdRCqKyk2AEKRMU87pg0ChCDEYLo5Ll2AYBslNappLyTu92kLvx7nzJ8vsutPxVllVXH/9je/Scv8BeK8/ppIVzxU39slx9o97jiRbpW2sKWBvxeZ9Ky4L7zgp1NBgf74x366FLFOirhstJF/qX/9S5wddhDv+utNJoPT9zgT48QIhuPkGpooaxeeflpKf7hIvMn/FO+WW8Q7/viqxcs8aygurM9XdBFPHD9u8PPZIt9bqdJFD5r3e9+rvI7A4y2fZ+YnJhvB++kuUqKxzuixvujssznmGJNO9uGH0m7XXcVbd13x9t1bnJv+JPLkU+L26FE571dfSekX+/nHwdJ8+KE4Bx0k7p//bMzjtddeE1sHIWqxLs+5jNR52oJv/96ez26oS195/lleu9vUJE1Nriy3/HJSMmEFf0MD4ec2VDbOHRtiyMAE1AoQwvdSdJ4V/b6XlePS5kvac8QCVDPgKpqtjH7V/NM1wYQYpoh0XC1jHYSF0rR4ftqtNX4fMQJtCiCYNCtXpDRhmqHFs3RztGPy5cVfxVkFVolI45gg1IqalVFaCVu4mBSfp5GJg8GZNlXcl14ynqhzxRXiUNqWympHHukv0r32FG+9TuLdc2+waIvIySeL8+474pKDjer6iCP92HL//uJdfXX5Vp1588X5zfF+Kdjf/EZKt94q0rOXuHff7Rv6INZdZawsgZ1z6mniDB/m53iv00nk/AvEtavBBQ9YNZYZjIRtpKpCIZaIUO+taty/+EJK++wjssaa4j74oMi8+VI68nDxLrzQ9+apXnfiSeJdcrF4W23lk1KUxH1khLgTJkipf39xnnxKvO7biyD4ZB5OmCjO0KHijBgh7rRp5lmdrtuK9+qr4nXetDKW1OLv1k28664Thxz59h3Eve9ekY4dzT4aYkCkGMccEV6gGuK3CxfJCt9bUVZdddVywZ/w/Kplgc9zLCWW6QlBCePtt9tOfrHffuUqiwZARQAMQgz1FCk2VvylOQJRuoJ4rYE/t5pzCJG6MQ0xZAYIjV4MRWdCGwEIlm8ThBikzCDkWdaKDmMyFRpn3JPRdIRiPbi9Zkr2sLr9tdfF+eku4t12m8jhh4vzs5+JABbWWlvklRnirf19cQ49lKIR4j72WLldRYna+3+5T9wZM4wWoUSIYtEikSuuEJeaB8HmvPCiOHvt6f9ujTX8Ykk33SSy9tpmD70/ZQL0uPB9O//7vsiVl4uMfFzc1/8lsu665XtpJsSM8Ihjx7XiqjYLd9j3V36euXPFweP/4APxHnjA5Ks7xxwj0n1HccePE/nvf03amFx9tV94Bp1d/zPMmLrjx4vz+EhxTvyNEYLJ9TeI23s/utaL02Uz8QBm66wjzkknG5rXHTvGB2QaMvrdeeI8/pi4MDK/+pU4773nV9kL2AsTYqDUMqV3g/Wz/HjBPwbfdKOMHjVK1qBqnuvK+uuuJ336HivbdesmX86fb2ojkC1A4aMvPv/cVFf87LPPhR4ElDvGu0fQ+N8PP5SFixaJ2+TKZ3PmyNwv5xr2ott225kGTFMmTzYFl8gGoDrjzj16mGO/XbzYpFbOoaNjx46y/nrry8JFC01FR2ovzP3yS5k7d65cPehq+XHnH8d+ZO0cRw4ki+G4Si+G8hyyMnciQfWQIaabo0yeIt6POwfZGlbGTQzAjBMuZxFGFl8tGkdWj4DN75kvNHmAyqWWOwS9GJL399wGg1B0xrURgGA9vudIaQJZDIQYqKQYnnxFhyr9uNjFRue8nZ4Y/CxSCxAycGmG1rc41emHzsEH+ZT1gw+KQ2pT+9VEMMjU9L/0MpFfHuaXcX30sYrhp1b8IQeJ+9nn5oSln+8p8swEkcE3iXfqKb5h5PP95BNxyKvu3l3cCy8U6bSuyErfKxt39qHrdrP7prkMLWpXXrmyL1T+FpuLe8klvlGOYA/KBjV4zvJwWutCFGiyxyUxCwRlPYVmTjzRePnmedBdrLaq0WNIhw5lgOCSesY40CBn2DDx/v68yKzZBpAhRKRanVDFjgI1CBgBWZ9+IrJDd/FgWNbfoBJX//A/4myxhWnE4517rgm7CADt/gek9N67Rtl+9Rtvyiqr+gAhEjSJmDLCjzzysNxx552mcuJfx4yVSc9OMvn/11x7rWldvOoqq8rKK64oM2d9Kpt16WL6DUycMEHuuece6bjWWrJo4SLpf2Z/efPNNwXF/9wvvpD1199AtthqSznwgAPk9DPOMOWaqVkw86OPZPSYsbJt121NqeIv534pX339lcyfN09+uuuuctmllwohCMovH7D//rJ7z55y4403mqJNF6O3iNjMmFIH4aCDpV/fvrLf/vtVCiyF5oTZVxOP9fMeMkRMiCwACOFLxLEvbQkgLBlXKH0drOwRZgT0/8okFKBoOXkAENyO7cXLVGrZBwhREqE8T/Nd3LdNAQQ/xOCZQkk+g9DNUK0Fp2Hu+RDLCFiguOxdxxjCKmMYeONVEzvkSdlG2D63Qwz7t78V77lnxTn4YBGESgvmi+AhP/SQCB3i1uoocvc9FWSBJ91pHV80uPHGUrr1NpHTThUZdqd4x/bxx4PFmRoGPXuKt+++vjAROPHEE+JApQ8cKN4KK/oeXMiAO4MHS+n3vxfvp7uKUNgFRf/kySJ/f168ic+KUE422OIYBM4J+AiDhiphpDXe5XBHDJgoYw6e6567RRBe7rqryLx5Im+/JXLwIeKeeKKUdt9NvOsHixz+S38MXn1VpMfOInTiozLhzjuKM32GyPhnxN39Z7724MP/iOy2h8jBB4lH2OeLL8R58AGRgw4Wj7r/VFW8/jrxrrpKpNROnAfu9+vnE6b5/vdFdttdrv7JT3wG4ZR4gPDp7FnS55g+8sgjjxgwAb1PP4NtttnG9GP4wQ9+YDozdv7Rj2WDH2wg23btKltuvoX8+pij5Y/XXCv/8z//I4ubFssddwyTjTfZ2FRdpATyOWefI3vssbtMmzpNTjv9NBkzZox06tTJMAxvv/uOKY9MtcZ27dqZpkmrrLyyAR7rrNNJPM+VgeefLxttuKGp3vjuu+/K2WedJY+MGGEaN4U33mtVFkMKQKig2uBfQZpjM4BgfZSxICGqREhGDUfuRaIOB9QLCNTzPOGQXvCFxhdf0cXE/O0n5bJoVN5RwqodaBA8Uyhps9QRnb9gvsya9Wnqfo0dmo9AmwMIAANn4nRT4tXt2XWJAoSkCRauP6BekG3syka1OmJSVXwo6rMJn7vETpRnJf95v/1FRo/20/Hw0I84XJxnn/OzEmghe8655So43rffSqlzZ/GuuFy8o34tJVrGbt5FnLvvEfeIIyprMml71IlfYTlx//o3caDkYRR+8APxRjzmF3+Jivt/+aU4CCCJ80+cKAJ70K2r8Z4JUyTqLMJgI/z/8FIU9joVNERQ1eXrIhDcfjuReV+KHHGkERo6Z50p3sOPiNOnj3h//rMBRWZ/Yujb/EQ81PZXXCWlm24Uj9a9T48Xb7fdxdlxB5EfbiTeQw8bUZ6DOOaii0w9fjrsOVttLXJAb38cVljRlN91GPv33xcZPly8XXYRp0MHufrmW8qFkuLYJiom/nyfveXee+814QW2ocPuMM2IxowaLaXl2smZZ54pm3XeVE4+xQ9VEIoAdBx40MGy9z57G++e/x/Tp49steWWctSvfy3HH3ecHHDggfLR8qVOAAAgAElEQVTGG2+Y2gSjnhglndZZxyzi1Bc48sgjTefIE044QU464cSy7kHn8eVXXC4LvvrKdG/8/PPPpU+fPjJs2DADMuy0TB1/wPyBBzdv95yoyQlmJU2Q5PwBVQxCM1Yp4d2nhe1am/FoHq1fencYBTTygo9c+7ue381xrfbibd8l1QH8ZiHs1ucNBqHAFGkjAMH/XEw0AYAwaboplARAqPyiwOjkOCR+gvua7WabZcDsj902knpMeIFs5i0Hxs/OFnAofrT//uJNmSzONwv92v8HHijORx/71PecOeLeOkQccvP1eLfJFFihhKt3/wN+Ct9x/YyI0PvJTyopo9zAvfeIc8YZIr0PEK/9quLce5/IyCfEQ+8Qt2UNNVqx9qwBovCYmDEzkyJ0M2XPsDLq5X99/bWUDjhAZMIEkdNPN8AFMadDAaIP/0/cadNFunSphEcw+EOHivfO2yJzvxTnRxubJjverruaDBBnwADxBg70wcDbb4tcdKFp4+tdfIl/Xy+9JM6MGeJttpl43bqK8+574uyxu8hT48TdaSdzHTQIKwWVFKsBQjDjgl4HvXv3lsGDB8uPN/mROfdzzz9vOjI++eSTplsijMCC+fNl8I03loeEf+O1n37qafLVN1/LMcccIwMGDJDNNtvMGP299/q5HHNsH6ED4yGHHGLaRaM90LmOwX/55ZdN2ODwX/7ShBrmfP6ZfDZ7jsyaM1smTJhgyj3TOEoBwvA7h5uuieUiS/p6TP0kSi0fJP2sNEfzCi1vPm4KlQAIAwOA0Llz1Us3h8cIhW1wXT53Gd36X65/fTvvwkLw5SvZM3DJVl7NsUwt5V3t/BV7xdSfZ4QJChA6okGwGYTo4113obiNLIZC776NAAS/hanDR+y6UprgAwSvV1fTPFpbuKq9WDIhh0q8zZGmykITvKZw6p8NBspvMqQr8B9SIwLVPkQzhoJ9X3xRHOhyHN5nnxOvx86B9+v6WgBEdVXflCfOBReKN2yoyNRpJl5OASQEc+FQhkMdgPHjpHTqaeIScqC+PDUQUjQf4RBL3KxNrfXQ7EBtY+tXvLSX8PIiXzV+/KdSb7D8fH+6yaR4yuWXG2GmM2qUOIceItJlC3FfmWHo/7LHi/5gv1+IR+bC9t1NuqN30kniIRak5S5AYNCVIit+z8/YOPd3pnmOF1Re9O+x8gKcaVPF+dluIk89Zerwc9/XXHONCTGccsopocwE/zjDFjmOHHX0r+Xkk0+WHjv1EFdcef21f8mvjjpKxo4dbToy0tDp4/9+JLfeflvZ4D4xapRMfvmfctkVl5vujYQlhg8fLuuuu64pf4xAEeOPwFBbM++2225mfGEQ+BlljA/sfYC0X72DCUV8OutTI1xcf4MNTLdGWkdfeMEF8vHMmXL7bbfJQw8/XNU50Q5D8Z0efPDBcmy/vrL/fr4GwQYIVYUhQ0jBAITfDxBvyhTxOndu9v7LTaMi5mcVMAhNnvi1wgYBGlPnTPo+l8wqU2jVDx0UB57qce7KOYJKt2XHCFbNSym/HCP+VoCwZntxu/tVXyvVb5uPe6OSYvE32QYBgmcAApRuk2EQVC0Xn2kQh1tjvdeyh1EZ+ObTstpEJQpkrLTARL6sGUUamBi9H/u+/n973x5mVXHt+avdjbzpbh4iCArIBRFQQQWN4DNGIXozJjGOmocz0bzujNcv/jOZud/kxplr1CTzzb3jGDPRmIleHzi+UOeKxgEFIspL1IgKKgkiiNACzZvuXfOtVbv2rv06Z5/TD7Zkne9Tuvvsqr3qV1Vr/WrVqlX2qOb3vgf1xJPmZMIxw1OBg6mhQ4GLdCQvyJqYl6kmZsApyM+jCV9lIGYRnrwilZ6Nc6MEaTJC2FWnc/g+2kpx3ukSHy5HsQf/5SfAN68Fpkwxe6J0wqJpEPTo0SH54HqJZK1fD0yYwEY6uLww2Ec1ChAfb4Fa+w403RxISaaUJTLxUyr87peXmSt+FzwHfebMkCCQoSZvQNaHxCMvwDe+8U1c+bUrMPeLX+Ry77zzDq644grMnz+frzO+65e/xJIlS3DffffDazAJlN98403cdvvt+O3//i1effVV/OQnP8EDDzyA5qZm3H33r7Fq9Wr8j3/6J3T4Pq6+6ipceeWV/B99Pt66Fddeey22bN6M0aNGYdwJ4zHt1FPZ+zDs6GHstXjgwQdxxx13oKW5mbcwbrzxRnyVMm9awx/8GxI4T+HLeacYXMOdAYSio7bWgzA+8CA4U9DsCpn0zrH3hyzE2aNKlKuuXt25blfD1SZD9Vp76oli6/ZiT1WS2dWnETrJyRyvIfOtNg9CLJNi/hFKIQj1j6QjjyB0AN4im0lxeuwUQ+WhmA1i1gBNGZ/YMUO7iojf3VCEIISGrYrRTMqU2pYIWTrMUcR9+6AGNYVHvyqRkLwjikmR0it8G2hUYTBaIlRQd1Y7LmlXPhX3qJOuhMSR0EwyEUVQ5OYeSLbSdYOnvzNCuN6TzHiCZct4W4hy5tOWDhkz8iBUIggsv1J8XfIll1yCK776VT5BsHTJUnz/B9/HggULeM//p7fcgg82bOCTDfZa5k2bNuE7112Phx+ZhyeeeIKDEOlUA93++NRTT+H+++7Dvffeyyv+a665Bl+4+GJcf9117D346a234oMPPuA8B7f99Facc965fIyS71cIbO1DDz3EgZPk/SDyQTEOVzqxLCmcaIvh8nQMgssNYmPd3XpIBCm6QbKVvFHJeWk9e3YIFBmq6fGXlQqqfiXd3SUtSc7HqWs8I0kvZ9SuuPfPbW82QaAYhFcRz6SYv60jBKH+EXSEEITIKNNdDGrRCqgOoOPz8SDFSkq8CISVOXQ2P6462Iu82FlxVVNY1Xh+te+riZNfvljNeU+lSE9iQUdyVWp7pbdXqtsaH1t/FtmqfbujGoo539M+/HvroceODS/VsVsMf0PHU3M+5EEgDwOt3mmbgT4//vGP8eGfN+LX99zN+Q7o98mTJ2Pu3Lm8uidjTn+nWIOLLrqIgw0plwE9d/DgQdxzzz1YunQprr76aq7vkXnzcPEll+C73/0uli9fjhtuuAE33XQTG/677roLZzvZIe1K/dFHH+V66N81a9ZwsOIvfvELTKAYgQxXf9ZdDFlELItodeYuhnDmOh64avPMypXBP/mrnnHb1z7Ois6/uL+1nqVVNdniXhe6aK/wh7aRn10ONXSQk0kxXwMIQSiMbOrBI4QgRAzUY4IQ3OZIWwyuS9FZcdQPWaWSEpzUPbh2X62hmnJczdbl3WPEoELzihAEMsi0d79hwwY8+OCDnNSIPAUUcEgxAmToyVtAxx8pSdLs2bPZ20D/kofg/vvvZ68A1UNHHHfv3s1BheRJoHgEIhDPPfccjhs9mk9BUMAjHaH8+te/jssuu4zzMJxwwgl8lJECGol4UMDjk08+iX/87/+Ip595musi8vHp9lb8/L/9ghM3JT9FCIJbxjXCLkFAkCipyKgpRmuza6pISmvMnlpE1p55xtVhduFl38wbNZ0Sg6lGeLlYtN1WE0Ho8OEtWA4MHQR/xklVZRKCUH+XHSEEIelBWAl0aPiBB4HgCfc5q2RkqwxlNXXSHUy7/s797Jcsgme1PqkdBbfGrq+9NnniBCFbGjLsZKy3bt3KBp7SLlOSIkqaRGRh7NixGD9+PGdA/Oijj/Dyyy9z4CJ5HSjRET1LWwNz5szheAba0qDv6bQB5VGgIEk6nkhxCmT8p0yZwjkQiEgQQSCyQN4HKkf1TJ8+nT0NCxcuxM0334x58+ZxLoaVK1dyHMKdd96JqVOnMiEhbwX9R8SFytJpieuvvx6XXmouayr6UUEmRb18BUDHRQsWDBHdtx+qb59UyEq1auIehKh/zE/FRo+Ni6h2I2c1WZLf262kajqNz2oEezI6vOreulPcFlJN2Sv97JYGKITBOTbuxj7tEgTbY1kJl90WeEBHOx9z9Ic2Qc+wQYp5raTcOJQoqa1W+OR54nL7935cdC5VAEyh8ajguFwnYC02newLkkEpAfOlQCS+zRGpPAid22KwJKQSixYPQie6v2LRpMu2u1y4sWNvJVgF2lTLtI/P1xwRwc242rm1tZVjBd577z1OVjR4MN3lYILysgyF3Qag4EEqQx4G+o+2GujkAZGCcePGcYAjbV2QAScvAD1Pdz3s3buXYxAo9oEIyAUXXICtWz/Bpk0f8tHGHTt2cOrlHTt3cnkiErNmzeKtCfI2nHTSSXj99dex7RNK6bwDY8aMYYLx0ksv4dZbb8PcuXN4PKT6PWD75rRMpLrsMUciCHSKoZaPev99KEqlPXIE/KefCe/BqKUOKyuLFyQJszK6kmbdQZEkCFn9Ff+bFwRcVlPdRTRqpEfN00kd5urZrEDASiQ+WXeEaJxK0W8R8WjQQIetNizikAm6i2HBMnCipBmUXC2LtETeD0MQdtXanfJ8GQhCkSFcU09pDW/RaqgOuu7ZxCDwLWGkLDu1xeCO2LyJaQdxxIZrkj224uhyZGoTpTRPx9doVqxoheYqqGoKM7XGymgl1ZF0swZWqS5MkuMmUlzGwCVljp5vbz+EH/7wJnR0tGPKlKmcwVDDR3t7BzxPwfMa0KtXY7j6JvHIa0D/bdr0EXbvbuOfiU800MmF4AQF1Ud/JyNPsQjkNSDPAx1LtPEJVNfOnbvY0H/6aSuv8iljoiEnijMl0pYFkRLyTBCBOHrYcPTp2xuDBjWx56F376P4ebq/Ye3at/nEw779+zB06NEYPnwYP3Pssceif/8BWLfuXfZmDB06lOMkiHSw0Q1vfkxaDCdggHrszjv5FINevhK6wn0PmV1IGURvvhnq17+GfvhhaLq4q/DHjpVEARLv00+BpoGgy81Ap4iGDoWeMjnzoiq3NN0GTgeDsj+uXnCPV1o8sseTKZWu1BAWV2859TNBNkGn5hOVd2cd/8zbBq7E6Wfd7V6XKNG49iiRYoM5cRa9z2aQcfuawGnnLQY1uAkd4THHrLltahKCUHgwpx4slQeh/maYkibVsg9v0Wsm1XKPxyB0tgVS/nAhUB46FqnHAwf2s0ueVvVkSClFMa3iyZiTcSbjTUbeKlv+Fw0YOKg/Jk2ahCFDhnAMAREAMvD2Q0bdpkgmg0ykgOqlv7nHAOl5eg+VJa8A/bx//34mCnZLgGSicvSh9+R9KMaBypKMVJbqyDWB4R519ES1/sm87plShp8wnjN7VnK3h8aK7sxobgEyUkGnZPXJonF+aHPENbCHNm7Fo62OC88HevcF9u0l5gZNR1CfeKLyECfyt2sv/Ga6kbMBmiumfg2uyKZA1o+2QW1p5bTyGNQP+vjhQB9KX52NEred8pa0dwC9GsK4rPAUUOL6bV7P8/XmDfAotwynztTArjbopv6cPQQHDwFbtkGPHg5vexs0ydurwbyHnj3UDuzZxz+rza3AoL5AHxonlE5ZAUOazLbvuxvhbfkUuv0Q0DIQGD0c/siWgKTzqEp4CKgtHWh8bgVQ8ZijeBC6QpcemQRhIV33DJMHIXnuuWpISyVYq6mprugSqUMQiBAgdz/t7w8ePJiNHBlh+o+MGhld+i/5oe/JcNO/ee5qsxg0a8pKo7qI36yW/nJXnrWUq/ZsiiBs3AhvwgS+rExTdswdO8yRX8riGHzUylXQI44BRpr01PS9OtQO3b8fFN3s2dzMF3WpXW1MGnSf3mZ1e999UHR7KdV55ZXwb77ZEAXno26/HYruJRkyGPj2dcCMGcDZs6CHDc1piukF748boNb+CfpzU6BHDgn7R23fBTT1Bw60Qz32ojGmfXsDew/ARwcwexp0c/9U3ZSLQ63fBKzbyARBjx0JTBkH7N0PbP0UGNgPekiT8dVQXo+du4EBfaGP6gXs3oeGP25AxyknQK1eB2/zduhLzoTufxSwuZUXYv4F06GWvg7Vqxd0rwYoIg7UknYfOHCQAwnVh59AHzPYbBcR2TnYAf+ME+E3DUDj4y9BHzsMaOoH7NoHtWMXkwd/xiTGO8trQYs/77nlwJBKpxicfCOyxVBt+uR+f0QShIaFq9mT4F+Yvs1RTHzdY0UK9iACxQLMelCgKkQiSxI2pl0Yx1Ep7iTLg+CNGWMM+C23wLvqaug1qzmjKI45huWi68zpEjJNBp62Jq+7nlNfdzzyMLwZM7ks3noLWLzYGL1584Djx5ibO889B2geDCx4lq/qpqvKYwThd/dB/dt/w+TA/9UvTWACrZIbG3NumDUrXvXCSqjhzfAnjzVkhP7X7sN7dBH07JOhmwfCm7cQ+qLToUcdDd3eDu/JJcAJx8I/ha7Sdlz75ARY+2eo5WuhzzoJGDEEurGRt4cannkZunU3VGMD9FmT4Y8dAe/9TVDL1vIld+yVaG1DAxnwi2cCf9oM9cFm6K+cC59ubt20DeqN9fAvnglv/wFg2y6oV9eyp4CMOxoazX0llPa+aQD8WSezM4CzJ3K7jNfFo/rPPRX+4EGcREzt2Qv11BKoyWPRMZViSSwBdjR3cJujIQh0isHSTvdZ+7wNUpQYhHq0xRFFEMwsNpkU6fIb//NnpHLxdxVBKKMCr2cAdH+ZrL3j7n9rrW+I1ElnD3LV+ubD/3xFD4Jj4K3B52kWdGu98ymvHKeODq4LrwWZTILwg7+BXvsW8NhjfKcG3nwDmu7O+Na32FOAY0dC3fhD+P/xP0C98QYUpbe+5x5g+HCoS78ITJ4CkPGnK82pzTNnQlFeiNmz4d9/P1/kpR58EP669VDkbXBzd6xZA3X256AXL4UePQrq3t9CPbcA+pproK+9Nqdp5qp6WlHriceFtZE31Ju/BPqMSdDDm+E99ILxMJA3gK5lf3Ix9LgR8E82BMFgq6B2tMFb8Cr80ycCY0dCU7ZTMswr3+FtCn/CaKjWNmDXbqjW3UC/3tDHjYA+eax5dt9BeA++AH3eqcC+A1CLXwdOPA7+7JOB1p1QK96FnnNWEN+loZ59Bap/H/izToEmMkA3685fAv9zU6GHt5itB+ZBNmOaB2/+YuDUv4I/epgx8wfb4f1+JT/vn0YnFDICEC1B4C2GSRlYRtsL3CfiQahlKsWJbplOMdTdirAgX1OXSxAqrkA6tfXQecmPzBrsRHWDjGpIiNKDoNRr6HpQxLpe1V1EtqtPkXS2vsxESY8+Cu/b16FjzWvwzpkN7NoFnDQFPt2hoTUamlvg/6+7oP/1VVB/eBnqi3M5JTlfdHbWWRSlCf21r0HTRWdk137zG+C73wF+/J+hmlr4anN881vw/+cdidMWCtiyGd555wJHj4B+521gT5txv18yB/78J3P70vt/q4BjBkNPHuucVvGgXlwN1buRz/03PPR76OkToSceD2zeDu/3K/hItx5J2xdBPAQZ6JVvAxTPcN606H1stJdCnzYeatQx8An4gAiQQdezTkHHiceZ65f3HkDDQ8/D//wMoG0PvFXr6RIO+Jd+jmMZ1PMroC+fDU3bK4Tngld4W8A/51TOKM7hvk8uBUYPAyhOpW2P8aBQ3MSIodBN/TigHM0DgZYBULv3A3/6GNi2Ax1zZgLDDOlKfSjObMEKqFgMgvuUEIS6lEUW1TryCAKYhZvrnk8LyWpXAfZZqKdcxs56EGy0dzkJQi39Wiu+tT5fRJbuMvzV3h36g7pw64CNb/DiWs+hWHkzCcJ770FNmwZ9xx1QP/g+9C0/hfq7v4N+6GE+0qhmnQ1/8RJg2jS+etwbPx6abuD83vfQcN550MuW8TXp9Df6eN/5DvS9vzFkoGkQ1N/eCJ++c4Iaw75ub4f6+c+hHpkHPWs2MHkq1H/6ETTdEhp4JLKw9l5aA90yEHrquOBrCuv34C1cCT2gLzB9IrxHFkIP7AsM6g9FAX4Uq3DGRKBXYxRTQkcBH18MP4hlCN+1czcann3FGPl+fQ3w+w/Ce+B5U/7U8fCnnmAI0fZd8B5fjI4vzYbasg0exSzsPwg9tBn+lLFoePpl+F8+h2MPmCC8sApobEDHOafw3SzkMfAeW2y8NcNboAf0gaKEXG37AcphMG0Cb3/Q1gWVIy8F9u2HPnEM/LNOgmrwsvNZMEEwMQi8nZH5iUiCeBCqzer870uzxdBlSpTzIKziYzP2mGO9SqcyrPmXgxTtjs6umoq+5/A/V2fGtMMoeN54zMsnn3kfBMnvHK110zjnjcnOHcVNA9ZV88olBvYtZcg0WYkgYNs2qHNmQ7UMBlauhN70EdTl/wqgC7nOOx94aj78RYuAUaOM5/uGG4Cnn4a/bh28h+cB3/wGkwsiDEwQKDdDczP8n/0MGDHSuMzphMLAgcag5l0pvXsPvLlzoTdvgv/aGr5OPe/jrV4HtO2Fnn1KdOnX/gPw5r+MjgunQQ0ZBDV/KdS+A+wx0CceDwwzJwJCLOjUwo42NDzzCjq+dDYUBR0GZxDp9IO3cBX8y88BetPJBw1saYX6v69ATzwWaNsH/YUZUOQV+GAzxxD4X7sA6v2PgJ17gImjoH6/CvqCaVAvrYb+wkyoloEMhffymxzYSIGLFINA18yTB4G9GxwIaY5UGlF8c2Lm3Y1QK96BvuJ8PnnGAZUr3gJOHm9iKjj4k3rHWVhYgjC4ybnNMY6oSzi1f0jyINSpS0tDEMLB3UlXP+97LVrFR4D0hadVvX64Em5dpVzr7BspdhgRyDPmbkRFEeJpn6f6/OCMd6Vydp8/a4+/nvGYS3TqmGd53oMYeXA1cwGBXZLRGXKUeczx4EF4RAieex448UT4b7wJtWIF1Jf+2pxAmDMHPm0fBB4A9cwzUFdcAU3XbZ92GrzjjoO+7Tbob3/bEITLLjMu9meeMQF4v/oV1D//M/Tjj0MPTZ9O4Oa/vRbe397IN4Lqxx7lOIa0rotSxav3N3OgoL7sTPYYqJ17zN5/v37wLzyVjWXDCyvZg5C1eqYYDh5nO/fCe2oJ/L+eBT2oX/RO+vu/LIO+cBr8o1vg0amIRauhKWfFhFHwnn0V/qVnQQ9rhrf0TSYr/hfOgLdqHW/f+qdNhFr1Lrx1H5pTEeedCv+44JbY1evhfbAZ/twzoXs3wqNTCf+yDP7cmSYAcdceJhAUQK4oYLJ5AEBHNp/5A/TXL4buexTzALW9Dd6Lq4GjW+BPHG28D26ShUIehEh5GA/C7sOoTT67ry4VQbD6JKkki8MbxSCY657TpxiK1/WX9WS+Li+g5XsIqsMhSVd4eeofz50DNiQ5TlAhGzo+bpa+brret2W9x/2bPUjpzm9LkrrKC6HuuRv40Y+gX3kVCJIs8aqeEiDRKQW65fKhh0wT162HR8b6uuugh1DGSfNRGzdCnXUmcOVV8H/+M6j/8yj0BeeHmRW9v/974B/+K/Sjj0G3DIb35cuhL74Y+ne/Sx1z5Pruvgfqhn8HDDsa+r77oSkOospH7TnIhl1T3oAB/YCtO6E8jY4LTgMo1wBlIXjxNY4BoNMHnKAo4YjnlTkdBaSTCgP6wZ86ltNIc26Cvr3gLVsLbN8Ff8rx8P78CbCzDf6cszg+gAMeRwyFP+l43jLwz5nKMRHqpTegBw+AnjKWAwkbSIaNW+FfdDow+hh2n6i3NgB/3AD/0rOh+jQCmz6B9+IagE5EUC6E4AgkuRs0HXOcSEGSu82WycUz0HH80WEeDvIkqGVvAdMnwD/p+DhqPsU70BbDgMQphmzqLXcxVBt1+d+XiiDU2oz4vmXwWxCkSJ4Ee5ujrbfIiq9WGcrxvLuuJYm6oqXRHp7DxYMfa62/2jo23pNZmOa59uPP1rq+7+7eyzKJRd5ZiQpVwtK2n9yx5jn3aUtU7IZ/Vi92ZWxDsjfsCQUeoXa6FoGjyDOffAKseQ0493zeSw+N/prXoU6bDn3b7dA3/TC3JsaJvI+0rbD2LehFL4ZbB2FdW7ZA3fDvAUrHTHvpdCLhjjuAjIunmCAsWAC8/Q70l78CjB5VaF4yLJ/uhvroEz7eSAF9/oghQSIk4gMe1PubeHtDjxvJ3Wz7MT4yFK/Y1Zr1TAYUJUlqbIBPdxe0DIJa9yHU1k+h+/cGJoyGHtLMRMPbugN45S3gwCHgr0bDnzqOAw5BfydcWwaYExIHD0G17uJ4BE3xA/RXyo3w4mts7P2WgVCftMJb8kfO3+CPG2HyOPRqhNIKPiV26uUBh3x4f3gdetIY9hSQZ8bsQGgoytXQpzd0YyIBF6dapsuaBqL9jEmcuMmktc7WfUIQikyg7Gc+kwQhdotbctoFxxyZIISploOhk7Sj9eNWspImJWnUvFoNeKXmuETBZHWTT1EEuoOwVPOjZH9vjTMZ5u7pwSwFnUHhuzi4sXpPKKj5T0LPnAEMP4Yfj5OghIwU2PiVr8B/4YX8Oxk+3sLBdKA8C1U/tY0B87SZzU5Gg9S8y7rgKd3zAUmkrYBDh6AoeyUlNOL0ya7fIXHHBxGTjg6o3r1i5MMRzclv4eBH2y4793IuBD7ZQK0gIkMBi8GH5ebjjm770um6rISZo5k9CK9wQqX2M06EB8o4aXFz6VKg9/2DEoNQdZweAQShmmo0AzjIg8CnGKZzilL3YwZSUplVYg5Jfp4z4WMWupqydOuwrYqb+Ehm9+9J1V4pUDJLzrx2Jt/t/p7PzIPpF6Mm6fVM8p3JNtTD2rL6JCmz+55q2CYxTmJXbeS537t4uYq3yBjLm8XVMHTLFcUzC5O0co362J039ue8S3KsPGkqQqtHkz44jlN8vCdxyJtPlcatKwOVz6rDlc/BrbXVpFx2DFtt+rVzFCxaACUxivonaeDrpX2GLCXHr/VAWaMb9b3Rp6bfzcVOFGxoMntynkS2/cn5UukCqLg+jkqaPqPjlik0gy0GPXQg/DMoUZKtI3sBIx6E2kZvTJt8lo45VlPTIUFYuJoZsP/5053B6jLWgoBpyltOg64WRWiVkSlDCpEnTsoF5l60YieiLZs0gFmkJm8hL7oAAA++SURBVM26o1bFZYi31r2YpZIiS9aRVLLVlKDbPlfRZRGELOJj/0b/WpmtcnLxSSrRAPdUPn/7nP03I0NbCJTps/rjDyLDZVerZhxY13rSEFfDsuB4DRVlpMQj5ekqe1tf8nKx5Dik3+s5lpomrtEWkTuOyARYAxBgnumjSq54XTyStw1aIxHXFmndUUmbuCTL9k3SyNXSJ8WftVLx2OO7HqJx697kWWRsFtGXZnzafs+6/MkdS3HzHY5i6xWoO64lr69yMCeC8Pxy6JYmdJxxIhQPrvzFkhCE4uMv+eRncouhYnNpTi1cxW4szoPg0QQwCtu5liGsIuv6Vbd+w4jNZA2VfcC6aWBGkytQxbxhl1b47nvSddp3xLOwRs/FGXLsQp3gVdZhGLlPA4XrGEp7syX54+hWQHtNu5U3Uha2bBxpN5A4oD1hUFEejhZ7u4KLq3rCNPv64lBROp2WxI3VWtA/7h5LeKQr0eFW/vg7o1V+HDu7i0/rJGPGkhcZJfZ1YmCFY87kl42NiWgsRQbZFTU5pmzFFKBm+i0wsnyvcBUDzgCZRDY8CwJ7E5fByBG2z+WeTv+Y1WPQM7F+s+OF3hPIxKn0nFVlcAyQI+xd+5uYzGlsoi0B163urnzj8zO7/tiYSDoe+HbKiFjEV8DBSA91iJ3zZk7alXxaNvuSDGoSYEdQ8f65PYIYM9aOMQ47zc7beJksfRWOGRuQGkgb3ioVeAA4IVLwITHstVDxbjE9b0aQUThhe4MhzE8ELNDVlW49SYySetx4MlziHulF885AV2gFb+PHfOqBTltE8yPbjyIE4TNNEKy26BqmTntelAeBImgpBzgfRwqMJA+wcLIF49lZ2Uf3uJupbzRqcJsZ/UKRuqT4XAJgqbyjdGw90ciNplf9XRXOv1ADsmLJODpnRHJxDQiSw1tSOtJh/8nVif2dW5FyAJjMbcZtnP5Yl2Nw4Xb0QICtJQ7UlnD9EmRk5S5wjEkoh5v+165+bPrWoB3Rs8al7bptw3zwAcNgxRUyDdNIu2+abFZsjIQ4G7XK5bg/+EoaBwz61ih3VnSB/G7gJT9tyV7IjtLP8mMZmMQUcQyfoP2BfDFjEtYTGHjnWvTsdxCODklwKjPkw16rHo13/im0HWljGZ8rTsPZ6xZuxwe4uWM6Xpd9f9QHZv7yuEwM9iT+KUOVIDAhOpZkJdoUjX2aC+GKgqtN4+gSDkMQ4n0S1MHDMNBd/Ijz98gWB+MtMXaCCs34Mo3PksPs9IRLi8j4O2MltvsQkIBA7cQMs/0lqfvMDaOBkrKDIRjo7lyK94Gdj2l9wlB4HnzKJDkyOoFSSa8KQajf6pTQg1C/K88YMA1v4Wqotn3wTxoTBeM4usX+aFdiNIS5XCKAyyp6M+eJKFjLZWe++7vtBDMZ7YaGqwBoKrq7e5EGCepJMwuHi5iJZo0Zp0jl/dzQxMZHQbBcTFOTiPgYtWM+xqQFUocKNU0jjE4xy0CrWhpYARlFbBZaabJg+sY1LlbB27ZbaSJ2wG8IRIhJEuBEf/OClao1yYE6CnZKjUzG/luiYFa4cQOevLLD1MYOeG6Key99cvvcjhKqMwjMCuQL418sHPa9Uac5SjkgpWYtH/SJz1hHK27zLmM4oqFhsYljZPqVxos7BowogaHnOgIWpoxnwqf30SgNLYpxcxtSFTdSQVWBd864qu0cika6Q04DoSOObrYX7DYcIx4YEb6hMGY76d1RRBHPIzOoQiPHj4er4AhHHnUBXu4qmNroeoXC7zLZs3WeONY5RboigVlfmBlrvD6BjrEkKmRNjFmCCQV6LCQ9YQ9G3ixqJ5Wz0QBWl4QeDTtmycPkzFdDCsx4timILOlniQPbHCkTJ44mHHSOHzA21+2gtAsXg0eoV8gP54z9YLYYv0S48nBJYEg7wnHB+JGjavgQoH+f5MzMtIRCEI4oguAYiszAomxWGdk0DbX8bZ74HadPMoY9B5/EQiH2VGRA8kpXBz2s39HgZmXv1llJitBCBS/LX0FVl8Y+kXx/tZKu8iqCZNYz+XWk9lKDIKf8XovLG7Um3q50Kyu1O0spZeOS9aSpOatfXUvjmvFqmMf7KhohgdEJt42K9WWxp1yZ3DEZ789UK4OvXc5DzwS+EgeVyEMUUBeHCgVmJPREmfcXGwOuRI6BTsyyyI2Q1Q/57bWyGu+WISOx5XiqK6PRYM2o1SVx45vGNSKz0XR3w/RYysTlWdW1U1JnuAKb0tnjt+gYTc9H67GJ86wEyS6o28MtLSulQ3DMd0S+srcWQnrBpxja6mvQX3ipEnoQqLuzjGbRYCnFCUE49qCB17a5BMFOjuQYiKZN0kBXHi3uPnym2c/ULbUThMiFXV09dN34LmJg8/AqQjIiSavq4ARdMm+NUwV358c1SPlmvzqWlWlEpGaTfhnzzvoJQnKcVpfUwTL40S2TFS8S/1s1g5lEMWh7ML6jTThr6I0PxvZQUn7zlLOfH6wL6yEI9sBvEHHhCJpHDJLuglrQzRpN0Tjk+ILQN2eNWJoY2F0QRsHxrge2MNJfLhmz21RVjGP+aZHIuEbzh1byNsal85ojPoqMXjcBhdabyL6DKi+qpjvyZ2U43oQg1N2Zh50gJM2jUSPJVUGRgZQ83xyYhVQ0e2QuUjo7EMY626sN3Uqoh563sM7001nUwOX08RIWF3K1Gvdrcn1a9yjILWglTKr2yqYyv6WdQbQKfrkLu+RYssbarS+rPWkjadyzlVWaq86SxCXdn0lZKis7Wz5CsRJpy8areA/UutUXlyU5/pPSJD0uSdyyeqnY+M7DMC/KvdJYTuJb67g3xCdNDqN6+KcauEssliDXvKbHbjHs6n0qfxyab+z3nkMQUht3hV/OrcvR61mVyBZDYWhTDx52glBZ9Ghg1XbcKmtS2jeZfVR6giKqeayFQWM2mIe/TRCV2kAOp2g1j2SsWtcgx98f2ytNRQrWJlttTzuR6U6ku3uiwMzXSCnF8qaHRxTpqaJeoKISVlPY9L3ty+hIn3uKwUbD27Ve8s3RyYZo/JifXFObJCH2O9coubIGajOh5Nwo76II5D9Xr5GwmNk25rWzkoRZhrU4Nel82+OLhWhsUpxE0TFojFn1sezi7Fp7Sw7s+yrlLKncixY5N9A2XSLLL2P7oSj2bgC2y1ryCUCxvoqP/dj8czwh7tZEsXqLPSUEoRhOWU+VkCC4aTXdIy9W0aebkXZJ2zry8hdkT5hap0HaeNTfEaZkxLAr1RRXWhl41MCuq0kcBnIGijXPiCWPAMaPbuUpqFoRzxzCjrFOGl5npcaYGNKV12/u36OTL9GRsujtFVZMTtIYj362Eds22jJxXNLtyzwMq/VR9vfW0BfzvsXbFj92a/ioq+SLGhyXVNVapliri/alra3SsebkvErWbYPtor9nLf3tm5I6yOAXP2KbbGPR+ZAkcZaYmPo6t5ioRrqL9UvmTE0dO651TBTFJ/52IQid6LPyJUrKYtqusotPBp4Qzt5c/VBISUFAEBAEPksIZBvMrl+4dA0myTwI1RY6XfNWumNDghTrxbKEHgR3tRLy/uBQjmXsRd2E9cIi5QSBziFQ31qnc++U0oKAIJBGQAhC/aOihATB3Teuv2FSUhDoSQSEEPQk2ul3Cf6HF/8yv10IQv29U0KCYBvTlVO++/bV6oe+60pmhYRR7bXu8FWWqCv7o+vafrhrOrJH1uFGt/j7ZXQWx6o7nyxjPwhBqL/HS0wQ6m9UumSloMWufM+RXJe58z3670huq7RNEBAEyoRAZ4iHEIT6e7LkBKH6sKgUlRzBUr2e+iGUkoKAICAICAJlRUAIQv09U3KCUH/DpKQgIAgIAoKAICAEof4xIAShfuykpCAgCAgCgkDJERCCUH8HlZwgdHZrwC3ffeFkRe8OoG4qkq7XdqebrrZrAw7rGTC1pt6t5x1dX4Z7vaZsll0vQ9ifPSBLZ2dM97W+/DXXMo/L3xqR0CIgBKH+sdBFBAFoaOxfvxTdWTLMU0qGwr2qtTtfegTU7eJ2BDRHmiAICAJ/mQj4fju0f+Avs/GdbHWXEYROyiHFS42ArEtL3T0inCAgCAgC3YBAjxKEvfsOdvXh/G6ARKoUBAQBQUAQEAQEgR4lCO9v2I5DHT5U4RvVpIMEAUFAEBAEBAFB4HAg0KME4dChjsT1qYejyfJOQUAQEAQEAUFAEKiGQI8ShGrCyPeCgCAgCAgCgoAgUA4EhCCUox9ECkFAEBAEBAFBoFQICEEoVXeIMIKAICAICAKCQDkQEIJQjn4QKQQBQUAQEAQEgVIhIAShVN0hwggCgoAgIAgIAuVAQAhCOfpBpBAEBAFBQBAQBEqFgBCEUnWHCCMICAKCgCAgCJQDASEI5egHkUIQEAQEAUFAECgVAkIQStUdIowgIAgIAoKAIFAOBIQglKMfRApBQBAQBAQBQaBUCAhBKFV3iDCCgCAgCAgCgkA5EBCCUI5+ECkEAUFAEBAEBIFSISAEoVTdIcIIAoKAICAICALlQEAIQjn6QaQQBAQBQUAQEARKhYAQhFJ1hwgjCAgCgoAgIAiUAwEhCOXoB5FCEBAEBAFBQBAoFQJCEErVHSKMICAICAKCgCBQDgSEIJSjH0QKQUAQEAQEAUGgVAgIQShVd4gwgoAgIAgIAoJAORAQglCOfhApBAFBQBAQBASBUiEgBKFU3SHCCAKCgCAgCAgC5UBACEI5+kGkEAQEAUFAEBAESoWAEIRSdYcIIwgIAoKAICAIlAMBIQjl6AeRQhAQBAQBQUAQKBUCQhBK1R0ijCAgCAgCgoAgUA4EhCCUox9ECkFAEBAEBAFBoFQICEEoVXeIMIKAICAICAKCQDkQEIJQjn4QKQQBQUAQEAQEgVIhIAShVN0hwggCgoAgIAgIAuVAQAhCOfpBpBAEBAFBQBAQBEqFgBCEUnWHCCMICAKCgCAgCJQDASEI5egHkUIQEAQEAUFAECgVAkIQStUdIowgIAgIAoKAIFAOBIQglKMfRApBQBAQBAQBQaBUCAhBKFV3iDCCgCAgCAgCgkA5EBCCUI5+ECkEAUFAEBAEBIFSISAEoVTdIcIIAoKAICAICALlQEAIQjn6QaQQBAQBQUAQEARKhYAQhFJ1hwgjCAgCgoAgIAiUAwEhCOXoB5FCEBAEBAFBQBAoFQI9TBA0AAVVKghEGEFAEBAEBAFBQBBIItCjBGHr9j3o6OiQXhAEBAFBQBAQBASBkiPQowRhW+te+L4PRY4E+QgCgoAgIAgIAoJAaRHoUYJQWhREMEFAEBAEBAFBQBCIISAEQQaEICAICAKCgCAgCKQQEIIgg0IQEAQEAUFAEBAEhCDIGBAEBAFBQBAQBASB6gj8f8Bb+cIZb6s9AAAAAElFTkSuQmCC;" vertex="1" parent="1">
                    <mxGeometry x="-790" y="150" width="767.58" height="487.12" as="geometry"/>
                </mxCell>
            </root>
        </mxGraphModel>
    </diagram>
</mxfile>